<?xml version="1.0" standalone="no"?>
<!DOCTYPE svg PUBLIC "-//W3C//DTD SVG 1.1//EN" "http://www.w3.org/Graphics/SVG/1.1/DTD/svg11.dtd" >
<svg xmlns="http://www.w3.org/2000/svg" xmlns:xlink="http://www.w3.org/1999/xlink" version="1.1">
<metadata>
Created by FontForge 20200314 at Mon Nov  3 02:29:06 2014
 By Unknown
Copyright (c) 2011 by Ryoichi Tsunekawa. All rights reserved.
</metadata>
<defs>
<font id="GeomGraphicW03-BoldItalic" horiz-adv-x="664" >
  <font-face 
    font-family="GeomGraphicW03-BoldItalic"
    font-weight="700"
    font-style="italic"
    font-stretch="normal"
    units-per-em="1000"
    panose-1="4 2 9 6 3 11 2 2 3 2"
    ascent="800"
    descent="-200"
    x-height="526"
    cap-height="700"
    bbox="-255.158 -238 1588 966"
    underline-thickness="50"
    underline-position="-125"
    slope="-10"
    unicode-range="U+0020-FB02"
  />
<missing-glyph horiz-adv-x="736" 
d="M111 700h546v-700h-546v700zM185 70h399v560h-399v-560z" />
    <glyph glyph-name="IJ" unicode="IJ" horiz-adv-x="1080" 
d="M223 22q-3 -22 -27 -22h-155q-23 0 -20 22l116 656q5 22 27 22h155q25 0 20 -22zM351 273q3 22 27 22h156q22 0 19 -22l-10 -54q-3 -15 -3 -25q0 -20 13.5 -26.5t48.5 -6.5h123q24 0 39.5 2.5t25 9.5t14.5 19.5t8 32.5l80 453q5 22 27 22h156q11 0 16 -5.5t3 -16.5
l-91 -518q-8 -42 -19 -72.5t-32 -50t-55.5 -28.5t-89.5 -9h-336q-75 0 -110 26.5t-35 85.5q0 11 1.5 22.5t3.5 25.5z" />
    <glyph glyph-name="ij" unicode="ij" horiz-adv-x="608" 
d="M137 700q3 20 24 20h140q21 0 18 -20l-15 -86q-5 -20 -25 -20h-140q-22 0 -17 20zM103 506q3 20 24 20h140q21 0 18 -20l-86 -486q-3 -20 -24 -20h-140q-21 0 -18 20zM233 -204q-21 0 -18 20l16 91q3 20 25 20h24q22 0 27 22l98 557q3 20 24 20h140q21 0 18 -20
l-102 -577q-6 -36 -14 -61t-24.5 -41t-45.5 -23.5t-77 -7.5h-91zM606 614q-5 -20 -25 -20h-140q-22 0 -17 20l15 86q3 20 24 20h140q21 0 18 -20z" />
    <glyph glyph-name="uniFB01" unicode="fi" horiz-adv-x="713" 
d="M97 380h-38q-21 0 -18 20l19 106q3 20 24 20h38l11 61q7 37 18 66t31.5 48t53.5 29t83 10h143q22 0 17 -20l-18 -106q-5 -20 -25 -20h-58q-20 0 -32.5 -2t-20 -7.5t-11.5 -16t-7 -26.5l-3 -16h120q21 0 18 -20l-19 -106q-3 -20 -24 -20h-120l-64 -360q-3 -20 -24 -20
h-140q-21 0 -18 20zM548 700q3 20 24 20h140q21 0 18 -20l-15 -86q-5 -20 -25 -20h-140q-22 0 -17 20zM514 506q3 20 24 20h140q21 0 18 -20l-86 -486q-3 -20 -24 -20h-140q-21 0 -18 20z" />
    <glyph glyph-name="uniFB02" unicode="fl" horiz-adv-x="733" 
d="M97 380h-38q-21 0 -18 20l19 106q3 20 24 20h38l11 61q7 37 18 66t31.5 48t53.5 29t83 10h143q22 0 17 -20l-18 -106q-5 -20 -25 -20h-58q-20 0 -32.5 -2t-20 -7.5t-11.5 -16t-7 -26.5l-3 -16h120q21 0 18 -20l-19 -106q-3 -20 -24 -20h-120l-64 -360q-3 -20 -24 -20
h-140q-21 0 -18 20zM543 720q5 20 25 20h140q22 0 17 -20l-96 -548q-1 -3 -1 -5.5v-3.5q0 -17 19 -17h25q21 0 18 -20l-19 -106q-3 -20 -24 -20h-91q-63 0 -91.5 21t-28.5 70q0 9 1 19.5t3 22.5z" />
    <glyph glyph-name=".notdef" horiz-adv-x="736" 
d="M111 700h546v-700h-546v700zM185 70h399v560h-399v-560z" />
    <glyph glyph-name=".null" horiz-adv-x="0" 
 />
    <glyph glyph-name="nonmarkingreturn" horiz-adv-x="333" 
 />
    <glyph glyph-name="space" unicode=" " horiz-adv-x="294" 
 />
    <glyph glyph-name="exclam" unicode="!" horiz-adv-x="321" 
d="M32 141q5 22 28 22h165q25 0 20 -22l-21 -119q-3 -22 -27 -22h-165q-24 0 -21 22zM312 700q24 0 19 -22l-46 -262q-2 -11 -5 -22t-8 -21l-54 -134q-10 -21 -30 -21h-71q-22 0 -22 21l-8 134q0 10 0.5 21t2.5 22l46 262q5 22 27 22h149z" />
    <glyph glyph-name="quotedbl" unicode="&#x22;" horiz-adv-x="569" 
d="M249 356q-2 -11 -10 -16.5t-19 -5.5h-117q-23 0 -21 22l38 322q2 11 9 16.5t18 5.5h159q11 0 16.5 -5.5t2.5 -16.5zM519 356q-2 -11 -10 -16.5t-19 -5.5h-117q-23 0 -21 22l38 322q2 11 9 16.5t18 5.5h159q11 0 16.5 -5.5t2.5 -16.5z" />
    <glyph glyph-name="numbersign" unicode="#" horiz-adv-x="857" 
d="M604 150l-44 -129q-8 -21 -30 -21h-97q-23 0 -15 21l44 129h-178l-44 -129q-8 -21 -29 -21h-97q-23 0 -15 21l44 129h-114q-21 0 -15 21l28 84q10 21 30 21h115l51 148h-114q-22 0 -14 21l29 84q5 21 28 21h114l45 129q10 21 30 21h98q10 0 14 -5.5t-1 -15.5l-45 -129
h178l45 129q10 21 30 21h98q10 0 14.5 -5.5t-0.5 -15.5l-45 -129h115q21 0 16 -21l-29 -84q-8 -21 -31 -21h-114l-51 -148h114q11 0 15 -5.5t-1 -15.5l-28 -84q-3 -10 -11 -15.5t-18 -5.5h-115zM328 276h178l51 148h-178z" />
    <glyph glyph-name="dollar" unicode="$" horiz-adv-x="857" 
d="M462 170h98q27 0 39 9t16 30l6 34q1 4 1 12q0 14 -9.5 20.5t-32.5 6.5h-98zM425 530h-88q-27 0 -39 -9t-16 -30l-5 -28q-1 -5 -1 -12q0 -14 9.5 -20.5t32.5 -6.5h88zM225 282q-75 0 -109 26.5t-34 85.5q0 11 1.5 22.5t3.5 25.5l14 78q7 42 18 72t31.5 49.5t55 29
t89.5 9.5h156l14 79q5 21 26 21h57q10 0 15 -5.5t3 -15.5l-14 -79h156q76 0 110 -23.5t34 -80.5q0 -24 -6 -55l-5 -28q-3 -21 -25 -21h-137q-22 0 -19 21q2 7 2 10v5q0 22 -28 22h-108l-19 -106h166q74 0 109 -26.5t35 -85.5q0 -11 -1.5 -22.5t-3.5 -25.5l-15 -84
q-8 -42 -18.5 -72.5t-31.5 -50t-55.5 -28.5t-89.5 -9h-166l-14 -79q-2 -10 -9 -15.5t-17 -5.5h-57q-21 0 -18 21l14 79h-167q-76 0 -110 23.5t-34 80.5q0 25 6 57l5 26q3 21 26 21h137q21 0 18 -21q-2 -7 -2 -10.5v-5.5q0 -21 28 -21h119l20 112h-156z" />
    <glyph glyph-name="percent" unicode="%" horiz-adv-x="1144" 
d="M99 599q5 27 12.5 46t21 31t35.5 18t55 6h202q47 0 68.5 -16.5t21.5 -53.5q0 -15 -3 -31l-40 -228q-5 -27 -12.5 -46t-21 -31t-35 -18t-54.5 -6h-202q-47 0 -69 16.5t-22 53.5q0 13 3 31zM703 329q4 27 11.5 46t21 31t35.5 18t55 6h202q91 0 91 -71q0 -14 -3 -30
l-41 -228q-5 -27 -12 -46t-20.5 -31t-35 -18t-54.5 -6h-202q-48 0 -70 16.5t-22 54.5q0 13 3 30zM279 590q-28 0 -37.5 -6.5t-14.5 -30.5l-24 -136q-1 -5 -1.5 -9t-0.5 -7q0 -14 9 -17.5t32 -3.5h51q29 0 37.5 6.5t13.5 30.5l24 136q1 5 1.5 9t0.5 8q0 13 -8.5 16.5
t-31.5 3.5h-51zM882 320q-28 0 -37.5 -6.5t-14.5 -30.5l-24 -136q-1 -5 -1.5 -8.5t-0.5 -6.5q0 -14 9 -18t32 -4h51q29 0 38 6.5t13 30.5l24 136q1 5 1.5 9t0.5 8q0 13 -8.5 16.5t-31.5 3.5h-51zM383 20q-8 -9 -16.5 -14.5t-22.5 -5.5h-104q-10 0 -12.5 7.5t4.5 15.5
l558 657q8 9 17 14.5t23 5.5h105q9 0 11.5 -7.5t-4.5 -15.5z" />
    <glyph glyph-name="ampersand" unicode="&#x26;" horiz-adv-x="915" 
d="M157 540q7 42 17.5 72t31.5 49.5t55.5 29t90.5 9.5h265q75 0 109 -23.5t34 -80.5q0 -24 -6 -55l-7 -40q-3 -21 -26 -21h-136q-21 0 -18 21l2 13q1 4 1 11q0 25 -33 25h-154q-25 0 -36 -9t-14 -27l-1 -6q-1 -5 -1 -13q0 -12 6.5 -19.5t23.5 -16.5l253 -139l7 40
q3 21 26 21h136q21 0 18 -21l-23 -130l81 -44q19 -10 16 -29l-27 -147q-2 -8 -9 -10.5t-17 2.5l-89 49q-19 -28 -53 -39.5t-97 -11.5h-430q-75 0 -109.5 26.5t-34.5 84.5q0 11 1.5 23t3.5 26l12 71q7 39 17 67t28.5 45.5t48 26t74.5 10.5q-24 17 -35 37t-11 52q0 12 1 26.5
t5 30.5zM323 275h-54q-27 0 -39 -9t-16 -30l-8 -47q-1 -5 -1 -12q0 -14 9.5 -20.5t32.5 -6.5h305z" />
    <glyph glyph-name="quotesingle" unicode="'" horiz-adv-x="300" 
d="M249 356q-2 -11 -10 -16.5t-19 -5.5h-117q-23 0 -21 22l38 322q2 11 9 16.5t18 5.5h159q11 0 16.5 -5.5t2.5 -16.5z" />
    <glyph glyph-name="parenleft" unicode="(" horiz-adv-x="383" 
d="M123 -189q-45 64 -71.5 147t-26.5 180q0 83 16 163.5t47 155.5t76.5 142.5t104.5 125.5q11 11 20 13t20 2h150q8 0 10.5 -6.5t-4.5 -13.5q-60 -60 -108.5 -124.5t-82 -136.5t-51.5 -153t-18 -174q0 -77 23 -158t70 -158q4 -7 -0.5 -13.5t-12.5 -6.5h-127q-11 0 -19.5 2.5
t-15.5 12.5z" />
    <glyph glyph-name="parenright" unicode=")" horiz-adv-x="383" 
d="M262 725q45 -64 71.5 -147t26.5 -180q0 -83 -16 -163.5t-47 -155.5t-76.5 -142.5t-104.5 -125.5q-11 -11 -20 -13t-20 -2h-150q-8 0 -10.5 6.5t4.5 13.5q60 60 108.5 124.5t82 136.5t51.5 153t18 174q0 77 -23 158t-70 158q-4 7 0.5 13.5t12.5 6.5h127q11 0 19.5 -2.5
t15.5 -12.5z" />
    <glyph glyph-name="asterisk" unicode="*" horiz-adv-x="634" 
d="M107 573q3 10 10.5 12.5t15.5 -2.5l177 -104l-22 200q-1 9 4.5 15t16.5 6h139q11 0 15 -6t0 -15l-71 -200l193 104q9 5 17 2.5t11 -12.5l34 -126q3 -21 -18 -23l-220 -20l142 -136q5 -6 4.5 -13.5t-9.5 -13.5l-119 -78q-8 -5 -15.5 -3t-11.5 10l-64 186l-106 -186
q-4 -8 -12.5 -10t-16.5 3l-107 78q-17 14 1 27l181 136l-207 20q-10 1 -14.5 7t0.5 16z" />
    <glyph glyph-name="plus" unicode="+" horiz-adv-x="777" 
d="M490 420h237q21 0 18 -21l-17 -98q-5 -21 -26 -21h-237l-40 -226q-2 -10 -9 -15.5t-17 -5.5h-103q-21 0 -18 21l40 226h-237q-23 0 -18 21l17 98q3 21 26 21h237l39 226q5 21 26 21h103q10 0 15 -5.5t3 -15.5z" />
    <glyph glyph-name="comma" unicode="," horiz-adv-x="300" 
d="M79 -143q-12 -15 -31 -15h-56q-8 0 -11.5 6.5t4.5 14.5l112 137h-76q-23 0 -20 22l23 129q5 22 27 22h166q24 0 19 -22l-23 -129q-3 -22 -17 -37z" />
    <glyph glyph-name="hyphen" unicode="-" horiz-adv-x="350" 
d="M48 219q-22 0 -17 20l21 122q3 20 25 20h239q20 0 17 -20l-21 -122q-5 -20 -25 -20h-239z" />
    <glyph glyph-name="period" unicode="." horiz-adv-x="300" 
d="M24 151q5 22 27 22h166q24 0 19 -22l-23 -129q-3 -22 -26 -22h-166q-23 0 -20 22z" />
    <glyph glyph-name="slash" unicode="/" horiz-adv-x="529" 
d="M34 -136q-8 -10 -16.5 -15t-22.5 -5h-97q-10 0 -12.5 7.5t3.5 15.5l616 853q8 10 16.5 15t22.5 5h98q10 0 12.5 -7.5t-3.5 -15.5z" />
    <glyph glyph-name="zero" unicode="0" horiz-adv-x="857" 
d="M99 540q7 42 18 72t32.5 49.5t56 29t89.5 9.5h421q75 0 109 -26.5t34 -85.5q0 -25 -4 -48l-67 -380q-8 -42 -18.5 -72.5t-31 -50t-55.5 -28.5t-90 -9h-421q-74 0 -109.5 26.5t-35.5 85.5q0 20 5 48zM364 550q-24 0 -39.5 -2.5t-25 -9.5t-14.5 -20t-9 -33l-48 -270
q-3 -17 -3 -28q0 -23 15 -30t54 -7h229q24 0 39.5 2.5t25 9.5t14.5 20t8 33l48 270q3 16 3 29q0 22 -15 29t-53 7h-229z" />
    <glyph glyph-name="one" unicode="1" horiz-adv-x="857" 
d="M190 129q5 21 26 21h170l69 392h-170q-23 0 -18 21l15 89q5 21 27 24l164 21q19 3 41 3h134q23 0 18 -21l-93 -529h168q23 0 18 -21l-19 -108q-3 -21 -25 -21h-525q-22 0 -19 21z" />
    <glyph glyph-name="two" unicode="2" horiz-adv-x="857" 
d="M332 550q-20 0 -30 -8.5t-14 -27.5l-5 -31q-5 -21 -26 -21h-136q-23 0 -18 21l10 58q8 44 18.5 74.5t31 49t54.5 27t90 8.5h410q75 0 109 -26.5t34 -85.5q0 -25 -4 -48l-21 -118q-8 -42 -18.5 -72.5t-31 -50t-55.5 -28.5t-90 -9h-356q-26 0 -38 -9t-16 -30l-13 -73h548
q23 0 18 -21l-19 -108q-3 -21 -25 -21h-713q-22 0 -19 21l38 213q7 42 20 74t36 53t59.5 32t92.5 11h345q27 0 38.5 9t15.5 30l12 68q1 4 1 12q0 14 -9.5 20.5t-32.5 6.5h-291z" />
    <glyph glyph-name="three" unicode="3" horiz-adv-x="857" 
d="M799 160q-8 -42 -18.5 -72.5t-31.5 -50t-55.5 -28.5t-89.5 -9h-450q-76 0 -109.5 23t-33.5 80q0 24 6 56l7 40q3 21 25 21h136q11 0 16 -5.5t3 -15.5l-3 -13q-1 -4 -1 -10q0 -26 33 -26h330q26 0 38 9t16 30l9 54q1 4 1 12q0 27 -41 27h-331q-21 0 -18 21l18 100
q3 21 25 21h320q27 0 38.5 9t15.5 30l9 48q1 4 1 12q0 14 -9.5 20.5t-32.5 6.5h-295q-20 0 -30 -8.5t-14 -27.5l-2 -13q-2 -11 -9.5 -15.5t-18 -6t-22 -0.5t-21.5 1h-91q-21 0 -18 21l7 40q8 44 18.5 74.5t31 49t54.5 27t90 8.5h414q75 0 109 -26.5t34 -85.5q0 -25 -4 -48
l-5 -32q-6 -35 -13.5 -61t-21.5 -45t-35 -31t-54 -18q44 -9 64 -35t20 -72q0 -11 -1 -22.5t-3 -24.5z" />
    <glyph glyph-name="four" unicode="4" horiz-adv-x="857" 
d="M41 263q3 20 21 34l518 389q9 6 18.5 10t20.5 4h210q10 0 15 -5.5t3 -15.5l-74 -422h46q21 0 18 -21l-19 -108q-3 -21 -26 -21h-46l-15 -86q-3 -21 -25 -21h-143q-22 0 -19 21l15 86h-524q-21 0 -18 21zM586 257l49 276l-368 -276h319z" />
    <glyph glyph-name="five" unicode="5" horiz-adv-x="857" 
d="M791 160q-8 -42 -18.5 -72.5t-31 -50t-55.5 -28.5t-90 -9h-444q-72 0 -103.5 21t-31.5 75q0 23 6 53l6 35q3 21 26 21h136q11 0 16 -6t3 -17q-1 -4 -1 -11q0 -21 28 -21h317q27 0 39 9t16 30l14 82q1 4 1 12q0 14 -9.5 20.5t-32.5 6.5h-308q-35 0 -49 -25
q-10 -16 -25 -16h-121q-23 0 -17 21l83 389q5 21 27 21h671q23 0 18 -21l-19 -108q-3 -21 -26 -21h-527l-28 -129q18 15 44 23t63 8h307q75 0 109.5 -26.5t34.5 -84.5q0 -11 -1.5 -23t-3.5 -26z" />
    <glyph glyph-name="six" unicode="6" horiz-adv-x="857" 
d="M258 382q22 23 55.5 35t84.5 12h281q74 0 109 -26.5t35 -85.5q0 -11 -1.5 -22.5t-3.5 -25.5l-19 -109q-8 -42 -18.5 -72.5t-31.5 -50t-55.5 -28.5t-89.5 -9h-433q-75 0 -109.5 26.5t-34.5 84.5q0 11 1.5 23t3.5 26l55 316q10 60 26.5 102.5t47 69.5t78.5 39.5t122 12.5
h353q76 0 110 -23.5t34 -80.5q0 -24 -6 -55l-5 -29q-3 -21 -26 -21h-136q-22 0 -18 23q1 4 1 11q0 25 -33 25h-264q-26 0 -42.5 -3.5t-27 -11.5t-16.5 -21.5t-10 -34.5zM308 287q-68 0 -77 -58l-7 -40q-1 -5 -1 -12q0 -14 9 -20.5t32 -6.5h299q26 0 38 9t16 30l10 59
q1 4 1 12q0 27 -41 27h-279z" />
    <glyph glyph-name="seven" unicode="7" horiz-adv-x="857" 
d="M403 20q-17 -20 -42 -20h-187q-10 0 -12 7.5t6 15.5l506 527h-398l-14 -81q-2 -10 -9 -15.5t-17 -5.5h-137q-21 0 -18 21l37 210q5 21 26 21h741q23 0 18 -21l-23 -130q-3 -18 -18 -35z" />
    <glyph glyph-name="eight" unicode="8" horiz-adv-x="857" 
d="M99 540q7 42 17.5 72t31.5 49.5t56 29t90 9.5h422q75 0 109 -26.5t34 -85.5q0 -25 -4 -48l-6 -32q-6 -35 -14.5 -61t-22 -45t-34.5 -31t-54 -18q86 -18 86 -106q0 -11 -1.5 -23t-3.5 -26l-6 -38q-8 -42 -18.5 -72.5t-31.5 -50t-55.5 -28.5t-89.5 -9h-443
q-75 0 -109.5 26.5t-34.5 84.5q0 11 1.5 23t3.5 26l6 38q6 36 14 63t23.5 46.5t39.5 30.5t62 16q-79 20 -79 105q0 11 1.5 23t3.5 26zM626 243q1 4 1 12q0 27 -41 27h-309q-27 0 -38.5 -9t-15.5 -30l-9 -54q-1 -5 -1 -13q0 -14 9 -20t32 -6h309q26 0 38 9t16 30zM334 550
q-26 0 -37.5 -9t-15.5 -30l-9 -48q-1 -5 -1 -12q0 -14 9 -20.5t32 -6.5h288q27 0 38.5 9t15.5 30l9 48q1 4 1 12q0 14 -9.5 20.5t-32.5 6.5h-288z" />
    <glyph glyph-name="nine" unicode="9" horiz-adv-x="857" 
d="M89 540q7 42 17.5 72t31.5 49.5t56 29t90 9.5h433q75 0 109 -26.5t34 -86.5q0 -11 -1 -22.5t-3 -24.5l-56 -316q-11 -60 -27 -102.5t-46 -69.5t-78 -39.5t-122 -12.5h-353q-76 0 -110 23.5t-34 80.5q0 23 6 55l5 29q3 21 25 21h136q11 0 16 -5.5t2 -17.5q-1 -4 -1 -10
q0 -26 33 -26h264q25 0 42 3.5t28 11.5t17 21.5t9 34.5l17 96q-22 -23 -55.5 -34.5t-84.5 -11.5h-281q-75 0 -109.5 26.5t-34.5 85.5q0 20 5 48zM579 413q67 0 78 58l7 40q1 4 1 11q0 15 -9.5 21.5t-32.5 6.5h-299q-26 0 -37.5 -9t-15.5 -30l-11 -59q-1 -5 -1 -12
q0 -14 9 -20.5t32 -6.5h279z" />
    <glyph glyph-name="colon" unicode=":" horiz-adv-x="300" 
d="M24 151q5 22 27 22h166q24 0 19 -22l-23 -129q-3 -22 -26 -22h-166q-23 0 -20 22zM81 478q5 22 27 22h166q24 0 19 -22l-23 -129q-3 -22 -26 -22h-166q-23 0 -20 22z" />
    <glyph glyph-name="semicolon" unicode=";" horiz-adv-x="300" 
d="M79 -143q-12 -15 -31 -15h-56q-8 0 -11.5 6.5t4.5 14.5l112 137h-76q-23 0 -20 22l23 129q5 22 27 22h166q24 0 19 -22l-23 -129q-3 -22 -17 -37zM81 478q5 22 27 22h166q24 0 19 -22l-23 -129q-3 -22 -26 -22h-166q-23 0 -20 22z" />
    <glyph glyph-name="less" unicode="&#x3c;" horiz-adv-x="777" 
d="M736 656q9 3 16.5 -1.5t5.5 -13.5l-20 -109q-4 -24 -26 -32l-457 -155l402 -155q19 -8 15 -32l-17 -99q-2 -9 -10.5 -13.5t-16.5 -1.5l-523 208q-19 7 -15 32l23 132q4 24 26 32z" />
    <glyph glyph-name="equal" unicode="=" horiz-adv-x="777" 
d="M110 415q-22 0 -19 21l18 98q3 21 25 21h611q22 0 19 -21l-18 -98q-3 -21 -25 -21h-611zM62 145q-23 0 -18 21l17 98q3 21 26 21h611q21 0 18 -21l-17 -98q-5 -21 -26 -21h-611z" />
    <glyph glyph-name="greater" unicode="&#x3e;" horiz-adv-x="777" 
d="M72 44q-9 -3 -16.5 1.5t-5.5 13.5l20 109q4 24 26 32l457 155l-402 155q-19 8 -15 32l17 99q2 9 10.5 13.5t16.5 1.5l523 -208q19 -7 15 -32l-23 -132q-4 -24 -26 -32z" />
    <glyph glyph-name="question" unicode="?" horiz-adv-x="619" 
d="M285 550q-20 0 -30 -8.5t-14 -27.5l-2 -13q-3 -21 -26 -21h-136q-21 0 -18 21l7 40q8 44 17.5 74.5t30 49t55 27t91.5 8.5h244q75 0 109 -26.5t34 -85.5q0 -25 -4 -48l-18 -103q-8 -42 -18.5 -72.5t-31.5 -50t-56 -28.5t-90 -9h-79q-18 0 -28.5 -6.5t-13.5 -23.5l-1 -8
q-5 -21 -26 -21h-109q-10 0 -15 5.5t-3 15.5l8 46q7 39 18 65t29.5 41t46 21t68.5 6h63q27 0 38.5 9t15.5 30l10 54q1 4 1 12q0 14 -9.5 20.5t-32.5 6.5h-125zM106 141q5 22 27 22h166q24 0 19 -22l-21 -119q-3 -22 -26 -22h-166q-23 0 -20 22z" />
    <glyph glyph-name="at" unicode="@" horiz-adv-x="1012" 
d="M325 406q10 32 20.5 55.5t28 38.5t45 22t72.5 7h64q51 0 75 -19.5t24 -60.5l18 60q8 20 28 20h99q22 0 14 -20l-84 -281q-2 -8 -2 -11q0 -16 25 -16h30q10 0 19.5 3t17.5 11t15 22.5t11 37.5l31 174q3 20 5 37t2 32q0 34 -10 57t-33 37t-59.5 20.5t-88.5 6.5h-220
q-60 0 -100.5 -9t-67 -29.5t-41.5 -54.5t-24 -85l-52 -296q-7 -35 -7 -66q0 -32 9.5 -53t30.5 -34.5t54.5 -19t82.5 -5.5h389q21 0 18 -20l-13 -71q-3 -20 -24 -20h-474q-107 0 -165.5 52t-58.5 145q0 13 1.5 27t3.5 28l65 370q10 58 32.5 104.5t60 79.5t90.5 50.5t125 17.5
h379q106 0 165 -52t59 -144q0 -14 -1.5 -28t-3.5 -28l-39 -223q-8 -44 -22.5 -77t-39 -55.5t-61 -34t-88.5 -11.5h-55q-69 0 -98 17t-29 51v7.5t1 8.5q-21 -42 -55.5 -63t-95.5 -21h-64q-51 0 -75.5 16.5t-24.5 53.5q0 21 9 53zM533 407q-31 0 -43 -9t-19 -34l-31 -101
q-4 -12 -4 -23q0 -12 9 -17t31 -5h29q34 0 53 14t27 42l23 77q4 12 4 24q0 16 -11.5 24t-37.5 8h-30z" />
    <glyph glyph-name="A" unicode="A" horiz-adv-x="851" 
d="M569 119h-337l-55 -98q-11 -21 -35 -21h-170q-10 0 -13 6.5t3 16.5l390 656q12 21 37 21h228q23 0 28 -21l160 -656q2 -10 -3 -16.5t-14 -6.5h-169q-25 0 -29 21zM321 276h214l-58 276z" />
    <glyph glyph-name="B" unicode="B" horiz-adv-x="837" 
d="M704 700q75 0 109 -26.5t34 -86.5q0 -11 -1 -22.5t-3 -24.5l-6 -32q-7 -35 -15.5 -62t-22.5 -46t-36.5 -30.5t-56.5 -16.5q91 -16 91 -107q0 -11 -1.5 -23t-3.5 -26l-6 -37q-7 -42 -17.5 -72.5t-31.5 -50t-56 -28.5t-90 -9h-550q-23 0 -20 22l116 656q5 22 27 22h540z
M268 276l-20 -115h282q30 0 43.5 11t18.5 38l3 17q1 5 1.5 9t0.5 8q0 32 -47 32h-282zM296 430h272q29 0 43 10.5t19 37.5l2 12q1 5 1 8.5v7.5q0 18 -10.5 25.5t-34.5 7.5h-273z" />
    <glyph glyph-name="C" unicode="C" horiz-adv-x="817" 
d="M102 540q7 42 18 72t32.5 49.5t56 29t89.5 9.5h393q76 0 109 -22t33 -79q0 -12 -2 -26t-4 -30l-11 -66q-3 -22 -27 -22h-150q-22 0 -19 22l5 31q1 2 1 4.5v4.5q0 22 -28 22h-217q-24 0 -39.5 -2.5t-25.5 -9.5t-15 -19.5t-9 -32.5l-44 -250q-3 -17 -3 -27q0 -23 15 -30
t54 -7h217q34 0 38 31l6 31q3 22 27 22h150q22 0 19 -22l-12 -66q-8 -44 -17.5 -74t-29 -48.5t-53.5 -26.5t-91 -8h-393q-74 0 -109.5 26.5t-35.5 85.5q0 20 5 48z" />
    <glyph glyph-name="D" unicode="D" horiz-adv-x="850" 
d="M795 211q-9 -50 -26.5 -89.5t-48 -66.5t-75.5 -41t-108 -14h-496q-23 0 -20 22l116 656q5 22 27 22h496q91 0 139.5 -42t48.5 -120q0 -26 -4 -49zM637 462q1 7 1.5 13t0.5 11q0 29 -19 41t-61 12h-244l-67 -378h244q51 0 74 17t31 60z" />
    <glyph glyph-name="E" unicode="E" horiz-adv-x="810" 
d="M821 700q24 0 19 -22l-21 -117q-3 -22 -26 -22h-478l-20 -109h400q11 0 16 -5.5t3 -16.5l-19 -110q-2 -11 -9 -16.5t-18 -5.5h-400l-20 -115h478q22 0 19 -22l-21 -117q-3 -22 -26 -22h-657q-23 0 -20 22l116 656q5 22 27 22h657z" />
    <glyph glyph-name="F" unicode="F" horiz-adv-x="762" 
d="M294 422h376q23 0 20 -22l-21 -117q-3 -22 -27 -22h-376l-43 -239q-3 -22 -27 -22h-155q-23 0 -20 22l116 656q5 22 27 22h634q24 0 19 -22l-21 -117q-3 -22 -26 -22h-455z" />
    <glyph glyph-name="G" unicode="G" horiz-adv-x="852" 
d="M381 539q-24 0 -39.5 -2.5t-25.5 -9.5t-15 -19.5t-9 -32.5l-44 -250q-3 -17 -3 -27q0 -23 15 -30t54 -7h238q34 0 38 31l11 59h-144q-24 0 -19 22l19 110q5 22 27 22h317q24 0 19 -22l-40 -226q-8 -44 -17.5 -74t-29 -48.5t-53.5 -26.5t-91 -8h-414q-74 0 -109.5 26.5
t-35.5 85.5q0 20 5 48l67 380q7 42 18 72t32.5 49.5t56 29t89.5 9.5h414q76 0 109 -22t33 -79q0 -25 -6 -56l-10 -56q-3 -22 -27 -22h-150q-24 0 -19 22l4 21q1 2 1 4.5v4.5q0 22 -28 22h-238z" />
    <glyph glyph-name="H" unicode="H" horiz-adv-x="873" 
d="M766 22q-3 -22 -26 -22h-156q-23 0 -20 22l45 251h-341l-45 -251q-3 -22 -27 -22h-155q-23 0 -20 22l116 656q5 22 27 22h155q25 0 20 -22l-43 -244h341l43 244q5 22 27 22h156q24 0 19 -22z" />
    <glyph glyph-name="I" unicode="I" horiz-adv-x="329" 
d="M223 22q-3 -22 -27 -22h-155q-23 0 -20 22l116 656q5 22 27 22h155q25 0 20 -22z" />
    <glyph glyph-name="J" unicode="J" horiz-adv-x="751" 
d="M22 273q3 22 27 22h156q22 0 19 -22l-10 -54q-3 -15 -3 -25q0 -20 13.5 -26.5t48.5 -6.5h123q24 0 39.5 2.5t25 9.5t14.5 19.5t8 32.5l80 453q5 22 27 22h156q11 0 16 -5.5t3 -16.5l-91 -518q-8 -42 -19 -72.5t-32 -50t-55.5 -28.5t-89.5 -9h-336q-75 0 -110 26.5
t-35 85.5q0 11 1.5 22.5t3.5 25.5z" />
    <glyph glyph-name="K" unicode="K" horiz-adv-x="849" 
d="M556 353l235 -331q5 -7 1 -14.5t-13 -7.5h-185q-12 0 -19 3.5t-14 13.5l-178 259h-115l-45 -254q-3 -22 -27 -22h-155q-23 0 -20 22l116 656q5 22 27 22h155q25 0 20 -22l-43 -244h100l258 249q10 10 18 13.5t20 3.5h204q8 0 10 -7t-6 -15z" />
    <glyph glyph-name="L" unicode="L" horiz-adv-x="740" 
d="M248 161h437q22 0 19 -22l-21 -117q-3 -22 -26 -22h-616q-23 0 -20 22l116 656q5 22 27 22h155q25 0 20 -22z" />
    <glyph glyph-name="M" unicode="M" horiz-adv-x="1076" 
d="M428 700q27 0 29 -21l60 -468l224 468q10 21 37 21h290q24 0 19 -22l-116 -656q-3 -22 -26 -22h-156q-23 0 -20 22l90 511l-253 -512q-9 -21 -36 -21h-171q-26 0 -29 21l-74 516l-91 -515q-3 -22 -26 -22h-140q-23 0 -20 22l116 656q5 22 27 22h266z" />
    <glyph glyph-name="N" unicode="N" horiz-adv-x="890" 
d="M505 0q-25 0 -29 18l-179 522l-92 -518q-3 -22 -26 -22h-140q-23 0 -20 22l116 656q5 22 27 22h254q23 0 29 -18l179 -523l91 519q5 22 28 22h139q24 0 19 -22l-116 -656q-3 -22 -26 -22h-254z" />
    <glyph glyph-name="O" unicode="O" horiz-adv-x="868" 
d="M797 160q-8 -42 -18.5 -72.5t-31.5 -50t-55.5 -28.5t-89.5 -9h-427q-74 0 -109.5 26.5t-35.5 85.5q0 20 5 48l67 380q7 42 18 72t32.5 49.5t56 29t89.5 9.5h427q75 0 109 -26.5t34 -86.5q0 -11 -1 -22.5t-3 -24.5zM381 539q-24 0 -39.5 -2.5t-25.5 -9.5t-15 -19.5
t-9 -32.5l-44 -250q-3 -17 -3 -27q0 -23 15 -30t54 -7h204q25 0 40.5 2.5t25 9.5t14.5 19.5t8 32.5l44 250q3 18 3 29q0 22 -14.5 28.5t-53.5 6.5h-204z" />
    <glyph glyph-name="P" unicode="P" horiz-adv-x="820" 
d="M813 373q-7 -42 -18 -72.5t-32 -50t-55.5 -28.5t-89.5 -9h-361l-34 -191q-3 -22 -27 -22h-155q-23 0 -20 22l116 656q5 22 27 22h540q75 0 109 -26.5t34 -86.5q0 -11 -1 -22.5t-3 -24.5zM315 539l-30 -165h259q22 0 35.5 2t21.5 8.5t12.5 17.5t7.5 29l9 51q3 16 3 27
q0 19 -12.5 24.5t-46.5 5.5h-259z" />
    <glyph glyph-name="Q" unicode="Q" horiz-adv-x="868" 
d="M797 160q-8 -41 -18 -70.5t-29.5 -49t-51 -29.5t-82.5 -11l122 -127q8 -9 3 -19t-17 -10h-170q-17 0 -26 4t-17 14l-119 138h-217q-74 0 -109.5 26.5t-35.5 85.5q0 20 5 48l67 380q7 42 18 72t32.5 49.5t56 29t89.5 9.5h427q75 0 109 -26.5t34 -86.5q0 -11 -1 -22.5
t-3 -24.5zM381 539q-24 0 -39.5 -2.5t-25.5 -9.5t-15 -19.5t-9 -32.5l-44 -250q-3 -17 -3 -27q0 -23 15 -30t54 -7h204q25 0 40.5 2.5t25 9.5t14.5 19.5t8 32.5l44 250q3 18 3 29q0 22 -14.5 28.5t-53.5 6.5h-204z" />
    <glyph glyph-name="R" unicode="R" horiz-adv-x="844" 
d="M823 401q-8 -42 -18.5 -74t-32 -53t-56.5 -32t-90 -11h-3l155 -209q5 -7 1 -14.5t-12 -7.5h-183q-14 0 -21.5 3.5t-14.5 13.5l-135 204h-155l-35 -199q-3 -22 -27 -22h-155q-23 0 -20 22l116 656q5 22 27 22h545q75 0 109 -26.5t34 -85.5q0 -25 -4 -48zM315 539l-28 -157
h264q22 0 35.5 2t21.5 8.5t12.5 17.5t7.5 29l7 43q3 16 3 27q0 19 -12.5 24.5t-46.5 5.5h-264z" />
    <glyph glyph-name="S" unicode="S" horiz-adv-x="815" 
d="M517 161q25 0 35.5 8t13.5 27l8 45q1 4 1 10q0 14 -8.5 19.5t-29.5 5.5h-324q-75 0 -109.5 26.5t-34.5 85.5q0 11 1.5 22.5t3.5 25.5l19 104q7 42 17.5 72t31.5 49.5t55.5 29t90.5 9.5h392q75 0 108 -22t33 -79q0 -25 -6 -56l-7 -41q-3 -22 -27 -22h-150q-22 0 -19 22
l1 6q1 5 1 10q0 21 -28 21h-248q-25 0 -35.5 -8t-14.5 -27l-7 -39q-1 -4 -1 -11q0 -13 8.5 -18.5t29.5 -5.5h324q75 0 109.5 -26.5t34.5 -84.5q0 -11 -1.5 -23t-3.5 -26l-19 -110q-8 -42 -18.5 -72.5t-31 -50t-55.5 -28.5t-90 -9h-415q-76 0 -109 22t-33 78q0 25 6 57l7 41
q5 22 27 22h150q11 0 16 -5.5t3 -16.5l-1 -5q-1 -4 -1 -10q0 -22 28 -22h272z" />
    <glyph glyph-name="T" unicode="T" horiz-adv-x="754" 
d="M325 539h-239q-23 0 -20 22l21 117q5 22 27 22h680q24 0 19 -22l-21 -117q-3 -22 -26 -22h-239l-92 -517q-3 -22 -26 -22h-156q-23 0 -20 22z" />
    <glyph glyph-name="U" unicode="U" horiz-adv-x="852" 
d="M497 161q25 0 40.5 2.5t25 9.5t14.5 19.5t8 32.5l80 453q5 22 27 22h156q11 0 16 -5.5t3 -16.5l-91 -518q-8 -42 -18.5 -72.5t-31.5 -50t-55.5 -28.5t-89.5 -9h-400q-75 0 -110 26.5t-35 85.5q0 11 1.5 22.5t3.5 25.5l91 518q5 22 27 22h156q24 0 19 -22l-80 -453
q-3 -17 -3 -27q0 -23 15 -30t54 -7h177z" />
    <glyph glyph-name="V" unicode="V" horiz-adv-x="818" 
d="M249 0q-14 0 -20.5 5t-9.5 16l-142 656q-2 10 3 16.5t15 6.5h166q26 0 29 -21l97 -521l282 521q6 11 14 16t22 5h172q10 0 12.5 -6.5t-2.5 -16.5l-375 -656q-5 -11 -13 -16t-22 -5h-228z" />
    <glyph glyph-name="W" unicode="W" horiz-adv-x="1144" 
d="M652 0q-23 0 -25 22l-21 442l-176 -442q-8 -22 -31 -22h-244q-23 0 -25 22l-54 656q0 22 21 22h162q24 0 24 -22l29 -514l203 514q9 22 33 22h199q24 0 24 -22l21 -514l211 514q9 22 33 22h165q22 0 13 -22l-286 -656q-8 -22 -31 -22h-245z" />
    <glyph glyph-name="X" unicode="X" horiz-adv-x="802" 
d="M282 354l-187 324q-4 8 0.5 15t12.5 7h187q12 0 18.5 -3t11.5 -14l111 -211l180 211q8 11 16.5 14t20.5 3h195q8 0 10 -7t-5 -15l-302 -324l192 -332q5 -8 0.5 -15t-12.5 -7h-187q-11 0 -18.5 3t-12.5 14l-116 219l-187 -219q-9 -11 -16.5 -14t-19.5 -3h-195
q-8 0 -10.5 7t4.5 15z" />
    <glyph glyph-name="Y" unicode="Y" horiz-adv-x="804" 
d="M299 255l-220 423q-4 8 0.5 15t13.5 7h183q12 0 18.5 -3t11.5 -14l119 -258l211 258q8 11 16.5 14t20.5 3h192q9 0 11 -7t-5 -15l-370 -423l-41 -233q-3 -22 -26 -22h-156q-23 0 -20 22z" />
    <glyph glyph-name="Z" unicode="Z" horiz-adv-x="767" 
d="M11 0q-24 0 -21 22l19 107q4 19 23 35l470 375h-386q-23 0 -20 22l21 117q5 22 27 22h640q11 0 16 -5.5t3 -16.5l-21 -118q-3 -19 -23 -35l-452 -364h382q22 0 19 -22l-21 -117q-3 -22 -26 -22h-650z" />
    <glyph glyph-name="bracketleft" unicode="[" horiz-adv-x="400" 
d="M144 720q5 20 25 20h277q22 0 17 -20l-14 -83q-3 -20 -25 -20h-120l-123 -698h120q21 0 18 -20l-15 -83q-3 -20 -24 -20h-277q-21 0 -18 20z" />
    <glyph glyph-name="backslash" unicode="\" horiz-adv-x="529" 
d="M46 717q-3 8 2 15.5t15 7.5h82q25 0 31 -20l317 -853q3 -8 -2 -15.5t-15 -7.5h-82q-25 0 -31 20z" />
    <glyph glyph-name="bracketright" unicode="]" horiz-adv-x="400" 
d="M257 -184q-3 -20 -24 -20h-277q-20 0 -17 20l15 83q2 20 23 20h120l123 698h-120q-20 0 -17 20l14 83q5 20 25 20h277q22 0 17 -20z" />
    <glyph glyph-name="asciicircum" unicode="^" horiz-adv-x="777" 
d="M353 680q8 9 16 14.5t22 5.5h149q14 0 20.5 -5.5t9.5 -14.5l176 -417q3 -8 -2 -15.5t-14 -7.5h-125q-26 0 -34 20l-124 310l-233 -310q-15 -20 -40 -20h-135q-10 0 -12.5 7.5t3.5 15.5z" />
    <glyph glyph-name="underscore" unicode="_" horiz-adv-x="500" 
d="M-75 -155q-22 0 -17 20l11 66q5 20 25 20h503q22 0 17 -20l-11 -66q-5 -20 -25 -20h-503z" />
    <glyph glyph-name="grave" unicode="`" horiz-adv-x="373" 
d="M137 708q-7 8 -3 16t13 8h139q25 0 36 -20l54 -102q5 -9 0 -16t-14 -7h-95q-14 0 -23.5 6t-16.5 14z" />
    <glyph glyph-name="a" unicode="a" horiz-adv-x="661" 
d="M576 165v-5q0 -14 17 -14h6q21 0 18 -20l-19 -106q-3 -20 -24 -20h-92q-89 0 -89 68v8q-18 -38 -53 -57t-101 -19h-111q-63 0 -91 21t-28 69q0 10 1 20.5t3 22.5l7 39q7 39 15 65t24.5 41t45 21t76.5 6h239l5 25q2 7 2 12.5v10.5q0 18 -11.5 23.5t-42.5 5.5h-99
q-21 0 -25 -20l-1 -4q-5 -20 -25 -20h-136q-20 0 -17 20l5 33q6 36 14.5 61.5t26 42t47 24t77.5 7.5h252q66 0 97 -24t31 -76q0 -10 -1 -20.5t-3 -22.5zM319 144q39 0 59 16.5t25 48.5l2 12h-164q-32 0 -36 -29l-3 -19q-1 -4 -1 -9q0 -20 27 -20h91z" />
    <glyph glyph-name="b" unicode="b" horiz-adv-x="674" 
d="M140 720q5 20 25 20h140q22 0 17 -20l-44 -252q19 29 52.5 43.5t90.5 14.5h103q66 0 97 -24t31 -76q0 -10 -1 -20.5t-3 -22.5l-42 -240q-7 -38 -16 -65t-27.5 -44t-49.5 -25.5t-81 -8.5h-112q-64 0 -94.5 25t-32.5 75l-14 -80q-3 -20 -24 -20h-120q-21 0 -18 20zM336 380
q-39 0 -59 -16.5t-26 -48.5l-18 -104q-1 -5 -1.5 -9.5t-0.5 -9.5q0 -23 15 -34.5t48 -11.5h69q20 0 32 2t19.5 7.5t11.5 15.5t7 27l23 130q3 15 3 24q0 17 -11.5 22.5t-42.5 5.5h-69z" />
    <glyph glyph-name="c" unicode="c" horiz-adv-x="653" 
d="M68 383q7 37 16 64.5t27.5 44.5t49.5 25.5t81 8.5h277q63 0 92 -22t29 -72q0 -9 -1 -19.5t-3 -21.5l-8 -48q-3 -20 -25 -20h-135q-20 0 -17 20l1 7q1 5 1 6.5v3.5q0 20 -23 20h-119q-20 0 -32.5 -2t-20 -7.5t-11.5 -16t-7 -26.5l-23 -130q-3 -14 -3 -23q0 -18 11.5 -23.5
t43.5 -5.5h119q28 0 33 26l2 11q3 20 24 20h135q21 0 18 -20l-9 -48q-6 -36 -14 -61.5t-25.5 -42t-47 -24t-77.5 -7.5h-277q-66 0 -97 23.5t-31 76.5q0 10 1 20.5t3 22.5z" />
    <glyph glyph-name="d" unicode="d" horiz-adv-x="674" 
d="M421 86q-17 -43 -53 -64.5t-105 -21.5h-113q-66 0 -97 23.5t-31 76.5q0 10 1 20.5t3 22.5l42 240q7 37 16 64.5t27.5 44.5t49.5 25.5t81 8.5h104q100 0 120 -67l46 261q5 20 25 20h140q22 0 17 -20l-123 -700q-3 -20 -24 -20h-120q-21 0 -18 20zM441 315q1 5 1.5 9.5
t0.5 8.5q0 47 -62 47h-70q-20 0 -32.5 -2t-20 -7.5t-11.5 -16t-7 -26.5l-23 -130q-3 -14 -3 -23q0 -18 11.5 -23.5t43.5 -5.5h70q38 0 58 16.5t26 48.5z" />
    <glyph glyph-name="e" unicode="e" horiz-adv-x="661" 
d="M68 383q7 37 16 64.5t27.5 44.5t49.5 25.5t81 8.5h277q63 0 92 -22t29 -72q0 -9 -1 -19.5t-3 -21.5l-26 -150q-3 -20 -25 -20h-364l-4 -25q-3 -15 -3 -24q0 -17 11.5 -22.5t43.5 -5.5h126q20 0 24 19l1 5q5 20 25 20h135q20 0 17 -20l-6 -33q-6 -36 -14 -61.5t-25.5 -42
t-47 -24t-77.5 -7.5h-277q-66 0 -97 23.5t-31 76.5q0 10 1 20.5t3 22.5zM311 382q-20 0 -32.5 -2t-20 -7.5t-11 -16t-6.5 -26.5l-5 -25h205l8 46q1 5 1 7v4q0 20 -23 20h-116z" />
    <glyph glyph-name="f" unicode="f" horiz-adv-x="411" 
d="M97 380h-38q-21 0 -18 20l19 106q3 20 24 20h38l11 61q7 37 18 66t31.5 48t53.5 29t83 10h143q22 0 17 -20l-18 -106q-5 -20 -25 -20h-58q-20 0 -32.5 -2t-20 -7.5t-11.5 -16t-7 -26.5l-3 -16h120q21 0 18 -20l-19 -106q-3 -20 -24 -20h-120l-64 -360q-3 -20 -24 -20
h-140q-21 0 -18 20z" />
    <glyph glyph-name="g" unicode="g" horiz-adv-x="673" 
d="M161 -37q22 0 17 -20v-3q0 -13 15 -13h122q35 0 48.5 11t18.5 41l13 76q-19 -27 -52 -41t-89 -14h-104q-66 0 -97 23.5t-31 76.5q0 10 1 20.5t3 22.5l42 240q7 37 16 64.5t27.5 44.5t49.5 25.5t81 8.5h113q63 0 93.5 -25t32.5 -75l14 80q3 20 24 20h120q21 0 18 -20
l-97 -548q-7 -40 -19 -70.5t-34 -50.5t-56.5 -30.5t-87.5 -10.5h-247q-63 0 -92 22.5t-29 72.5q0 20 4 40l2 12q5 20 25 20h135zM339 146q38 0 58 16.5t26 48.5l18 104q1 5 1.5 9.5t0.5 8.5q0 47 -62 47h-70q-20 0 -32.5 -2t-20 -7.5t-11.5 -16t-7 -26.5l-23 -130
q-3 -14 -3 -23q0 -18 11.5 -23.5t43.5 -5.5h70z" />
    <glyph glyph-name="h" unicode="h" 
d="M336 380q-39 0 -59 -16.5t-26 -48.5l-52 -295q-3 -20 -24 -20h-140q-21 0 -18 20l123 700q5 20 25 20h140q22 0 17 -20l-44 -252q19 29 52.5 43.5t90.5 14.5h87q66 0 97 -24t31 -76q0 -10 -1 -20.5t-3 -22.5l-64 -363q-3 -20 -24 -20h-140q-21 0 -18 20l54 308q3 15 3 24
q0 17 -11.5 22.5t-42.5 5.5h-53z" />
    <glyph glyph-name="i" unicode="i" horiz-adv-x="302" 
d="M137 700q3 20 24 20h140q21 0 18 -20l-15 -86q-5 -20 -25 -20h-140q-22 0 -17 20zM103 506q3 20 24 20h140q21 0 18 -20l-86 -486q-3 -20 -24 -20h-140q-21 0 -18 20z" />
    <glyph glyph-name="j" unicode="j" horiz-adv-x="306" 
d="M-69 -204q-21 0 -18 20l16 91q3 20 25 20h24q22 0 27 22l98 557q3 20 24 20h140q21 0 18 -20l-102 -577q-6 -36 -14 -61t-24.5 -41t-45.5 -23.5t-77 -7.5h-91zM304 614q-5 -20 -25 -20h-140q-22 0 -17 20l15 86q3 20 24 20h140q21 0 18 -20z" />
    <glyph glyph-name="k" unicode="k" horiz-adv-x="652" 
d="M289 195h-59l-31 -175q-3 -20 -24 -20h-140q-21 0 -18 20l123 700q5 20 25 20h140q22 0 17 -20l-68 -389h38l175 180q8 8 14.5 11.5t17.5 3.5h176q8 0 10 -6.5t-5 -13.5l-241 -240l160 -246q5 -7 1 -13.5t-12 -6.5h-158q-11 0 -17.5 3t-11.5 12z" />
    <glyph glyph-name="l" unicode="l" horiz-adv-x="322" 
d="M132 720q5 20 25 20h140q22 0 17 -20l-96 -548q-1 -3 -1 -5.5v-3.5q0 -17 19 -17h25q21 0 18 -20l-19 -106q-3 -20 -24 -20h-91q-63 0 -91.5 21t-28.5 70q0 9 1 19.5t3 22.5z" />
    <glyph glyph-name="m" unicode="m" horiz-adv-x="980" 
d="M336 380q-39 0 -59 -16.5t-26 -48.5l-52 -295q-3 -20 -24 -20h-140q-21 0 -18 20l86 486q3 20 24 20h120q21 0 18 -20l-12 -69q9 22 21.5 38.5t31.5 27.5t45 17t61 6h55q121 0 127 -89q8 22 19.5 38.5t30.5 27.5t46 17t65 6h69q66 0 97 -24t31 -76q0 -10 -1 -20.5
t-3 -22.5l-64 -363q-3 -20 -24 -20h-140q-21 0 -18 20l54 308q3 15 3 24q0 17 -11.5 22.5t-42.5 5.5h-27q-38 0 -58 -16.5t-26 -48.5l-52 -295q-3 -20 -24 -20h-140q-21 0 -18 20l54 308q3 15 3 24q0 17 -11.5 22.5t-42.5 5.5h-27z" />
    <glyph glyph-name="n" unicode="n" 
d="M253 437q9 22 21.5 38.5t31.5 27.5t45 17t61 6h96q66 0 97 -24t31 -76q0 -10 -1 -20.5t-3 -22.5l-64 -363q-3 -20 -24 -20h-140q-21 0 -18 20l54 308q3 15 3 24q0 17 -11.5 22.5t-42.5 5.5h-53q-39 0 -59 -16.5t-26 -48.5l-52 -295q-3 -20 -24 -20h-140q-21 0 -18 20
l86 486q3 20 24 20h120q21 0 18 -20z" />
    <glyph glyph-name="o" unicode="o" horiz-adv-x="672" 
d="M604 143q-7 -38 -16 -65t-27 -44t-49 -25.5t-82 -8.5h-280q-66 0 -97 23.5t-31 76.5q0 10 1 20.5t3 22.5l42 240q7 37 16 64.5t27.5 44.5t49.5 25.5t81 8.5h280q66 0 97 -23.5t31 -75.5q0 -11 -1 -21.5t-3 -22.5zM311 380q-20 0 -32.5 -2t-20 -7.5t-11.5 -16t-7 -26.5
l-23 -130q-3 -14 -3 -23q0 -18 11.5 -23.5t43.5 -5.5h92q20 0 32.5 2t20 7.5t11 15.5t6.5 27l23 130q3 15 3 24q0 17 -11.5 22.5t-42.5 5.5h-92z" />
    <glyph glyph-name="p" unicode="p" horiz-adv-x="674" 
d="M253 437q9 22 21.5 38.5t31.5 27.5t45 17t61 6h112q66 0 97 -24t31 -76q0 -10 -1 -20.5t-3 -22.5l-42 -240q-7 -38 -16 -65t-27.5 -44t-49.5 -25.5t-81 -8.5h-103q-101 0 -122 68l-44 -252q-3 -20 -24 -20h-140q-21 0 -18 20l122 690q3 20 24 20h120q21 0 18 -20z
M336 380q-39 0 -59 -16.5t-26 -48.5l-18 -104q-1 -5 -1.5 -9.5t-0.5 -9.5q0 -23 15 -34.5t48 -11.5h69q20 0 32.5 2t20 7.5t11 15.5t6.5 27l23 130q3 15 3 24q0 17 -11.5 22.5t-42.5 5.5h-69z" />
    <glyph glyph-name="q" unicode="q" horiz-adv-x="674" 
d="M535 -184q-3 -20 -24 -20h-140q-21 0 -18 20l42 239q-20 -27 -53 -41t-88 -14h-104q-66 0 -97 23.5t-31 76.5q0 10 1 20.5t3 22.5l42 240q7 37 16 64.5t27.5 44.5t49.5 25.5t81 8.5h113q63 0 93.5 -25t32.5 -75l14 80q3 20 24 20h120q21 0 18 -20zM441 315q1 5 1.5 9.5
t0.5 8.5q0 47 -62 47h-70q-20 0 -32.5 -2t-20 -7.5t-11.5 -16t-7 -26.5l-23 -130q-3 -14 -3 -23q0 -18 11.5 -23.5t43.5 -5.5h70q38 0 58 16.5t26 48.5z" />
    <glyph glyph-name="r" unicode="r" horiz-adv-x="428" 
d="M377 380q-58 0 -92 -31t-42 -80l-44 -249q-3 -20 -24 -20h-140q-21 0 -18 20l86 486q3 20 24 20h120q21 0 18 -20l-14 -76q18 48 56 72t116 24h22q21 0 18 -20l-19 -106q-3 -20 -24 -20h-43z" />
    <glyph glyph-name="s" unicode="s" horiz-adv-x="637" 
d="M578 133q-6 -36 -14 -61t-25 -41t-46 -23.5t-77 -7.5h-293q-63 0 -91.5 21t-28.5 70q0 9 1 19.5t3 22.5l6 35q3 20 25 20h136q22 0 17 -20q-1 -3 -1.5 -5t-0.5 -4q0 -15 19 -15h159q32 0 36 29l2 12q1 5 1 11q0 25 -26 25h-210q-61 0 -90 17.5t-29 67.5q0 11 1.5 22.5
t3.5 25.5l7 39q6 36 14 61t24.5 41t45.5 23.5t77 7.5h270q63 0 91.5 -21.5t28.5 -69.5q0 -22 -4 -42l-6 -35q-5 -20 -25 -20h-136q-20 0 -17 20q1 7 1 8v3q0 13 -18 13h-136q-29 0 -35 -29l-4 -18q-1 -2 -1 -4.5v-4.5q0 -21 26 -21h210q62 0 91 -18t29 -69q0 -10 -1 -21.5
t-3 -24.5z" />
    <glyph glyph-name="t" unicode="t" horiz-adv-x="410" 
d="M173 0q-66 0 -97.5 23.5t-31.5 76.5q0 10 1 20.5t3 22.5l42 237h-38q-21 0 -18 20l19 106q3 20 24 20h38l20 114q5 20 25 20h140q22 0 17 -20l-20 -114h110q21 0 18 -20l-19 -106q-3 -20 -24 -20h-110l-37 -205q-1 -3 -1 -8q0 -21 27 -21h79q21 0 18 -20l-19 -106
q-3 -20 -24 -20h-142z" />
    <glyph glyph-name="u" unicode="u" 
d="M157 0q-66 0 -97.5 23.5t-31.5 76.5q0 10 1 20.5t3 22.5l64 363q3 20 24 20h140q21 0 18 -20l-55 -308q-2 -7 -2 -12.5v-10.5q0 -18 11 -23.5t43 -5.5h55q38 0 58 16.5t26 48.5l52 295q3 20 24 20h140q21 0 18 -20l-86 -486q-3 -20 -24 -20h-120q-21 0 -18 20l12 71
q-8 -23 -20.5 -40t-31.5 -28t-45 -17t-62 -6h-96z" />
    <glyph glyph-name="v" unicode="v" horiz-adv-x="625" 
d="M45 506q-2 10 2.5 15t12.5 5h148q23 0 26 -19l54 -364l183 364q9 19 32 19h154q8 0 11 -5t-2 -15l-271 -487q-10 -19 -33 -19h-192q-13 0 -18.5 4.5t-7.5 14.5z" />
    <glyph glyph-name="w" unicode="w" horiz-adv-x="923" 
d="M115 0q-22 0 -24 20l-45 486q-2 20 18 20h145q21 0 23 -20l20 -362l138 362q7 20 29 20h175q23 0 24 -20l9 -357l146 357q8 20 29 20h149q20 0 12 -20l-218 -486q-8 -20 -29 -20h-208q-21 0 -23 20l-12 306l-118 -306q-8 -20 -29 -20h-211v0z" />
    <glyph glyph-name="x" unicode="x" horiz-adv-x="635" 
d="M579 20q4 -8 0.5 -14t-11.5 -6h-157q-11 0 -17.5 2.5t-11.5 12.5l-75 150l-123 -150q-8 -9 -15 -12t-17 -3h-176q-8 0 -10.5 6.5t4.5 13.5l230 247l-138 239q-5 8 -1 14t12 6h157q11 0 17.5 -2.5t11.5 -12.5l70 -143l118 143q8 9 14.5 12t17.5 3h176q8 0 9.5 -6t-4.5 -14
l-223 -239z" />
    <glyph glyph-name="y" unicode="y" 
d="M7 -57q5 20 25 20h135q22 0 17 -20v-3q0 -13 15 -13h106q35 0 49 11t19 41l13 76q-19 -27 -52 -41t-89 -14h-88q-66 0 -97.5 23.5t-31.5 76.5q0 10 1 20.5t3 22.5l64 363q3 20 24 20h140q21 0 18 -20l-55 -308q-2 -7 -2 -12.5v-10.5q0 -18 11 -23.5t43 -5.5h55
q38 0 58 16.5t26 48.5l52 295q3 20 24 20h140q21 0 18 -20l-97 -548q-7 -40 -19 -70.5t-34 -50.5t-56.5 -30.5t-87.5 -10.5h-231q-63 0 -92.5 22.5t-29.5 72.5q0 20 4 40z" />
    <glyph glyph-name="z" unicode="z" horiz-adv-x="607" 
d="M4 0q-21 0 -18 20l16 88q3 20 20 33l311 239h-251q-21 0 -18 20l19 106q3 20 24 20h492q21 0 18 -20l-16 -88q-3 -20 -20 -33l-312 -239h263q21 0 18 -20l-19 -106q-3 -20 -24 -20h-503z" />
    <glyph glyph-name="braceleft" unicode="{" horiz-adv-x="398" 
d="M151 -204q-66 0 -97 23.5t-31 76.5q0 10 1 20.5t3 22.5l34 192q2 12 3 22.5t1 18.5q0 21 -10 30.5t-37 9.5h-1q-21 0 -18 20l13 72q3 20 25 20h1q19 0 31 4.5t19.5 14t12 25t8.5 37.5l34 192q6 37 16 64.5t29 44.5t50 25.5t79 8.5h127q22 0 17 -20l-14 -83
q-3 -20 -25 -20h-33q-21 0 -34 -2.5t-21 -8.5t-12.5 -17t-7.5 -29l-24 -136q-11 -62 -38 -102t-85 -54q40 -11 56.5 -37.5t16.5 -65.5q0 -12 -1.5 -25.5t-3.5 -27.5l-24 -136q-3 -15 -3 -25q0 -20 12.5 -26t45.5 -6h33q21 0 18 -20l-15 -83q-3 -20 -24 -20h-127z" />
    <glyph glyph-name="bar" unicode="|" horiz-adv-x="500" 
d="M230 -183q-3 -21 -25 -21h-74q-22 0 -19 21l159 902q5 21 26 21h74q23 0 18 -21z" />
    <glyph glyph-name="braceright" unicode="}" horiz-adv-x="398" 
d="M387 232q-3 -20 -24 -20h-1q-19 0 -31 -4.5t-19.5 -14t-12 -25t-8.5 -37.5l-34 -192q-7 -38 -17 -65t-28.5 -44t-49.5 -25.5t-79 -8.5h-127q-20 0 -17 20l15 83q2 20 23 20h33q21 0 34 2.5t21 8.5t12.5 17t7.5 29l24 136q11 60 38 101t86 55q-41 11 -57.5 37t-16.5 66
q0 12 1 25.5t4 27.5l24 136q3 15 3 25q0 20 -13 26t-45 6h-33q-20 0 -17 20l14 83q5 20 25 20h127q66 0 97 -24t31 -77q0 -22 -4 -42l-34 -192q-2 -13 -3 -23t-2 -18q0 -22 10.5 -31t37.5 -9h1q20 0 17 -20z" />
    <glyph glyph-name="asciitilde" unicode="~" horiz-adv-x="777" 
d="M564 392q42 0 83.5 17t80.5 57q8 9 18.5 7.5t8.5 -14.5l-19 -108q-2 -13 -7.5 -22t-11.5 -17q-40 -42 -86 -58.5t-83 -16.5q-54 0 -93 12t-72 26t-65 26t-73 12q-42 0 -84 -17t-80 -57q-9 -9 -19.5 -7.5t-8.5 14.5l19 108q2 13 7.5 22t12.5 17q40 42 85 58.5t83 16.5
q54 0 93 -12t72 -26t65.5 -26t73.5 -12z" />
    <glyph glyph-name="uni00A0" unicode="&#xa0;" horiz-adv-x="294" 
 />
    <glyph glyph-name="exclamdown" unicode="&#xa1;" horiz-adv-x="321" 
d="M319 559q-3 -22 -28 -22h-165q-23 0 -20 22l21 119q5 22 28 22h165q25 0 20 -22zM40 0q-23 0 -20 22l47 262q2 11 5 22t7 21l55 134q8 21 29 21h71q21 0 23 -21l7 -134q1 -10 0.5 -21t-2.5 -22l-47 -262q-3 -22 -26 -22h-149z" />
    <glyph glyph-name="cent" unicode="&#xa2;" horiz-adv-x="857" 
d="M392 233l41 234h-51q-20 0 -32 -2t-19.5 -7.5t-11.5 -16t-7 -26.5l-23 -130q-3 -15 -3 -24q0 -18 12 -23t43 -5h51zM618 430q2 10 2 12.5v4.5q0 20 -22 20h-75l-41 -234h75q26 0 31 26l2 11q3 20 25 20h135q20 0 17 -20l-8 -48q-6 -36 -14.5 -61.5t-26 -42t-46.5 -24
t-77 -7.5h-139l-12 -66q-3 -21 -25 -21h-46q-22 0 -19 21l12 66h-145q-66 0 -97 23.5t-31 76.5q0 10 1 20.5t3 22.5l42 240q7 37 16 64.5t28 44.5t50 25.5t81 8.5h145l11 66q3 21 26 21h46q23 0 18 -21l-11 -66h139q62 0 91 -22t29 -72q0 -9 -1 -19.5t-3 -21.5l-9 -48
q-3 -20 -24 -20h-135q-21 0 -18 20z" />
    <glyph glyph-name="sterling" unicode="&#xa3;" horiz-adv-x="857" 
d="M41 140q22 0 37 2.5t25.5 9.5t16.5 19.5t10 33.5l10 60h-78q-21 0 -18 21l18 100q3 21 25 21h78l24 133q7 42 18 72t32 49.5t56 29t90 9.5h328q72 0 103.5 -21.5t31.5 -75.5q0 -11 -1.5 -24t-3.5 -28l-12 -68q-2 -10 -9 -15.5t-17 -5.5h-137q-21 0 -18 21l5 31q1 4 1 11
q0 25 -33 25h-170q-24 0 -39.5 -2.5t-25 -9.5t-14.5 -20t-9 -33l-14 -78h308q22 0 19 -21l-18 -100q-3 -21 -26 -21h-308q-8 -44 -21.5 -71t-34.5 -44h501q10 0 15 -5.5t3 -15.5l-19 -108q-3 -21 -25 -21h-728q-22 0 -19 21l17 98q5 21 26 21z" />
    <glyph glyph-name="currency" unicode="&#xa4;" horiz-adv-x="857" 
d="M593 111q-33 -19 -70.5 -29t-79.5 -10t-79.5 10t-70.5 29l-86 -81q-15 -15 -30 0l-70 66q-15 15 0 30l85 81q-20 32 -30.5 68t-10.5 75t10.5 75t30.5 67l-85 82q-15 15 0 30l70 66q15 15 30 0l86 -82q33 19 70.5 29.5t79.5 10.5t79.5 -10.5t70.5 -29.5l87 82q15 15 30 0
l69 -66q16 -15 0 -30l-85 -81q20 -32 30.5 -68t10.5 -75q0 -40 -10.5 -76t-30.5 -67l85 -81q16 -15 0 -30l-69 -66q-15 -15 -30 0zM298 350q0 -29 11.5 -54t31 -44t46 -29.5t56.5 -10.5t56.5 10.5t46 29.5t31 44t11.5 54t-11.5 54t-31 44t-46 29.5t-56.5 10.5t-56.5 -10.5
t-46 -29.5t-31 -44t-11.5 -54z" />
    <glyph glyph-name="yen" unicode="&#xa5;" horiz-adv-x="857" 
d="M490 85l-11 -64q-3 -21 -25 -21h-143q-22 0 -19 21l11 64h-239q-21 0 -18 21l12 67q2 10 9 15.5t17 5.5h239l10 57h-239q-22 0 -19 21l12 67q5 21 26 21h176l-177 320q-4 7 0.5 13.5t12.5 6.5h172q11 0 17 -3t11 -13l126 -271l222 271q8 10 15.5 13t18.5 3h178
q8 0 10 -6.5t-4 -13.5l-290 -320h176q23 0 18 -21l-12 -67q-3 -21 -25 -21h-238l-10 -57h238q21 0 18 -21l-12 -67q-3 -21 -26 -21h-238z" />
    <glyph glyph-name="brokenbar" unicode="&#xa6;" horiz-adv-x="500" 
d="M327 367q-3 -21 -25 -21h-74q-22 0 -19 21l62 352q5 21 26 21h74q23 0 18 -21zM230 -183q-3 -21 -25 -21h-74q-22 0 -19 21l62 352q5 21 26 21h74q23 0 18 -21z" />
    <glyph glyph-name="section" unicode="&#xa7;" horiz-adv-x="760" 
d="M434 -58q32 0 36 29l8 45q1 4 1 8q0 21 -27 21h-313q-62 0 -90 21t-28 69q0 10 1 20.5t3 22.5l13 76q11 58 37.5 89t75.5 40q-62 16 -62 87q0 20 4 40l10 57q6 36 15 61t26.5 41t46 23.5t75.5 7.5h366q64 0 92 -18.5t28 -66.5q0 -11 -1.5 -22.5t-3.5 -25.5l-8 -48
q-3 -20 -25 -20h-136q-20 0 -17 20l2 13q1 4 1 6q0 16 -20 16h-230q-29 0 -35 -29l-8 -45q-1 -3 -1 -8q0 -21 26 -21h313q63 0 91.5 -21.5t28.5 -70.5q0 -9 -1 -19.5t-3 -21.5l-14 -76q-11 -59 -37 -89.5t-77 -39.5q62 -16 62 -84q0 -10 -1 -20.5t-3 -22.5l-10 -57
q-6 -36 -14.5 -61t-25.5 -41t-46 -23.5t-75 -7.5h-377q-65 0 -93 18.5t-28 66.5q0 11 1.5 22.5t3.5 25.5l8 48q5 20 25 20h136q22 0 17 -20l-2 -13v-5q0 -17 19 -17h240zM260 305q-30 0 -36 -29l-10 -56q-1 -3 -1 -8q0 -21 27 -21h249q31 0 35 29l10 56q1 3 1 9q0 20 -26 20
h-249z" />
    <glyph glyph-name="dieresis" unicode="&#xa8;" horiz-adv-x="504" 
d="M128 706q2 10 9 15.5t17 5.5h118q21 0 18 -21l-16 -93q-5 -21 -26 -21h-118q-10 0 -15 5.5t-3 15.5zM370 706q3 21 26 21h118q21 0 18 -21l-16 -93q-5 -21 -26 -21h-118q-23 0 -18 21z" />
    <glyph glyph-name="copyright" unicode="&#xa9;" horiz-adv-x="915" 
d="M95 503q8 45 25 81.5t45.5 62t70 39.5t100.5 14h397q83 0 129 -40.5t46 -112.5q0 -11 -1 -22t-3 -22l-54 -306q-8 -45 -24.5 -81.5t-45 -62t-70.5 -39.5t-100 -14h-397q-84 0 -130 41t-46 114q0 22 4 42zM572 91q42 0 71 7t49 22.5t31.5 39.5t17.5 58l46 264
q2 11 3.5 21.5t0.5 20.5q0 45 -29.5 65t-98.5 20h-288q-42 0 -71 -7t-49 -22.5t-32 -39.5t-18 -58l-46 -264q-4 -20 -4 -40q0 -47 29.5 -67t99.5 -20h288zM559 408q1 5 1 7v3q0 14 -15 14h-85q-28 0 -37 -7t-14 -31l-16 -88q-1 -5 -1.5 -8.5t-0.5 -7.5q0 -14 8.5 -18
t31.5 -4h85q19 0 22 18l1 6q3 20 25 20h73q20 0 17 -20l-5 -26q-5 -26 -10 -44t-16.5 -29t-32 -15.5t-55.5 -4.5h-184q-44 0 -64.5 16t-20.5 51q0 12 3 29l28 162q4 25 10.5 43t18.5 30t33 17.5t54 5.5h184q46 0 65.5 -13.5t19.5 -46.5q0 -15 -3 -33l-5 -26q-3 -20 -24 -20
h-73q-21 0 -18 20z" />
    <glyph glyph-name="ordfeminine" unicode="&#xaa;" horiz-adv-x="556" 
d="M521 391v-3q0 -12 13 -12h5q16 0 13 -16l-15 -84q-3 -16 -19 -16h-74q-71 0 -71 53v8q-31 -61 -123 -61h-110q-50 0 -72.5 17t-22.5 56q0 15 3 33l8 44q6 31 13.5 51.5t21.5 32.5t36.5 17t57.5 5h212l6 32q1 4 1 7.5v6.5q0 13 -8 17.5t-29 4.5h-107q-15 0 -18 -15l-1 -3
q-2 -13 -16 -13h-111q-17 0 -14 16l3 19q6 31 13.5 52.5t22 35t38.5 19t63 5.5h217q53 0 77.5 -19t24.5 -61q0 -16 -3 -34zM314 376q31 0 47.5 17t21.5 43l1 6h-157q-19 0 -23 -19l-5 -25q-1 -4 -1 -8q0 -14 18 -14h98z" />
    <glyph glyph-name="guillemotleft" unicode="&#xab;" horiz-adv-x="645" 
d="M472 471q9 9 16 12t18 3h157q8 0 9 -6.5t-5 -13.5l-208 -210l123 -196q5 -7 1.5 -13.5t-11.5 -6.5h-139q-11 0 -17.5 3t-12.5 12l-120 198q-2 3 -3 5.5t-1 5.5q0 6 2.5 10t7.5 9zM18 253q-2 3 -3 5.5t-1 5.5q0 6 2.5 10t7.5 9l183 188q9 9 16 12t18 3h157q8 0 9 -6.5
t-5 -13.5l-208 -210l123 -196q5 -7 1.5 -13.5t-11.5 -6.5h-139q-11 0 -17.5 3t-12.5 12z" />
    <glyph glyph-name="logicalnot" unicode="&#xac;" horiz-adv-x="777" 
d="M576 280h-495q-23 0 -18 21l17 98q3 21 26 21h621q21 0 18 -21l-51 -287q-3 -21 -25 -21h-104q-22 0 -19 21z" />
    <glyph glyph-name="uni00AD" unicode="&#xad;" horiz-adv-x="350" 
d="M48 219q-22 0 -17 20l21 122q3 20 25 20h239q20 0 17 -20l-21 -122q-5 -20 -25 -20h-239z" />
    <glyph glyph-name="registered" unicode="&#xae;" horiz-adv-x="915" 
d="M95 503q8 45 25 81.5t45.5 62t70 39.5t100.5 14h397q83 0 129 -40.5t46 -112.5q0 -11 -1 -22t-3 -22l-54 -306q-8 -45 -24.5 -81.5t-45 -62t-70.5 -39.5t-100 -14h-397q-84 0 -130 41t-46 114q0 22 4 42zM572 91q42 0 71 7t49 22.5t31.5 39.5t17.5 58l46 264
q2 11 3.5 21.5t0.5 20.5q0 45 -29.5 65t-98.5 20h-288q-42 0 -71 -7t-49 -22.5t-32 -39.5t-18 -58l-46 -264q-4 -20 -4 -40q0 -47 29.5 -67t99.5 -20h288zM468 274h-77l-14 -81q-5 -20 -25 -20h-76q-22 0 -17 20l55 314q3 20 24 20h253q86 0 86 -67q0 -14 -3 -29l-8 -51
q-4 -22 -9 -38.5t-14.5 -28t-24 -18.5t-37.5 -10l61 -91q5 -8 0.5 -14.5t-12.5 -6.5h-79q-11 0 -19.5 3.5t-14.5 13.5zM419 432l-11 -63h101q23 0 30 5.5t11 24.5l1 5q1 5 1 7v5q0 10 -7 13t-25 3h-101z" />
    <glyph glyph-name="macron" unicode="&#xaf;" horiz-adv-x="450" 
d="M124 681q3 21 25 21h306q22 0 19 -21l-13 -69q-3 -21 -25 -21h-306q-22 0 -19 21z" />
    <glyph glyph-name="degree" unicode="&#xb0;" horiz-adv-x="518" 
d="M58 484q0 47 17.5 88.5t49 73t76 49.5t97.5 18q52 0 96 -18t76.5 -49.5t50.5 -73t18 -88.5q0 -48 -18 -90t-50.5 -72.5t-76.5 -48.5t-96 -18q-53 0 -97.5 18t-76 48.5t-49 72.5t-17.5 90zM201 484q0 -39 27 -66t70 -27q42 0 70 27t28 66q0 19 -7.5 35.5t-20.5 29.5
t-31 20.5t-39 7.5q-43 0 -70 -27.5t-27 -65.5z" />
    <glyph glyph-name="plusminus" unicode="&#xb1;" horiz-adv-x="777" 
d="M505 507h232q21 0 18 -21l-17 -98q-3 -21 -26 -21h-232l-28 -158q-3 -21 -25 -21h-103q-22 0 -19 21l28 158h-232q-21 0 -18 21l17 98q3 21 26 21h232l28 158q3 21 25 21h103q22 0 19 -21zM39 14q-23 0 -18 21l17 98q3 21 26 21h611q21 0 18 -21l-17 -98q-5 -21 -26 -21
h-611z" />
    <glyph glyph-name="uni00B2" unicode="&#xb2;" horiz-adv-x="562" 
d="M439 566q1 4 1 8q0 16 -25 16h-162q-16 0 -19 -14l-1 -5q-3 -15 -17 -15h-99q-18 0 -15 17l5 29q5 28 12 46.5t20 30t33.5 16.5t53.5 5h269q46 0 68 -16.5t22 -53.5q0 -15 -3 -31l-12 -70q-5 -27 -12.5 -46t-21 -31t-35 -18t-54.5 -6h-213q-17 0 -24.5 -5.5t-9.5 -19.5
l-6 -33h330q18 0 15 -17l-14 -76q-3 -17 -21 -17h-448q-18 0 -15 17l24 135q9 53 36.5 80t93.5 27h207q17 0 24 5t9 19z" />
    <glyph glyph-name="uni00B3" unicode="&#xb3;" horiz-adv-x="562" 
d="M579 577q-8 -43 -24 -66.5t-56 -30.5q55 -12 55 -67q0 -14 -3 -30l-4 -22q-5 -27 -12.5 -46t-21 -31t-35 -18t-54.5 -6h-296q-48 0 -68 13.5t-20 48.5q0 8 0.5 16t2.5 19l5 27q3 17 21 17h99q15 0 12 -15q-1 -4 -1 -6q0 -10 15 -10h189q17 0 24.5 5t9.5 19l3 17q1 3 1 7
q0 17 -27 17h-189q-18 0 -15 17l10 57q3 17 21 17h183q17 0 24 5t9 19l3 16q1 4 1 8q0 16 -25 16h-168q-16 0 -19 -16q-3 -15 -19 -15h-98q-18 0 -15 17l5 26q5 28 12 46.5t20 30t33.5 16.5t53.5 5h275q46 0 68 -16.5t22 -53.5q0 -15 -3 -31z" />
    <glyph glyph-name="acute" unicode="&#xb4;" horiz-adv-x="373" 
d="M274 607q-10 -8 -21 -14t-26 -6h-106q-9 0 -12.5 7t4.5 16l90 102q18 20 43 20h147q9 0 12 -8t-7 -16z" />
    <glyph glyph-name="uni00B5" unicode="&#xb5;" horiz-adv-x="671" 
d="M210 146h113q39 0 61 16.5t32 48.5l91 295q6 20 27 20h141q21 0 15 -20l-149 -486q-6 -20 -27 -20h-129q-20 0 -14 20l14 46q-23 -32 -59.5 -49t-97.5 -17h-62l-56 -184q-6 -20 -27 -20h-140q-21 0 -15 20l209 690q6 20 28 20h140q21 0 15 -20z" />
    <glyph glyph-name="paragraph" unicode="&#xb6;" horiz-adv-x="760" 
d="M84 540q7 42 17.5 72t31.5 49.5t55.5 29t89.5 9.5h511q10 0 15 -5.5t3 -15.5l-17 -99q-5 -21 -26 -21h-46l-131 -742q-3 -21 -25 -21h-110q-22 0 -19 21l131 742h-84l-131 -742q-3 -21 -25 -21h-109q-22 0 -19 21l70 397h-74q-75 0 -109 26.5t-34 85.5q0 11 1.5 22.5
t3.5 25.5z" />
    <glyph glyph-name="periodcentered" unicode="&#xb7;" horiz-adv-x="300" 
d="M61 365q5 22 27 22h166q24 0 19 -22l-23 -129q-3 -22 -26 -22h-166q-23 0 -20 22z" />
    <glyph glyph-name="cedilla" unicode="&#xb8;" horiz-adv-x="318" 
d="M-12 -204q-20 0 -17 19l7 41q3 19 23 19h7q25 0 35 11.5t10 30.5q0 6 -1 10q-2 8 1 14.5t14 6.5h117q12 0 16.5 -9.5t4.5 -20.5q0 -51 -34 -86.5t-110 -35.5h-73z" />
    <glyph glyph-name="uni00B9" unicode="&#xb9;" horiz-adv-x="562" 
d="M268 370l37 211h-103q-18 0 -15 17l11 63q3 17 22 20l104 16q8 2 17.5 2.5t16.5 0.5h86q18 0 15 -17l-55 -313h93q17 0 14 -17l-14 -76q-3 -17 -20 -17h-332q-18 0 -15 17l14 76q3 17 21 17h103z" />
    <glyph glyph-name="ordmasculine" unicode="&#xba;" horiz-adv-x="569" 
d="M547 374q-5 -30 -13.5 -51.5t-24.5 -35.5t-40.5 -20.5t-61.5 -6.5h-249q-52 0 -76.5 19t-24.5 61q0 14 3 34l38 212q5 30 13.5 51.5t24 35.5t40 20.5t60.5 6.5h249q54 0 78.5 -19t24.5 -61q0 -16 -3 -34zM291 584q-16 0 -25.5 -1.5t-15.5 -6t-9 -13t-5 -21.5l-22 -124
q-1 -6 -1.5 -10.5t-0.5 -8.5q0 -14 9 -18.5t34 -4.5h99q16 0 25.5 1.5t15.5 6t9 13t5 21.5l22 124q1 5 1.5 10t0.5 9q0 14 -9 18.5t-34 4.5h-99z" />
    <glyph glyph-name="guillemotright" unicode="&#xbb;" horiz-adv-x="645" 
d="M177 55q-9 -9 -16 -12t-18 -3h-157q-8 0 -9 6.5t5 13.5l208 210l-123 196q-5 7 -1.5 13.5t11.5 6.5h139q11 0 17.5 -3t12.5 -12l120 -198q3 -6 3 -11q0 -10 -9 -19zM455 270l-123 196q-5 7 -1.5 13.5t11.5 6.5h139q11 0 17.5 -3t12.5 -12l120 -198q3 -6 3 -11
q0 -10 -9 -19l-183 -188q-9 -9 -16 -12t-18 -3h-157q-8 0 -9 6.5t5 13.5z" />
    <glyph glyph-name="onequarter" unicode="&#xbc;" horiz-adv-x="1301" 
d="M523 20q-8 -9 -17 -14.5t-23 -5.5h-103q-10 0 -12.5 7.5t4.5 15.5l557 657q9 9 17.5 14.5t22.5 5.5h104q9 0 12.5 -7.5t-4.5 -15.5zM268 370l37 211h-103q-18 0 -15 17l11 63q3 17 22 20l104 16q8 2 17.5 2.5t16.5 0.5h86q18 0 15 -17l-55 -313h93q17 0 14 -17l-14 -76
q-3 -17 -20 -17h-332q-18 0 -15 17l14 76q3 17 21 17h103zM755 175q3 19 18 29l312 224q17 12 32 12h135q18 0 15 -17l-44 -248h32q18 0 15 -17l-13 -76q-3 -17 -21 -17h-32l-9 -48q-3 -17 -21 -17h-101q-18 0 -15 17l9 48h-313q-18 0 -15 17zM1086 175l26 145l-205 -145
h179z" />
    <glyph glyph-name="onehalf" unicode="&#xbd;" horiz-adv-x="1301" 
d="M463 20q-8 -9 -17 -14.5t-23 -5.5h-103q-10 0 -12.5 7.5t4.5 15.5l557 657q9 9 17.5 14.5t22.5 5.5h104q9 0 12.5 -7.5t-4.5 -15.5zM268 370l37 211h-103q-18 0 -15 17l11 63q3 17 22 20l104 16q8 2 17.5 2.5t16.5 0.5h86q18 0 15 -17l-55 -313h93q17 0 14 -17l-14 -76
q-3 -17 -20 -17h-332q-18 0 -15 17l14 76q3 17 21 17h103zM1132 306q1 4 1 8q0 16 -25 16h-162q-16 0 -19 -14l-1 -5q-3 -15 -17 -15h-99q-18 0 -15 17l5 29q5 28 12 46.5t20 30t33.5 16.5t53.5 5h269q46 0 68 -16.5t22 -53.5q0 -15 -3 -31l-12 -70q-5 -27 -12.5 -46
t-21 -31t-35 -18t-54.5 -6h-213q-17 0 -24.5 -5.5t-9.5 -19.5l-6 -33h330q18 0 15 -17l-14 -76q-3 -17 -21 -17h-448q-18 0 -15 17l24 135q9 53 36.5 80t93.5 27h207q17 0 24 5t9 19z" />
    <glyph glyph-name="threequarters" unicode="&#xbe;" horiz-adv-x="1301" 
d="M523 20q-8 -9 -17 -14.5t-23 -5.5h-103q-10 0 -12.5 7.5t4.5 15.5l557 657q9 9 17.5 14.5t22.5 5.5h104q9 0 12.5 -7.5t-4.5 -15.5zM755 175q3 19 18 29l312 224q17 12 32 12h135q18 0 15 -17l-44 -248h32q18 0 15 -17l-13 -76q-3 -17 -21 -17h-32l-9 -48q-3 -17 -21 -17
h-101q-18 0 -15 17l9 48h-313q-18 0 -15 17zM1086 175l26 145l-205 -145h179zM579 577q-8 -43 -24 -66.5t-56 -30.5q55 -12 55 -67q0 -14 -3 -30l-4 -22q-5 -27 -12.5 -46t-21 -31t-35 -18t-54.5 -6h-296q-48 0 -68 13.5t-20 48.5q0 8 0.5 16t2.5 19l5 27q3 17 21 17h99
q15 0 12 -15q-1 -4 -1 -6q0 -10 15 -10h189q17 0 24.5 5t9.5 19l3 17q1 3 1 7q0 17 -27 17h-189q-18 0 -15 17l10 57q3 17 21 17h183q17 0 24 5t9 19l3 16q1 4 1 8q0 16 -25 16h-168q-16 0 -19 -16q-3 -15 -19 -15h-98q-18 0 -15 17l5 26q5 28 12 46.5t20 30t33.5 16.5
t53.5 5h275q46 0 68 -16.5t22 -53.5q0 -15 -3 -31z" />
    <glyph glyph-name="questiondown" unicode="&#xbf;" horiz-adv-x="619" 
d="M25 263q7 42 18 72t31.5 49.5t55 29t90.5 9.5h79q18 0 28.5 6.5t13.5 23.5l2 8q3 21 25 21h109q22 0 19 -21l-8 -46q-7 -39 -18 -65t-29.5 -41t-46.5 -21t-69 -6h-63q-27 0 -38.5 -9t-15.5 -30l-9 -54q-1 -5 -1 -13q0 -14 9 -20t32 -6h125q38 0 44 36l3 13q3 21 25 21
h136q22 0 19 -21l-7 -40q-8 -44 -17.5 -74.5t-30 -49.5t-55 -27t-91.5 -8h-244q-75 0 -109.5 26.5t-34.5 84.5q0 11 1.5 23t3.5 26zM543 559q-3 -22 -27 -22h-166q-22 0 -19 22l21 119q5 22 27 22h166q24 0 19 -22z" />
    <glyph glyph-name="Agrave" unicode="&#xc0;" horiz-adv-x="851" 
d="M569 119h-337l-55 -98q-11 -21 -35 -21h-170q-10 0 -13 6.5t3 16.5l390 656q12 21 37 21h228q23 0 28 -21l160 -656q2 -10 -3 -16.5t-14 -6.5h-169q-25 0 -29 21zM321 276h214l-58 276zM374 872q-7 8 -3 16t13 8h139q25 0 36 -20l54 -102q5 -9 0 -16t-14 -7h-95
q-14 0 -23.5 6t-16.5 14z" />
    <glyph glyph-name="Aacute" unicode="&#xc1;" horiz-adv-x="851" 
d="M569 119h-337l-55 -98q-11 -21 -35 -21h-170q-10 0 -13 6.5t3 16.5l390 656q12 21 37 21h228q23 0 28 -21l160 -656q2 -10 -3 -16.5t-14 -6.5h-169q-25 0 -29 21zM321 276h214l-58 276zM570 771q-10 -8 -21 -14t-26 -6h-106q-9 0 -12.5 7t4.5 16l90 102q18 20 43 20h147
q9 0 12 -8t-7 -16z" />
    <glyph glyph-name="Acircumflex" unicode="&#xc2;" horiz-adv-x="851" 
d="M569 119h-337l-55 -98q-11 -21 -35 -21h-170q-10 0 -13 6.5t3 16.5l390 656q12 21 37 21h228q23 0 28 -21l160 -656q2 -10 -3 -16.5t-14 -6.5h-169q-25 0 -29 21zM321 276h214l-58 276zM526 820l-60 -50q-11 -8 -19.5 -13.5t-22.5 -5.5h-111q-10 0 -12 7.5t6 15.5l98 102
q17 20 43 20h177q14 0 22 -5t13 -15l62 -102q5 -8 0.5 -15.5t-14.5 -7.5h-103q-14 0 -21 5.5t-15 13.5z" />
    <glyph glyph-name="Atilde" unicode="&#xc3;" horiz-adv-x="851" 
d="M569 119h-337l-55 -98q-11 -21 -35 -21h-170q-10 0 -13 6.5t3 16.5l390 656q12 21 37 21h228q23 0 28 -21l160 -656q2 -10 -3 -16.5t-14 -6.5h-169q-25 0 -29 21zM321 276h214l-58 276zM601 866q26 0 32 21q5 19 24 19h58q20 0 17 -19q-13 -74 -50.5 -107t-88.5 -33
q-32 0 -53.5 7t-37.5 15t-28.5 15t-25.5 7q-27 0 -33 -21q-5 -19 -24 -19h-58q-20 0 -17 19q14 74 51 107t88 33q32 0 53.5 -7t37.5 -15t28.5 -15t26.5 -7z" />
    <glyph glyph-name="Adieresis" unicode="&#xc4;" horiz-adv-x="851" 
d="M569 119h-337l-55 -98q-11 -21 -35 -21h-170q-10 0 -13 6.5t3 16.5l390 656q12 21 37 21h228q23 0 28 -21l160 -656q2 -10 -3 -16.5t-14 -6.5h-169q-25 0 -29 21zM321 276h214l-58 276zM329 870q2 10 9 15.5t17 5.5h118q21 0 18 -21l-16 -93q-5 -21 -26 -21h-118
q-10 0 -15 5.5t-3 15.5zM571 870q3 21 26 21h118q21 0 18 -21l-16 -93q-5 -21 -26 -21h-118q-23 0 -18 21z" />
    <glyph glyph-name="Aring" unicode="&#xc5;" horiz-adv-x="851" 
d="M569 119h-337l-55 -98q-11 -21 -35 -21h-170q-10 0 -13 6.5t3 16.5l390 656q12 21 37 21h228q23 0 28 -21l160 -656q2 -10 -3 -16.5t-14 -6.5h-169q-25 0 -29 21zM321 276h214l-58 276zM535 894q-36 0 -50 -14.5t-14 -34.5q0 -14 11 -22.5t39 -8.5q35 0 49.5 14t14.5 35
q0 14 -11 22.5t-39 8.5zM548 966q34 0 57.5 -7.5t37.5 -20t20.5 -29.5t6.5 -36q0 -28 -9 -52t-28.5 -41.5t-50 -27.5t-74.5 -10q-68 0 -95.5 27t-27.5 65q0 28 9 52t28.5 42t50.5 28t75 10z" />
    <glyph glyph-name="AE" unicode="&#xc6;" horiz-adv-x="1210" 
d="M1221 700q24 0 19 -22l-21 -117q-3 -22 -26 -22h-424l-20 -109h346q11 0 16 -5.5t3 -16.5l-19 -110q-2 -11 -9 -16.5t-18 -5.5h-346l-20 -115h424q22 0 19 -22l-21 -117q-3 -22 -26 -22h-602q-23 0 -20 22l17 97h-230l-73 -101q-8 -11 -17 -14.5t-21 -3.5h-183
q-9 0 -11 7t4 15l495 660q8 11 17 14.5t21 3.5h726zM521 276l45 263l-187 -263h142z" />
    <glyph glyph-name="Ccedilla" unicode="&#xc7;" horiz-adv-x="817" 
d="M102 540q7 42 18 72t32.5 49.5t56 29t89.5 9.5h393q76 0 109 -22t33 -79q0 -12 -2 -26t-4 -30l-11 -66q-3 -22 -27 -22h-150q-22 0 -19 22l5 31q1 2 1 4.5v4.5q0 22 -28 22h-217q-24 0 -39.5 -2.5t-25.5 -9.5t-15 -19.5t-9 -32.5l-44 -250q-3 -17 -3 -27q0 -23 15 -30
t54 -7h217q34 0 38 31l6 31q3 22 27 22h150q22 0 19 -22l-12 -66q-8 -44 -17.5 -74t-29 -48.5t-53.5 -26.5t-91 -8h-393q-74 0 -109.5 26.5t-35.5 85.5q0 20 5 48zM244 -204q-20 0 -17 19l7 41q3 19 23 19h7q25 0 35 11.5t10 30.5q0 6 -1 10q-2 8 1 14.5t14 6.5h117
q12 0 16.5 -9.5t4.5 -20.5q0 -51 -34 -86.5t-110 -35.5h-73z" />
    <glyph glyph-name="Egrave" unicode="&#xc8;" horiz-adv-x="810" 
d="M821 700q24 0 19 -22l-21 -117q-3 -22 -26 -22h-478l-20 -109h400q11 0 16 -5.5t3 -16.5l-19 -110q-2 -11 -9 -16.5t-18 -5.5h-400l-20 -115h478q22 0 19 -22l-21 -117q-3 -22 -26 -22h-657q-23 0 -20 22l116 656q5 22 27 22h657zM377 872q-7 8 -3 16t13 8h139
q25 0 36 -20l54 -102q5 -9 0 -16t-14 -7h-95q-14 0 -23.5 6t-16.5 14z" />
    <glyph glyph-name="Eacute" unicode="&#xc9;" horiz-adv-x="810" 
d="M821 700q24 0 19 -22l-21 -117q-3 -22 -26 -22h-478l-20 -109h400q11 0 16 -5.5t3 -16.5l-19 -110q-2 -11 -9 -16.5t-18 -5.5h-400l-20 -115h478q22 0 19 -22l-21 -117q-3 -22 -26 -22h-657q-23 0 -20 22l116 656q5 22 27 22h657zM573 771q-10 -8 -21 -14t-26 -6h-106
q-9 0 -12.5 7t4.5 16l90 102q18 20 43 20h147q9 0 12 -8t-7 -16z" />
    <glyph glyph-name="Ecircumflex" unicode="&#xca;" horiz-adv-x="810" 
d="M821 700q24 0 19 -22l-21 -117q-3 -22 -26 -22h-478l-20 -109h400q11 0 16 -5.5t3 -16.5l-19 -110q-2 -11 -9 -16.5t-18 -5.5h-400l-20 -115h478q22 0 19 -22l-21 -117q-3 -22 -26 -22h-657q-23 0 -20 22l116 656q5 22 27 22h657zM528 820l-60 -50q-11 -8 -19.5 -13.5
t-22.5 -5.5h-111q-10 0 -12 7.5t6 15.5l98 102q17 20 43 20h177q14 0 22 -5t13 -15l62 -102q5 -8 0.5 -15.5t-14.5 -7.5h-103q-14 0 -21 5.5t-15 13.5z" />
    <glyph glyph-name="Edieresis" unicode="&#xcb;" horiz-adv-x="810" 
d="M821 700q24 0 19 -22l-21 -117q-3 -22 -26 -22h-478l-20 -109h400q11 0 16 -5.5t3 -16.5l-19 -110q-2 -11 -9 -16.5t-18 -5.5h-400l-20 -115h478q22 0 19 -22l-21 -117q-3 -22 -26 -22h-657q-23 0 -20 22l116 656q5 22 27 22h657zM332 870q2 10 9 15.5t17 5.5h118
q21 0 18 -21l-16 -93q-5 -21 -26 -21h-118q-10 0 -15 5.5t-3 15.5zM574 870q3 21 26 21h118q21 0 18 -21l-16 -93q-5 -21 -26 -21h-118q-23 0 -18 21z" />
    <glyph glyph-name="Igrave" unicode="&#xcc;" horiz-adv-x="329" 
d="M223 22q-3 -22 -27 -22h-155q-23 0 -20 22l116 656q5 22 27 22h155q25 0 20 -22zM114 872q-7 8 -3 16t13 8h139q25 0 36 -20l54 -102q5 -9 0 -16t-14 -7h-95q-14 0 -23.5 6t-16.5 14z" />
    <glyph glyph-name="Iacute" unicode="&#xcd;" horiz-adv-x="329" 
d="M223 22q-3 -22 -27 -22h-155q-23 0 -20 22l116 656q5 22 27 22h155q25 0 20 -22zM309 771q-10 -8 -21 -14t-26 -6h-106q-9 0 -12.5 7t4.5 16l90 102q18 20 43 20h147q9 0 12 -8t-7 -16z" />
    <glyph glyph-name="Icircumflex" unicode="&#xce;" horiz-adv-x="329" 
d="M223 22q-3 -22 -27 -22h-155q-23 0 -20 22l116 656q5 22 27 22h155q25 0 20 -22zM266 820l-60 -50q-11 -8 -19.5 -13.5t-22.5 -5.5h-111q-10 0 -12 7.5t6 15.5l98 102q17 20 43 20h177q14 0 22 -5t13 -15l62 -102q5 -8 0.5 -15.5t-14.5 -7.5h-103q-14 0 -21 5.5t-15 13.5
z" />
    <glyph glyph-name="Idieresis" unicode="&#xcf;" horiz-adv-x="329" 
d="M223 22q-3 -22 -27 -22h-155q-23 0 -20 22l116 656q5 22 27 22h155q25 0 20 -22zM69 870q2 10 9 15.5t17 5.5h118q21 0 18 -21l-16 -93q-5 -21 -26 -21h-118q-10 0 -15 5.5t-3 15.5zM311 870q3 21 26 21h118q21 0 18 -21l-16 -93q-5 -21 -26 -21h-118q-23 0 -18 21z" />
    <glyph glyph-name="Eth" unicode="&#xd0;" horiz-adv-x="855" 
d="M800 211q-9 -50 -26.5 -89.5t-48 -66.5t-75.5 -41t-108 -14h-496q-23 0 -20 22l46 259h-37q-11 0 -16 5.5t-3 16.5l18 100q3 22 26 22h37l45 253q5 22 27 22h496q91 0 139.5 -42t48.5 -120q0 -26 -4 -49zM642 462q1 7 1.5 13t0.5 11q0 29 -19 41t-61 12h-244l-20 -114
h147q23 0 20 -22l-18 -100q-5 -22 -27 -22h-148l-21 -120h244q51 0 74 17t31 60z" />
    <glyph glyph-name="Ntilde" unicode="&#xd1;" horiz-adv-x="890" 
d="M505 0q-25 0 -29 18l-179 522l-92 -518q-3 -22 -26 -22h-140q-23 0 -20 22l116 656q5 22 27 22h254q23 0 29 -18l179 -523l91 519q5 22 28 22h139q24 0 19 -22l-116 -656q-3 -22 -26 -22h-254zM620 866q26 0 32 21q5 19 24 19h58q20 0 17 -19q-13 -74 -50.5 -107
t-88.5 -33q-32 0 -53.5 7t-37.5 15t-28.5 15t-25.5 7q-27 0 -33 -21q-5 -19 -24 -19h-58q-20 0 -17 19q14 74 51 107t88 33q32 0 53.5 -7t37.5 -15t28.5 -15t26.5 -7z" />
    <glyph glyph-name="Ograve" unicode="&#xd2;" horiz-adv-x="868" 
d="M797 160q-8 -42 -18.5 -72.5t-31.5 -50t-55.5 -28.5t-89.5 -9h-427q-74 0 -109.5 26.5t-35.5 85.5q0 20 5 48l67 380q7 42 18 72t32.5 49.5t56 29t89.5 9.5h427q75 0 109 -26.5t34 -86.5q0 -11 -1 -22.5t-3 -24.5zM381 539q-24 0 -39.5 -2.5t-25.5 -9.5t-15 -19.5
t-9 -32.5l-44 -250q-3 -17 -3 -27q0 -23 15 -30t54 -7h204q25 0 40.5 2.5t25 9.5t14.5 19.5t8 32.5l44 250q3 18 3 29q0 22 -14.5 28.5t-53.5 6.5h-204zM383 872q-7 8 -3 16t13 8h139q25 0 36 -20l54 -102q5 -9 0 -16t-14 -7h-95q-14 0 -23.5 6t-16.5 14z" />
    <glyph glyph-name="Oacute" unicode="&#xd3;" horiz-adv-x="868" 
d="M797 160q-8 -42 -18.5 -72.5t-31.5 -50t-55.5 -28.5t-89.5 -9h-427q-74 0 -109.5 26.5t-35.5 85.5q0 20 5 48l67 380q7 42 18 72t32.5 49.5t56 29t89.5 9.5h427q75 0 109 -26.5t34 -86.5q0 -11 -1 -22.5t-3 -24.5zM381 539q-24 0 -39.5 -2.5t-25.5 -9.5t-15 -19.5
t-9 -32.5l-44 -250q-3 -17 -3 -27q0 -23 15 -30t54 -7h204q25 0 40.5 2.5t25 9.5t14.5 19.5t8 32.5l44 250q3 18 3 29q0 22 -14.5 28.5t-53.5 6.5h-204zM579 771q-10 -8 -21 -14t-26 -6h-106q-9 0 -12.5 7t4.5 16l90 102q18 20 43 20h147q9 0 12 -8t-7 -16z" />
    <glyph glyph-name="Ocircumflex" unicode="&#xd4;" horiz-adv-x="868" 
d="M797 160q-8 -42 -18.5 -72.5t-31.5 -50t-55.5 -28.5t-89.5 -9h-427q-74 0 -109.5 26.5t-35.5 85.5q0 20 5 48l67 380q7 42 18 72t32.5 49.5t56 29t89.5 9.5h427q75 0 109 -26.5t34 -86.5q0 -11 -1 -22.5t-3 -24.5zM381 539q-24 0 -39.5 -2.5t-25.5 -9.5t-15 -19.5
t-9 -32.5l-44 -250q-3 -17 -3 -27q0 -23 15 -30t54 -7h204q25 0 40.5 2.5t25 9.5t14.5 19.5t8 32.5l44 250q3 18 3 29q0 22 -14.5 28.5t-53.5 6.5h-204zM534 820l-60 -50q-11 -8 -19.5 -13.5t-22.5 -5.5h-111q-10 0 -12 7.5t6 15.5l98 102q17 20 43 20h177q14 0 22 -5
t13 -15l62 -102q5 -8 0.5 -15.5t-14.5 -7.5h-103q-14 0 -21 5.5t-15 13.5z" />
    <glyph glyph-name="Otilde" unicode="&#xd5;" horiz-adv-x="868" 
d="M797 160q-8 -42 -18.5 -72.5t-31.5 -50t-55.5 -28.5t-89.5 -9h-427q-74 0 -109.5 26.5t-35.5 85.5q0 20 5 48l67 380q7 42 18 72t32.5 49.5t56 29t89.5 9.5h427q75 0 109 -26.5t34 -86.5q0 -11 -1 -22.5t-3 -24.5zM381 539q-24 0 -39.5 -2.5t-25.5 -9.5t-15 -19.5
t-9 -32.5l-44 -250q-3 -17 -3 -27q0 -23 15 -30t54 -7h204q25 0 40.5 2.5t25 9.5t14.5 19.5t8 32.5l44 250q3 18 3 29q0 22 -14.5 28.5t-53.5 6.5h-204zM609 866q26 0 32 21q5 19 24 19h58q20 0 17 -19q-13 -74 -50.5 -107t-88.5 -33q-32 0 -53.5 7t-37.5 15t-28.5 15
t-25.5 7q-27 0 -33 -21q-5 -19 -24 -19h-58q-20 0 -17 19q14 74 51 107t88 33q32 0 53.5 -7t37.5 -15t28.5 -15t26.5 -7z" />
    <glyph glyph-name="Odieresis" unicode="&#xd6;" horiz-adv-x="868" 
d="M797 160q-8 -42 -18.5 -72.5t-31.5 -50t-55.5 -28.5t-89.5 -9h-427q-74 0 -109.5 26.5t-35.5 85.5q0 20 5 48l67 380q7 42 18 72t32.5 49.5t56 29t89.5 9.5h427q75 0 109 -26.5t34 -86.5q0 -11 -1 -22.5t-3 -24.5zM381 539q-24 0 -39.5 -2.5t-25.5 -9.5t-15 -19.5
t-9 -32.5l-44 -250q-3 -17 -3 -27q0 -23 15 -30t54 -7h204q25 0 40.5 2.5t25 9.5t14.5 19.5t8 32.5l44 250q3 18 3 29q0 22 -14.5 28.5t-53.5 6.5h-204zM338 870q2 10 9 15.5t17 5.5h118q21 0 18 -21l-16 -93q-5 -21 -26 -21h-118q-10 0 -15 5.5t-3 15.5zM580 870
q3 21 26 21h118q21 0 18 -21l-16 -93q-5 -21 -26 -21h-118q-23 0 -18 21z" />
    <glyph glyph-name="multiply" unicode="&#xd7;" horiz-adv-x="777" 
d="M391 250l-211 -179q-18 -16 -30 -1l-63 76q-12 14 5 30l212 179l-149 181q-6 7 -4.5 15t9.5 15l76 64q16 14 29 -1l149 -181l213 181q18 14 31 1l62 -76q5 -7 4 -15t-9 -15l-214 -181l148 -179q6 -8 4.5 -16t-9.5 -14l-75 -64q-19 -15 -30 1z" />
    <glyph glyph-name="Oslash" unicode="&#xd8;" horiz-adv-x="868" 
d="M797 160q-8 -42 -18.5 -72.5t-31.5 -50t-55.5 -28.5t-89.5 -9h-417l-29 -30q-8 -9 -17.5 -14.5t-23.5 -5.5h-98q-10 0 -12 7.5t6 15.5l53 55q-34 27 -34 84q0 20 5 48l67 380q7 42 18 72t32.5 49.5t56 29t89.5 9.5h414l29 30q8 9 18 14.5t24 5.5h98q10 0 11.5 -7.5
t-5.5 -15.5l-53 -55q34 -27 34 -85q0 -11 -1 -22.5t-3 -24.5zM651 483l-311 -322h178q25 0 40.5 2.5t25 9.5t14.5 19.5t8 32.5zM246 217l310 322h-175q-24 0 -39.5 -2.5t-25.5 -9.5t-15 -19.5t-9 -32.5z" />
    <glyph glyph-name="Ugrave" unicode="&#xd9;" horiz-adv-x="852" 
d="M497 161q25 0 40.5 2.5t25 9.5t14.5 19.5t8 32.5l80 453q5 22 27 22h156q11 0 16 -5.5t3 -16.5l-91 -518q-8 -42 -18.5 -72.5t-31.5 -50t-55.5 -28.5t-89.5 -9h-400q-75 0 -110 26.5t-35 85.5q0 11 1.5 22.5t3.5 25.5l91 518q5 22 27 22h156q24 0 19 -22l-80 -453
q-3 -17 -3 -27q0 -23 15 -30t54 -7h177zM375 872q-7 8 -3 16t13 8h139q25 0 36 -20l54 -102q5 -9 0 -16t-14 -7h-95q-14 0 -23.5 6t-16.5 14z" />
    <glyph glyph-name="Uacute" unicode="&#xda;" horiz-adv-x="852" 
d="M497 161q25 0 40.5 2.5t25 9.5t14.5 19.5t8 32.5l80 453q5 22 27 22h156q11 0 16 -5.5t3 -16.5l-91 -518q-8 -42 -18.5 -72.5t-31.5 -50t-55.5 -28.5t-89.5 -9h-400q-75 0 -110 26.5t-35 85.5q0 11 1.5 22.5t3.5 25.5l91 518q5 22 27 22h156q24 0 19 -22l-80 -453
q-3 -17 -3 -27q0 -23 15 -30t54 -7h177zM571 771q-10 -8 -21 -14t-26 -6h-106q-9 0 -12.5 7t4.5 16l90 102q18 20 43 20h147q9 0 12 -8t-7 -16z" />
    <glyph glyph-name="Ucircumflex" unicode="&#xdb;" horiz-adv-x="852" 
d="M497 161q25 0 40.5 2.5t25 9.5t14.5 19.5t8 32.5l80 453q5 22 27 22h156q11 0 16 -5.5t3 -16.5l-91 -518q-8 -42 -18.5 -72.5t-31.5 -50t-55.5 -28.5t-89.5 -9h-400q-75 0 -110 26.5t-35 85.5q0 11 1.5 22.5t3.5 25.5l91 518q5 22 27 22h156q24 0 19 -22l-80 -453
q-3 -17 -3 -27q0 -23 15 -30t54 -7h177zM526 820l-60 -50q-11 -8 -19.5 -13.5t-22.5 -5.5h-111q-10 0 -12 7.5t6 15.5l98 102q17 20 43 20h177q14 0 22 -5t13 -15l62 -102q5 -8 0.5 -15.5t-14.5 -7.5h-103q-14 0 -21 5.5t-15 13.5z" />
    <glyph glyph-name="Udieresis" unicode="&#xdc;" horiz-adv-x="852" 
d="M497 161q25 0 40.5 2.5t25 9.5t14.5 19.5t8 32.5l80 453q5 22 27 22h156q11 0 16 -5.5t3 -16.5l-91 -518q-8 -42 -18.5 -72.5t-31.5 -50t-55.5 -28.5t-89.5 -9h-400q-75 0 -110 26.5t-35 85.5q0 11 1.5 22.5t3.5 25.5l91 518q5 22 27 22h156q24 0 19 -22l-80 -453
q-3 -17 -3 -27q0 -23 15 -30t54 -7h177zM330 870q2 10 9 15.5t17 5.5h118q21 0 18 -21l-16 -93q-5 -21 -26 -21h-118q-10 0 -15 5.5t-3 15.5zM572 870q3 21 26 21h118q21 0 18 -21l-16 -93q-5 -21 -26 -21h-118q-23 0 -18 21z" />
    <glyph glyph-name="Yacute" unicode="&#xdd;" horiz-adv-x="804" 
d="M299 255l-220 423q-4 8 0.5 15t13.5 7h183q12 0 18.5 -3t11.5 -14l119 -258l211 258q8 11 16.5 14t20.5 3h192q9 0 11 -7t-5 -15l-370 -423l-41 -233q-3 -22 -26 -22h-156q-23 0 -20 22zM547 771q-10 -8 -21 -14t-26 -6h-106q-9 0 -12.5 7t4.5 16l90 102q18 20 43 20h147
q9 0 12 -8t-7 -16z" />
    <glyph glyph-name="Thorn" unicode="&#xde;" horiz-adv-x="820" 
d="M799 292q-8 -42 -18.5 -72.5t-31.5 -50t-55.5 -28.5t-89.5 -9h-361l-20 -110q-3 -22 -27 -22h-155q-23 0 -20 22l116 656q5 22 27 22h155q25 0 20 -22l-10 -59h361q74 0 108.5 -26.5t34.5 -84.5q0 -11 -1.5 -23t-3.5 -26zM300 458l-29 -165h259q22 0 35.5 2t21.5 8.5
t12.5 17.5t7.5 29l9 51q3 15 3 26q0 19 -13 25t-47 6h-259z" />
    <glyph glyph-name="germandbls" unicode="&#xdf;" horiz-adv-x="785" 
d="M731 133q-6 -36 -14 -61t-25 -41t-46 -23.5t-77 -7.5h-160q-63 0 -91.5 21t-28.5 70q0 9 1 19.5t3 22.5l7 38q3 20 24 20h135q21 0 18 -20q-1 -5 -1 -8q0 -17 19 -17h32q24 0 27 22l15 85q1 3 1 5.5v4.5q0 18 -25 18h-47q-62 0 -91 18t-29 68q0 11 1.5 22t3.5 25l27 152
q1 5 1 6.5v3.5q0 18 -26 18h-34q-14 0 -23 -5t-11 -19l-97 -550q-3 -20 -24 -20h-140q-21 0 -18 20l64 360h-42q-21 0 -18 20l19 106q3 20 24 20h42l11 61q7 37 18 66t31.5 48t53.5 29t83 10h136q62 0 90.5 -21.5t28.5 -70.5q-1 -9 -1.5 -19.5t-2.5 -21.5l-28 -153
q-1 -4 -1 -9q0 -18 27 -18h71q62 0 91 -17.5t29 -67.5q0 -11 -1.5 -22.5t-3.5 -25.5z" />
    <glyph glyph-name="agrave" unicode="&#xe0;" horiz-adv-x="661" 
d="M576 165v-5q0 -14 17 -14h6q21 0 18 -20l-19 -106q-3 -20 -24 -20h-92q-89 0 -89 68v8q-18 -38 -53 -57t-101 -19h-111q-63 0 -91 21t-28 69q0 10 1 20.5t3 22.5l7 39q7 39 15 65t24.5 41t45 21t76.5 6h239l5 25q2 7 2 12.5v10.5q0 18 -11.5 23.5t-42.5 5.5h-99
q-21 0 -25 -20l-1 -4q-5 -20 -25 -20h-136q-20 0 -17 20l5 33q6 36 14.5 61.5t26 42t47 24t77.5 7.5h252q66 0 97 -24t31 -76q0 -10 -1 -20.5t-3 -22.5zM319 144q39 0 59 16.5t25 48.5l2 12h-164q-32 0 -36 -29l-3 -19q-1 -4 -1 -9q0 -20 27 -20h91zM251 708q-7 8 -3 16
t13 8h139q25 0 36 -20l54 -102q5 -9 0 -16t-14 -7h-95q-14 0 -23.5 6t-16.5 14z" />
    <glyph glyph-name="aacute" unicode="&#xe1;" horiz-adv-x="661" 
d="M576 165v-5q0 -14 17 -14h6q21 0 18 -20l-19 -106q-3 -20 -24 -20h-92q-89 0 -89 68v8q-18 -38 -53 -57t-101 -19h-111q-63 0 -91 21t-28 69q0 10 1 20.5t3 22.5l7 39q7 39 15 65t24.5 41t45 21t76.5 6h239l5 25q2 7 2 12.5v10.5q0 18 -11.5 23.5t-42.5 5.5h-99
q-21 0 -25 -20l-1 -4q-5 -20 -25 -20h-136q-20 0 -17 20l5 33q6 36 14.5 61.5t26 42t47 24t77.5 7.5h252q66 0 97 -24t31 -76q0 -10 -1 -20.5t-3 -22.5zM319 144q39 0 59 16.5t25 48.5l2 12h-164q-32 0 -36 -29l-3 -19q-1 -4 -1 -9q0 -20 27 -20h91zM447 607q-10 -8 -21 -14
t-26 -6h-106q-9 0 -12.5 7t4.5 16l90 102q18 20 43 20h147q9 0 12 -8t-7 -16z" />
    <glyph glyph-name="acircumflex" unicode="&#xe2;" horiz-adv-x="661" 
d="M576 165v-5q0 -14 17 -14h6q21 0 18 -20l-19 -106q-3 -20 -24 -20h-92q-89 0 -89 68v8q-18 -38 -53 -57t-101 -19h-111q-63 0 -91 21t-28 69q0 10 1 20.5t3 22.5l7 39q7 39 15 65t24.5 41t45 21t76.5 6h239l5 25q2 7 2 12.5v10.5q0 18 -11.5 23.5t-42.5 5.5h-99
q-21 0 -25 -20l-1 -4q-5 -20 -25 -20h-136q-20 0 -17 20l5 33q6 36 14.5 61.5t26 42t47 24t77.5 7.5h252q66 0 97 -24t31 -76q0 -10 -1 -20.5t-3 -22.5zM319 144q39 0 59 16.5t25 48.5l2 12h-164q-32 0 -36 -29l-3 -19q-1 -4 -1 -9q0 -20 27 -20h91zM403 656l-60 -50
q-11 -8 -19.5 -13.5t-22.5 -5.5h-111q-10 0 -12 7.5t6 15.5l98 102q17 20 43 20h177q14 0 22 -5t13 -15l62 -102q5 -8 0.5 -15.5t-14.5 -7.5h-103q-14 0 -21 5.5t-15 13.5z" />
    <glyph glyph-name="atilde" unicode="&#xe3;" horiz-adv-x="661" 
d="M576 165v-5q0 -14 17 -14h6q21 0 18 -20l-19 -106q-3 -20 -24 -20h-92q-89 0 -89 68v8q-18 -38 -53 -57t-101 -19h-111q-63 0 -91 21t-28 69q0 10 1 20.5t3 22.5l7 39q7 39 15 65t24.5 41t45 21t76.5 6h239l5 25q2 7 2 12.5v10.5q0 18 -11.5 23.5t-42.5 5.5h-99
q-21 0 -25 -20l-1 -4q-5 -20 -25 -20h-136q-20 0 -17 20l5 33q6 36 14.5 61.5t26 42t47 24t77.5 7.5h252q66 0 97 -24t31 -76q0 -10 -1 -20.5t-3 -22.5zM319 144q39 0 59 16.5t25 48.5l2 12h-164q-32 0 -36 -29l-3 -19q-1 -4 -1 -9q0 -20 27 -20h91zM478 702q26 0 32 21
q5 19 24 19h58q20 0 17 -19q-13 -74 -50.5 -107t-88.5 -33q-32 0 -53.5 7t-37.5 15t-28.5 15t-25.5 7q-27 0 -33 -21q-5 -19 -24 -19h-58q-20 0 -17 19q14 74 51 107t88 33q32 0 53.5 -7t37.5 -15t28.5 -15t26.5 -7z" />
    <glyph glyph-name="adieresis" unicode="&#xe4;" horiz-adv-x="661" 
d="M576 165v-5q0 -14 17 -14h6q21 0 18 -20l-19 -106q-3 -20 -24 -20h-92q-89 0 -89 68v8q-18 -38 -53 -57t-101 -19h-111q-63 0 -91 21t-28 69q0 10 1 20.5t3 22.5l7 39q7 39 15 65t24.5 41t45 21t76.5 6h239l5 25q2 7 2 12.5v10.5q0 18 -11.5 23.5t-42.5 5.5h-99
q-21 0 -25 -20l-1 -4q-5 -20 -25 -20h-136q-20 0 -17 20l5 33q6 36 14.5 61.5t26 42t47 24t77.5 7.5h252q66 0 97 -24t31 -76q0 -10 -1 -20.5t-3 -22.5zM319 144q39 0 59 16.5t25 48.5l2 12h-164q-32 0 -36 -29l-3 -19q-1 -4 -1 -9q0 -20 27 -20h91zM206 706q2 10 9 15.5
t17 5.5h118q21 0 18 -21l-16 -93q-5 -21 -26 -21h-118q-10 0 -15 5.5t-3 15.5zM448 706q3 21 26 21h118q21 0 18 -21l-16 -93q-5 -21 -26 -21h-118q-23 0 -18 21z" />
    <glyph glyph-name="aring" unicode="&#xe5;" horiz-adv-x="661" 
d="M576 165v-5q0 -14 17 -14h6q21 0 18 -20l-19 -106q-3 -20 -24 -20h-92q-89 0 -89 68v8q-18 -38 -53 -57t-101 -19h-111q-63 0 -91 21t-28 69q0 10 1 20.5t3 22.5l7 39q7 39 15 65t24.5 41t45 21t76.5 6h239l5 25q2 7 2 12.5v10.5q0 18 -11.5 23.5t-42.5 5.5h-99
q-21 0 -25 -20l-1 -4q-5 -20 -25 -20h-136q-20 0 -17 20l5 33q6 36 14.5 61.5t26 42t47 24t77.5 7.5h252q66 0 97 -24t31 -76q0 -10 -1 -20.5t-3 -22.5zM319 144q39 0 59 16.5t25 48.5l2 12h-164q-32 0 -36 -29l-3 -19q-1 -4 -1 -9q0 -20 27 -20h91zM412 730
q-36 0 -50 -14.5t-14 -34.5q0 -14 11 -22.5t39 -8.5q35 0 49.5 14t14.5 35q0 14 -11 22.5t-39 8.5zM425 802q34 0 57.5 -7.5t37.5 -20t20.5 -29.5t6.5 -36q0 -28 -9 -52t-28.5 -41.5t-50 -27.5t-74.5 -10q-68 0 -95.5 27t-27.5 65q0 28 9 52t28.5 42t50.5 28t75 10z" />
    <glyph glyph-name="ae" unicode="&#xe6;" horiz-adv-x="1027" 
d="M976 241q-3 -20 -25 -20h-364l-4 -25q-3 -14 -3 -23q0 -18 12 -23.5t43 -5.5h125q11 0 17 5t8 19q3 20 25 20h136q20 0 17 -20l-6 -33q-6 -36 -14 -61.5t-25.5 -42t-47 -24t-77.5 -7.5h-246q-57 0 -87.5 16.5t-38.5 53.5q-18 -35 -52.5 -52.5t-97.5 -17.5h-143
q-63 0 -91 21t-28 69q0 10 1 20.5t3 22.5l7 39q7 39 14.5 65t24 41t45.5 21t77 6h239l5 25q2 7 2 12.5v10.5q0 18 -11.5 23.5t-42.5 5.5h-99q-21 0 -25 -20l-1 -4q-5 -20 -25 -20h-136q-22 0 -17 20l5 33q6 36 14.5 61.5t26 42t47 24t77.5 7.5h179q100 0 118 -60
q17 31 49.5 45.5t94.5 14.5h204q63 0 92 -22t29 -72q0 -9 -1 -19.5t-3 -21.5zM602 305h204l8 46q1 5 1 7v4q0 20 -22 20h-116q-20 0 -32.5 -2t-20 -7.5t-11.5 -16t-7 -26.5zM319 144q39 0 59 16.5t25 48.5l2 12h-164q-30 0 -36 -29l-3 -16q-1 -5 -1 -7.5v-4.5q0 -20 27 -20
h91z" />
    <glyph glyph-name="ccedilla" unicode="&#xe7;" horiz-adv-x="653" 
d="M68 383q7 37 16 64.5t27.5 44.5t49.5 25.5t81 8.5h277q63 0 92 -22t29 -72q0 -9 -1 -19.5t-3 -21.5l-8 -48q-3 -20 -25 -20h-135q-20 0 -17 20l1 7q1 5 1 6.5v3.5q0 20 -23 20h-119q-20 0 -32.5 -2t-20 -7.5t-11.5 -16t-7 -26.5l-23 -130q-3 -14 -3 -23q0 -18 11.5 -23.5
t43.5 -5.5h119q28 0 33 26l2 11q3 20 24 20h135q21 0 18 -20l-9 -48q-6 -36 -14 -61.5t-25.5 -42t-47 -24t-77.5 -7.5h-277q-66 0 -97 23.5t-31 76.5q0 10 1 20.5t3 22.5zM160 -204q-20 0 -17 19l7 41q3 19 23 19h7q25 0 35 11.5t10 30.5q0 6 -1 10q-2 8 1 14.5t14 6.5h117
q12 0 16.5 -9.5t4.5 -20.5q0 -51 -34 -86.5t-110 -35.5h-73z" />
    <glyph glyph-name="egrave" unicode="&#xe8;" horiz-adv-x="661" 
d="M68 383q7 37 16 64.5t27.5 44.5t49.5 25.5t81 8.5h277q63 0 92 -22t29 -72q0 -9 -1 -19.5t-3 -21.5l-26 -150q-3 -20 -25 -20h-364l-4 -25q-3 -15 -3 -24q0 -17 11.5 -22.5t43.5 -5.5h126q20 0 24 19l1 5q5 20 25 20h135q20 0 17 -20l-6 -33q-6 -36 -14 -61.5t-25.5 -42
t-47 -24t-77.5 -7.5h-277q-66 0 -97 23.5t-31 76.5q0 10 1 20.5t3 22.5zM311 382q-20 0 -32.5 -2t-20 -7.5t-11 -16t-6.5 -26.5l-5 -25h205l8 46q1 5 1 7v4q0 20 -23 20h-116zM253 708q-7 8 -3 16t13 8h139q25 0 36 -20l54 -102q5 -9 0 -16t-14 -7h-95q-14 0 -23.5 6
t-16.5 14z" />
    <glyph glyph-name="eacute" unicode="&#xe9;" horiz-adv-x="661" 
d="M68 383q7 37 16 64.5t27.5 44.5t49.5 25.5t81 8.5h277q63 0 92 -22t29 -72q0 -9 -1 -19.5t-3 -21.5l-26 -150q-3 -20 -25 -20h-364l-4 -25q-3 -15 -3 -24q0 -17 11.5 -22.5t43.5 -5.5h126q20 0 24 19l1 5q5 20 25 20h135q20 0 17 -20l-6 -33q-6 -36 -14 -61.5t-25.5 -42
t-47 -24t-77.5 -7.5h-277q-66 0 -97 23.5t-31 76.5q0 10 1 20.5t3 22.5zM311 382q-20 0 -32.5 -2t-20 -7.5t-11 -16t-6.5 -26.5l-5 -25h205l8 46q1 5 1 7v4q0 20 -23 20h-116zM449 607q-10 -8 -21 -14t-26 -6h-106q-9 0 -12.5 7t4.5 16l90 102q18 20 43 20h147q9 0 12 -8
t-7 -16z" />
    <glyph glyph-name="ecircumflex" unicode="&#xea;" horiz-adv-x="661" 
d="M68 383q7 37 16 64.5t27.5 44.5t49.5 25.5t81 8.5h277q63 0 92 -22t29 -72q0 -9 -1 -19.5t-3 -21.5l-26 -150q-3 -20 -25 -20h-364l-4 -25q-3 -15 -3 -24q0 -17 11.5 -22.5t43.5 -5.5h126q20 0 24 19l1 5q5 20 25 20h135q20 0 17 -20l-6 -33q-6 -36 -14 -61.5t-25.5 -42
t-47 -24t-77.5 -7.5h-277q-66 0 -97 23.5t-31 76.5q0 10 1 20.5t3 22.5zM311 382q-20 0 -32.5 -2t-20 -7.5t-11 -16t-6.5 -26.5l-5 -25h205l8 46q1 5 1 7v4q0 20 -23 20h-116zM405 656l-60 -50q-11 -8 -19.5 -13.5t-22.5 -5.5h-111q-10 0 -12 7.5t6 15.5l98 102q17 20 43 20
h177q14 0 22 -5t13 -15l62 -102q5 -8 0.5 -15.5t-14.5 -7.5h-103q-14 0 -21 5.5t-15 13.5z" />
    <glyph glyph-name="edieresis" unicode="&#xeb;" horiz-adv-x="661" 
d="M68 383q7 37 16 64.5t27.5 44.5t49.5 25.5t81 8.5h277q63 0 92 -22t29 -72q0 -9 -1 -19.5t-3 -21.5l-26 -150q-3 -20 -25 -20h-364l-4 -25q-3 -15 -3 -24q0 -17 11.5 -22.5t43.5 -5.5h126q20 0 24 19l1 5q5 20 25 20h135q20 0 17 -20l-6 -33q-6 -36 -14 -61.5t-25.5 -42
t-47 -24t-77.5 -7.5h-277q-66 0 -97 23.5t-31 76.5q0 10 1 20.5t3 22.5zM311 382q-20 0 -32.5 -2t-20 -7.5t-11 -16t-6.5 -26.5l-5 -25h205l8 46q1 5 1 7v4q0 20 -23 20h-116zM208 706q2 10 9 15.5t17 5.5h118q21 0 18 -21l-16 -93q-5 -21 -26 -21h-118q-10 0 -15 5.5
t-3 15.5zM450 706q3 21 26 21h118q21 0 18 -21l-16 -93q-5 -21 -26 -21h-118q-23 0 -18 21z" />
    <glyph glyph-name="igrave" unicode="&#xec;" horiz-adv-x="302" 
d="M72 708q-7 8 -3 16t13 8h139q25 0 36 -20l54 -102q5 -9 0 -16t-14 -7h-95q-14 0 -23.5 6t-16.5 14zM199 20q-3 -20 -24 -20h-140q-21 0 -18 20l86 486q3 20 24 20h140q21 0 18 -20z" />
    <glyph glyph-name="iacute" unicode="&#xed;" horiz-adv-x="302" 
d="M268 607q-10 -8 -21 -14t-26 -6h-106q-9 0 -12.5 7t4.5 16l90 102q18 20 43 20h147q9 0 12 -8t-7 -16zM199 20q-3 -20 -24 -20h-140q-21 0 -18 20l86 486q3 20 24 20h140q21 0 18 -20z" />
    <glyph glyph-name="icircumflex" unicode="&#xee;" horiz-adv-x="302" 
d="M199 20q-3 -20 -24 -20h-140q-21 0 -18 20l86 486q3 20 24 20h140q21 0 18 -20zM223 656l-60 -50q-11 -8 -19.5 -13.5t-22.5 -5.5h-111q-10 0 -12 7.5t6 15.5l98 102q17 20 43 20h177q14 0 22 -5t13 -15l62 -102q5 -8 0.5 -15.5t-14.5 -7.5h-103q-14 0 -21 5.5t-15 13.5z
" />
    <glyph glyph-name="idieresis" unicode="&#xef;" horiz-adv-x="302" 
d="M37 706q2 10 9 15.5t17 5.5h118q21 0 18 -21l-16 -93q-5 -21 -26 -21h-118q-10 0 -15 5.5t-3 15.5zM259 706q3 21 26 21h118q21 0 18 -21l-16 -93q-5 -21 -26 -21h-118q-23 0 -18 21zM199 20q-3 -20 -24 -20h-140q-21 0 -18 20l86 486q3 20 24 20h140q21 0 18 -20z" />
    <glyph glyph-name="eth" unicode="&#xf0;" horiz-adv-x="672" 
d="M607 651q20 -32 32.5 -73.5t12.5 -101.5t-15 -147l-33 -186q-7 -38 -16 -65t-27.5 -44t-49.5 -25.5t-81 -8.5h-280q-66 0 -97 23.5t-31 76.5q0 10 1 20.5t3 22.5l42 240q7 37 16 64.5t27.5 44.5t49.5 25.5t81 8.5h112q89 0 115 -54q0 39 -9.5 70.5t-30.5 60.5l-171 -45
q-13 -3 -11 9l8 42q2 12 16 15l113 30q-17 15 -36.5 31.5t-43.5 34.5q-6 5 -3 12.5t11 7.5h191q19 0 32 -12l28 -26l132 35q14 3 12 -9l-8 -42q-3 -12 -16 -15zM360 146q20 0 32.5 2t20 7.5t11 15.5t6.5 27l21 117q1 5 1.5 9.5t0.5 8.5q0 23 -15 35t-48 12h-78
q-20 0 -32.5 -2t-20 -7.5t-11.5 -16t-7 -26.5l-23 -130q-3 -14 -3 -23q0 -18 11.5 -23.5t43.5 -5.5h90z" />
    <glyph glyph-name="ntilde" unicode="&#xf1;" 
d="M253 437q9 22 21.5 38.5t31.5 27.5t45 17t61 6h96q66 0 97 -24t31 -76q0 -10 -1 -20.5t-3 -22.5l-64 -363q-3 -20 -24 -20h-140q-21 0 -18 20l54 308q3 15 3 24q0 17 -11.5 22.5t-42.5 5.5h-53q-39 0 -59 -16.5t-26 -48.5l-52 -295q-3 -20 -24 -20h-140q-21 0 -18 20
l86 486q3 20 24 20h120q21 0 18 -20zM482 702q26 0 32 21q5 19 24 19h58q20 0 17 -19q-13 -74 -50.5 -107t-88.5 -33q-32 0 -53.5 7t-37.5 15t-28.5 15t-25.5 7q-27 0 -33 -21q-5 -19 -24 -19h-58q-20 0 -17 19q14 74 51 107t88 33q32 0 53.5 -7t37.5 -15t28.5 -15t26.5 -7z
" />
    <glyph glyph-name="ograve" unicode="&#xf2;" horiz-adv-x="672" 
d="M604 143q-7 -38 -16 -65t-27 -44t-49 -25.5t-82 -8.5h-280q-66 0 -97 23.5t-31 76.5q0 10 1 20.5t3 22.5l42 240q7 37 16 64.5t27.5 44.5t49.5 25.5t81 8.5h280q66 0 97 -23.5t31 -75.5q0 -11 -1 -21.5t-3 -22.5zM311 380q-20 0 -32.5 -2t-20 -7.5t-11.5 -16t-7 -26.5
l-23 -130q-3 -14 -3 -23q0 -18 11.5 -23.5t43.5 -5.5h92q20 0 32.5 2t20 7.5t11 15.5t6.5 27l23 130q3 15 3 24q0 17 -11.5 22.5t-42.5 5.5h-92zM257 708q-7 8 -3 16t13 8h139q25 0 36 -20l54 -102q5 -9 0 -16t-14 -7h-95q-14 0 -23.5 6t-16.5 14z" />
    <glyph glyph-name="oacute" unicode="&#xf3;" horiz-adv-x="672" 
d="M604 143q-7 -38 -16 -65t-27 -44t-49 -25.5t-82 -8.5h-280q-66 0 -97 23.5t-31 76.5q0 10 1 20.5t3 22.5l42 240q7 37 16 64.5t27.5 44.5t49.5 25.5t81 8.5h280q66 0 97 -23.5t31 -75.5q0 -11 -1 -21.5t-3 -22.5zM311 380q-20 0 -32.5 -2t-20 -7.5t-11.5 -16t-7 -26.5
l-23 -130q-3 -14 -3 -23q0 -18 11.5 -23.5t43.5 -5.5h92q20 0 32.5 2t20 7.5t11 15.5t6.5 27l23 130q3 15 3 24q0 17 -11.5 22.5t-42.5 5.5h-92zM453 607q-10 -8 -21 -14t-26 -6h-106q-9 0 -12.5 7t4.5 16l90 102q18 20 43 20h147q9 0 12 -8t-7 -16z" />
    <glyph glyph-name="ocircumflex" unicode="&#xf4;" horiz-adv-x="672" 
d="M604 143q-7 -38 -16 -65t-27 -44t-49 -25.5t-82 -8.5h-280q-66 0 -97 23.5t-31 76.5q0 10 1 20.5t3 22.5l42 240q7 37 16 64.5t27.5 44.5t49.5 25.5t81 8.5h280q66 0 97 -23.5t31 -75.5q0 -11 -1 -21.5t-3 -22.5zM311 380q-20 0 -32.5 -2t-20 -7.5t-11.5 -16t-7 -26.5
l-23 -130q-3 -14 -3 -23q0 -18 11.5 -23.5t43.5 -5.5h92q20 0 32.5 2t20 7.5t11 15.5t6.5 27l23 130q3 15 3 24q0 17 -11.5 22.5t-42.5 5.5h-92zM408 656l-60 -50q-11 -8 -19.5 -13.5t-22.5 -5.5h-111q-10 0 -12 7.5t6 15.5l98 102q17 20 43 20h177q14 0 22 -5t13 -15
l62 -102q5 -8 0.5 -15.5t-14.5 -7.5h-103q-14 0 -21 5.5t-15 13.5z" />
    <glyph glyph-name="otilde" unicode="&#xf5;" horiz-adv-x="672" 
d="M604 143q-7 -38 -16 -65t-27 -44t-49 -25.5t-82 -8.5h-280q-66 0 -97 23.5t-31 76.5q0 10 1 20.5t3 22.5l42 240q7 37 16 64.5t27.5 44.5t49.5 25.5t81 8.5h280q66 0 97 -23.5t31 -75.5q0 -11 -1 -21.5t-3 -22.5zM311 380q-20 0 -32.5 -2t-20 -7.5t-11.5 -16t-7 -26.5
l-23 -130q-3 -14 -3 -23q0 -18 11.5 -23.5t43.5 -5.5h92q20 0 32.5 2t20 7.5t11 15.5t6.5 27l23 130q3 15 3 24q0 17 -11.5 22.5t-42.5 5.5h-92zM483 702q26 0 32 21q5 19 24 19h58q20 0 17 -19q-13 -74 -50.5 -107t-88.5 -33q-32 0 -53.5 7t-37.5 15t-28.5 15t-25.5 7
q-27 0 -33 -21q-5 -19 -24 -19h-58q-20 0 -17 19q14 74 51 107t88 33q32 0 53.5 -7t37.5 -15t28.5 -15t26.5 -7z" />
    <glyph glyph-name="odieresis" unicode="&#xf6;" horiz-adv-x="672" 
d="M604 143q-7 -38 -16 -65t-27 -44t-49 -25.5t-82 -8.5h-280q-66 0 -97 23.5t-31 76.5q0 10 1 20.5t3 22.5l42 240q7 37 16 64.5t27.5 44.5t49.5 25.5t81 8.5h280q66 0 97 -23.5t31 -75.5q0 -11 -1 -21.5t-3 -22.5zM311 380q-20 0 -32.5 -2t-20 -7.5t-11.5 -16t-7 -26.5
l-23 -130q-3 -14 -3 -23q0 -18 11.5 -23.5t43.5 -5.5h92q20 0 32.5 2t20 7.5t11 15.5t6.5 27l23 130q3 15 3 24q0 17 -11.5 22.5t-42.5 5.5h-92zM212 706q2 10 9 15.5t17 5.5h118q21 0 18 -21l-16 -93q-5 -21 -26 -21h-118q-10 0 -15 5.5t-3 15.5zM454 706q3 21 26 21h118
q21 0 18 -21l-16 -93q-5 -21 -26 -21h-118q-23 0 -18 21z" />
    <glyph glyph-name="divide" unicode="&#xf7;" horiz-adv-x="777" 
d="M81 280q-23 0 -18 21l17 98q3 21 26 21h621q21 0 18 -21l-17 -98q-5 -21 -26 -21h-621zM357 505q-22 0 -19 21l21 120q5 21 26 21h139q11 0 16 -5.5t3 -15.5l-21 -120q-3 -21 -26 -21h-139zM273 33q-21 0 -18 21l21 120q3 21 26 21h139q22 0 19 -21l-21 -120
q-2 -10 -9 -15.5t-18 -5.5h-139z" />
    <glyph glyph-name="oslash" unicode="&#xf8;" horiz-adv-x="672" 
d="M604 143q-7 -38 -16 -65t-27 -44t-49 -25.5t-82 -8.5h-287l-28 -30q-9 -9 -18 -14.5t-23 -5.5h-66q-10 0 -12 7.5t6 15.5l49 52q-29 23 -29 75q0 10 1 20.5t3 22.5l42 240q7 37 16 64.5t27.5 44.5t49.5 25.5t81 8.5h284l30 31q9 9 18 14.5t23 5.5h66q10 0 12 -7.5
t-6 -15.5l-50 -52q31 -24 31 -75q0 -11 -1 -21.5t-3 -22.5zM361 146q20 0 32.5 2t20 7.5t11 15.5t6.5 27l23 129l-172 -181h79zM217 200l171 180h-77q-20 0 -32.5 -2t-20 -7.5t-11.5 -16t-7 -26.5z" />
    <glyph glyph-name="ugrave" unicode="&#xf9;" 
d="M157 0q-66 0 -97.5 23.5t-31.5 76.5q0 10 1 20.5t3 22.5l64 363q3 20 24 20h140q21 0 18 -20l-55 -308q-2 -7 -2 -12.5v-10.5q0 -18 11 -23.5t43 -5.5h55q38 0 58 16.5t26 48.5l52 295q3 20 24 20h140q21 0 18 -20l-86 -486q-3 -20 -24 -20h-120q-21 0 -18 20l12 71
q-8 -23 -20.5 -40t-31.5 -28t-45 -17t-62 -6h-96zM250 708q-7 8 -3 16t13 8h139q25 0 36 -20l54 -102q5 -9 0 -16t-14 -7h-95q-14 0 -23.5 6t-16.5 14z" />
    <glyph glyph-name="uacute" unicode="&#xfa;" 
d="M157 0q-66 0 -97.5 23.5t-31.5 76.5q0 10 1 20.5t3 22.5l64 363q3 20 24 20h140q21 0 18 -20l-55 -308q-2 -7 -2 -12.5v-10.5q0 -18 11 -23.5t43 -5.5h55q38 0 58 16.5t26 48.5l52 295q3 20 24 20h140q21 0 18 -20l-86 -486q-3 -20 -24 -20h-120q-21 0 -18 20l12 71
q-8 -23 -20.5 -40t-31.5 -28t-45 -17t-62 -6h-96zM446 607q-10 -8 -21 -14t-26 -6h-106q-9 0 -12.5 7t4.5 16l90 102q18 20 43 20h147q9 0 12 -8t-7 -16z" />
    <glyph glyph-name="ucircumflex" unicode="&#xfb;" 
d="M157 0q-66 0 -97.5 23.5t-31.5 76.5q0 10 1 20.5t3 22.5l64 363q3 20 24 20h140q21 0 18 -20l-55 -308q-2 -7 -2 -12.5v-10.5q0 -18 11 -23.5t43 -5.5h55q38 0 58 16.5t26 48.5l52 295q3 20 24 20h140q21 0 18 -20l-86 -486q-3 -20 -24 -20h-120q-21 0 -18 20l12 71
q-8 -23 -20.5 -40t-31.5 -28t-45 -17t-62 -6h-96zM401 656l-60 -50q-11 -8 -19.5 -13.5t-22.5 -5.5h-111q-10 0 -12 7.5t6 15.5l98 102q17 20 43 20h177q14 0 22 -5t13 -15l62 -102q5 -8 0.5 -15.5t-14.5 -7.5h-103q-14 0 -21 5.5t-15 13.5z" />
    <glyph glyph-name="udieresis" unicode="&#xfc;" 
d="M157 0q-66 0 -97.5 23.5t-31.5 76.5q0 10 1 20.5t3 22.5l64 363q3 20 24 20h140q21 0 18 -20l-55 -308q-2 -7 -2 -12.5v-10.5q0 -18 11 -23.5t43 -5.5h55q38 0 58 16.5t26 48.5l52 295q3 20 24 20h140q21 0 18 -20l-86 -486q-3 -20 -24 -20h-120q-21 0 -18 20l12 71
q-8 -23 -20.5 -40t-31.5 -28t-45 -17t-62 -6h-96zM205 706q2 10 9 15.5t17 5.5h118q21 0 18 -21l-16 -93q-5 -21 -26 -21h-118q-10 0 -15 5.5t-3 15.5zM447 706q3 21 26 21h118q21 0 18 -21l-16 -93q-5 -21 -26 -21h-118q-23 0 -18 21z" />
    <glyph glyph-name="yacute" unicode="&#xfd;" 
d="M7 -57q5 20 25 20h135q22 0 17 -20v-3q0 -13 15 -13h106q35 0 49 11t19 41l13 76q-19 -27 -52 -41t-89 -14h-88q-66 0 -97.5 23.5t-31.5 76.5q0 10 1 20.5t3 22.5l64 363q3 20 24 20h140q21 0 18 -20l-55 -308q-2 -7 -2 -12.5v-10.5q0 -18 11 -23.5t43 -5.5h55
q38 0 58 16.5t26 48.5l52 295q3 20 24 20h140q21 0 18 -20l-97 -548q-7 -40 -19 -70.5t-34 -50.5t-56.5 -30.5t-87.5 -10.5h-231q-63 0 -92.5 22.5t-29.5 72.5q0 20 4 40zM446 607q-10 -8 -21 -14t-26 -6h-106q-9 0 -12.5 7t4.5 16l90 102q18 20 43 20h147q9 0 12 -8t-7 -16
z" />
    <glyph glyph-name="thorn" unicode="&#xfe;" horiz-adv-x="674" 
d="M140 720q5 20 25 20h140q22 0 17 -20l-45 -252q20 29 53.5 43.5t90.5 14.5h103q66 0 97 -24t31 -76q0 -10 -1 -20.5t-3 -22.5l-42 -240q-7 -38 -16 -65t-27.5 -44t-49.5 -25.5t-81 -8.5h-103q-53 0 -82 17t-40 51l-44 -252q-3 -20 -24 -20h-140q-21 0 -18 20zM336 380
q-39 0 -59 -16.5t-26 -48.5l-18 -104q-1 -5 -1.5 -9.5t-0.5 -9.5q0 -23 15 -34.5t48 -11.5h68q20 0 32.5 2t20 7.5t11 15.5t6.5 27l23 130q3 15 3 24q0 17 -11.5 22.5t-42.5 5.5h-68z" />
    <glyph glyph-name="ydieresis" unicode="&#xff;" 
d="M7 -57q5 20 25 20h135q22 0 17 -20v-3q0 -13 15 -13h106q35 0 49 11t19 41l13 76q-19 -27 -52 -41t-89 -14h-88q-66 0 -97.5 23.5t-31.5 76.5q0 10 1 20.5t3 22.5l64 363q3 20 24 20h140q21 0 18 -20l-55 -308q-2 -7 -2 -12.5v-10.5q0 -18 11 -23.5t43 -5.5h55
q38 0 58 16.5t26 48.5l52 295q3 20 24 20h140q21 0 18 -20l-97 -548q-7 -40 -19 -70.5t-34 -50.5t-56.5 -30.5t-87.5 -10.5h-231q-63 0 -92.5 22.5t-29.5 72.5q0 20 4 40zM205 706q2 10 9 15.5t17 5.5h118q21 0 18 -21l-16 -93q-5 -21 -26 -21h-118q-10 0 -15 5.5t-3 15.5z
M447 706q3 21 26 21h118q21 0 18 -21l-16 -93q-5 -21 -26 -21h-118q-23 0 -18 21z" />
    <glyph glyph-name="Amacron" unicode="&#x100;" horiz-adv-x="851" 
d="M569 119h-337l-55 -98q-11 -21 -35 -21h-170q-10 0 -13 6.5t3 16.5l390 656q12 21 37 21h228q23 0 28 -21l160 -656q2 -10 -3 -16.5t-14 -6.5h-169q-25 0 -29 21zM321 276h214l-58 276zM352 845q3 21 25 21h306q22 0 19 -21l-13 -69q-3 -21 -25 -21h-306q-22 0 -19 21z
" />
    <glyph glyph-name="amacron" unicode="&#x101;" horiz-adv-x="661" 
d="M576 165v-5q0 -14 17 -14h6q21 0 18 -20l-19 -106q-3 -20 -24 -20h-92q-89 0 -89 68v8q-18 -38 -53 -57t-101 -19h-111q-63 0 -91 21t-28 69q0 10 1 20.5t3 22.5l7 39q7 39 15 65t24.5 41t45 21t76.5 6h239l5 25q2 7 2 12.5v10.5q0 18 -11.5 23.5t-42.5 5.5h-99
q-21 0 -25 -20l-1 -4q-5 -20 -25 -20h-136q-20 0 -17 20l5 33q6 36 14.5 61.5t26 42t47 24t77.5 7.5h252q66 0 97 -24t31 -76q0 -10 -1 -20.5t-3 -22.5zM319 144q39 0 59 16.5t25 48.5l2 12h-164q-32 0 -36 -29l-3 -19q-1 -4 -1 -9q0 -20 27 -20h91zM229 681q3 21 25 21h306
q22 0 19 -21l-13 -69q-3 -21 -25 -21h-306q-22 0 -19 21z" />
    <glyph glyph-name="Abreve" unicode="&#x102;" horiz-adv-x="851" 
d="M569 119h-337l-55 -98q-11 -21 -35 -21h-170q-10 0 -13 6.5t3 16.5l390 656q12 21 37 21h228q23 0 28 -21l160 -656q2 -10 -3 -16.5t-14 -6.5h-169q-25 0 -29 21zM321 276h214l-58 276zM466 896q18 0 18 -17q0 -2 -0.5 -4.5t-0.5 -4.5q0 -13 13.5 -17.5t30.5 -4.5
q18 0 34 5.5t19 21.5q2 10 9 15.5t17 5.5h78q21 0 18 -21q-10 -73 -57 -104t-127 -31q-72 0 -115.5 24.5t-43.5 81.5q0 14 3 29q3 21 26 21h78z" />
    <glyph glyph-name="abreve" unicode="&#x103;" horiz-adv-x="661" 
d="M576 165v-5q0 -14 17 -14h6q21 0 18 -20l-19 -106q-3 -20 -24 -20h-92q-89 0 -89 68v8q-18 -38 -53 -57t-101 -19h-111q-63 0 -91 21t-28 69q0 10 1 20.5t3 22.5l7 39q7 39 15 65t24.5 41t45 21t76.5 6h239l5 25q2 7 2 12.5v10.5q0 18 -11.5 23.5t-42.5 5.5h-99
q-21 0 -25 -20l-1 -4q-5 -20 -25 -20h-136q-20 0 -17 20l5 33q6 36 14.5 61.5t26 42t47 24t77.5 7.5h252q66 0 97 -24t31 -76q0 -10 -1 -20.5t-3 -22.5zM319 144q39 0 59 16.5t25 48.5l2 12h-164q-32 0 -36 -29l-3 -19q-1 -4 -1 -9q0 -20 27 -20h91zM343 732q18 0 18 -17
q0 -2 -0.5 -4.5t-0.5 -4.5q0 -13 13.5 -17.5t30.5 -4.5q18 0 34 5.5t19 21.5q2 10 9 15.5t17 5.5h78q21 0 18 -21q-10 -73 -57 -104t-127 -31q-72 0 -115.5 24.5t-43.5 81.5q0 14 3 29q3 21 26 21h78z" />
    <glyph glyph-name="Aogonek" unicode="&#x104;" horiz-adv-x="851" 
d="M492 -128q0 41 26 76t63 52l12 5l-24 114h-337l-55 -98q-11 -21 -35 -21h-170q-10 0 -13 6.5t3 16.5l390 656q12 21 37 21h228q23 0 28 -21l160 -656q2 -10 -3 -16.5t-14 -6.5h-128q-29 -11 -43.5 -28t-14.5 -33q0 -23 33 -23h114q21 0 18 -21l-14 -78q-3 -21 -25 -21
h-126q-60 0 -85 22t-25 54zM321 276h214l-58 276z" />
    <glyph glyph-name="aogonek" unicode="&#x105;" horiz-adv-x="661" 
d="M577 165q-1 -3 -1 -5q0 -14 17 -14h6q21 0 18 -20l-19 -106q-3 -20 -24 -20h-85q-34 -17 -46 -32t-12 -29q0 -23 33 -23h94q21 0 18 -21l-14 -78q-3 -21 -25 -21h-106q-60 0 -85 22t-25 54q0 41 26 76t63 52l19 9q-36 15 -36 59v8q-18 -38 -53 -57t-101 -19h-111
q-63 0 -91 21t-28 69q0 10 1 20.5t3 22.5l7 39q7 39 15 65t24.5 41t45 21t76.5 6h239l5 25q2 7 2 12.5v10.5q0 18 -11.5 23.5t-42.5 5.5h-99q-21 0 -25 -20l-1 -4q-5 -20 -25 -20h-136q-20 0 -17 20l5 33q6 36 14.5 61.5t26 42t47 24t77.5 7.5h252q66 0 97 -24t31 -76
q0 -10 -1 -20.5t-3 -22.5zM319 144q39 0 59 16.5t25 48.5l2 12h-164q-32 0 -36 -29l-3 -19q-1 -4 -1 -9q0 -20 27 -20h91z" />
    <glyph glyph-name="Cacute" unicode="&#x106;" horiz-adv-x="817" 
d="M102 540q7 42 18 72t32.5 49.5t56 29t89.5 9.5h393q76 0 109 -22t33 -79q0 -12 -2 -26t-4 -30l-11 -66q-3 -22 -27 -22h-150q-22 0 -19 22l5 31q1 2 1 4.5v4.5q0 22 -28 22h-217q-24 0 -39.5 -2.5t-25.5 -9.5t-15 -19.5t-9 -32.5l-44 -250q-3 -17 -3 -27q0 -23 15 -30
t54 -7h217q34 0 38 31l6 31q3 22 27 22h150q22 0 19 -22l-12 -66q-8 -44 -17.5 -74t-29 -48.5t-53.5 -26.5t-91 -8h-393q-74 0 -109.5 26.5t-35.5 85.5q0 20 5 48zM565 771q-10 -8 -21 -14t-26 -6h-106q-9 0 -12.5 7t4.5 16l90 102q18 20 43 20h147q9 0 12 -8t-7 -16z" />
    <glyph glyph-name="cacute" unicode="&#x107;" horiz-adv-x="653" 
d="M68 383q7 37 16 64.5t27.5 44.5t49.5 25.5t81 8.5h277q63 0 92 -22t29 -72q0 -9 -1 -19.5t-3 -21.5l-8 -48q-3 -20 -25 -20h-135q-20 0 -17 20l1 7q1 5 1 6.5v3.5q0 20 -23 20h-119q-20 0 -32.5 -2t-20 -7.5t-11.5 -16t-7 -26.5l-23 -130q-3 -14 -3 -23q0 -18 11.5 -23.5
t43.5 -5.5h119q28 0 33 26l2 11q3 20 24 20h135q21 0 18 -20l-9 -48q-6 -36 -14 -61.5t-25.5 -42t-47 -24t-77.5 -7.5h-277q-66 0 -97 23.5t-31 76.5q0 10 1 20.5t3 22.5zM448 607q-10 -8 -21 -14t-26 -6h-106q-9 0 -12.5 7t4.5 16l90 102q18 20 43 20h147q9 0 12 -8t-7 -16
z" />
    <glyph glyph-name="Ccircumflex" unicode="&#x108;" horiz-adv-x="817" 
d="M102 540q7 42 18 72t32.5 49.5t56 29t89.5 9.5h393q76 0 109 -22t33 -79q0 -12 -2 -26t-4 -30l-11 -66q-3 -22 -27 -22h-150q-22 0 -19 22l5 31q1 2 1 4.5v4.5q0 22 -28 22h-217q-24 0 -39.5 -2.5t-25.5 -9.5t-15 -19.5t-9 -32.5l-44 -250q-3 -17 -3 -27q0 -23 15 -30
t54 -7h217q34 0 38 31l6 31q3 22 27 22h150q22 0 19 -22l-12 -66q-8 -44 -17.5 -74t-29 -48.5t-53.5 -26.5t-91 -8h-393q-74 0 -109.5 26.5t-35.5 85.5q0 20 5 48zM521 820l-60 -50q-11 -8 -19.5 -13.5t-22.5 -5.5h-111q-10 0 -12 7.5t6 15.5l98 102q17 20 43 20h177
q14 0 22 -5t13 -15l62 -102q5 -8 0.5 -15.5t-14.5 -7.5h-103q-14 0 -21 5.5t-15 13.5z" />
    <glyph glyph-name="ccircumflex" unicode="&#x109;" horiz-adv-x="653" 
d="M68 383q7 37 16 64.5t27.5 44.5t49.5 25.5t81 8.5h277q63 0 92 -22t29 -72q0 -9 -1 -19.5t-3 -21.5l-8 -48q-3 -20 -25 -20h-135q-20 0 -17 20l1 7q1 5 1 6.5v3.5q0 20 -23 20h-119q-20 0 -32.5 -2t-20 -7.5t-11.5 -16t-7 -26.5l-23 -130q-3 -14 -3 -23q0 -18 11.5 -23.5
t43.5 -5.5h119q28 0 33 26l2 11q3 20 24 20h135q21 0 18 -20l-9 -48q-6 -36 -14 -61.5t-25.5 -42t-47 -24t-77.5 -7.5h-277q-66 0 -97 23.5t-31 76.5q0 10 1 20.5t3 22.5zM404 656l-60 -50q-11 -8 -19.5 -13.5t-22.5 -5.5h-111q-10 0 -12 7.5t6 15.5l98 102q17 20 43 20h177
q14 0 22 -5t13 -15l62 -102q5 -8 0.5 -15.5t-14.5 -7.5h-103q-14 0 -21 5.5t-15 13.5z" />
    <glyph glyph-name="Cdotaccent" unicode="&#x10a;" horiz-adv-x="817" 
d="M102 540q7 42 18 72t32.5 49.5t56 29t89.5 9.5h393q76 0 109 -22t33 -79q0 -12 -2 -26t-4 -30l-11 -66q-3 -22 -27 -22h-150q-22 0 -19 22l5 31q1 2 1 4.5v4.5q0 22 -28 22h-217q-24 0 -39.5 -2.5t-25.5 -9.5t-15 -19.5t-9 -32.5l-44 -250q-3 -17 -3 -27q0 -23 15 -30
t54 -7h217q34 0 38 31l6 31q3 22 27 22h150q22 0 19 -22l-12 -66q-8 -44 -17.5 -74t-29 -48.5t-53.5 -26.5t-91 -8h-393q-74 0 -109.5 26.5t-35.5 85.5q0 20 5 48zM445 870q2 10 9 15.5t17 5.5h118q21 0 18 -21l-16 -93q-5 -21 -26 -21h-118q-10 0 -15 5.5t-3 15.5z" />
    <glyph glyph-name="cdotaccent" unicode="&#x10b;" horiz-adv-x="653" 
d="M68 383q7 37 16 64.5t27.5 44.5t49.5 25.5t81 8.5h277q63 0 92 -22t29 -72q0 -9 -1 -19.5t-3 -21.5l-8 -48q-3 -20 -25 -20h-135q-20 0 -17 20l1 7q1 5 1 6.5v3.5q0 20 -23 20h-119q-20 0 -32.5 -2t-20 -7.5t-11.5 -16t-7 -26.5l-23 -130q-3 -14 -3 -23q0 -18 11.5 -23.5
t43.5 -5.5h119q28 0 33 26l2 11q3 20 24 20h135q21 0 18 -20l-9 -48q-6 -36 -14 -61.5t-25.5 -42t-47 -24t-77.5 -7.5h-277q-66 0 -97 23.5t-31 76.5q0 10 1 20.5t3 22.5zM328 706q2 10 9 15.5t17 5.5h118q21 0 18 -21l-16 -93q-5 -21 -26 -21h-118q-10 0 -15 5.5t-3 15.5z
" />
    <glyph glyph-name="Ccaron" unicode="&#x10c;" horiz-adv-x="817" 
d="M102 540q7 42 18 72t32.5 49.5t56 29t89.5 9.5h393q76 0 109 -22t33 -79q0 -12 -2 -26t-4 -30l-11 -66q-3 -22 -27 -22h-150q-22 0 -19 22l5 31q1 2 1 4.5v4.5q0 22 -28 22h-217q-24 0 -39.5 -2.5t-25.5 -9.5t-15 -19.5t-9 -32.5l-44 -250q-3 -17 -3 -27q0 -23 15 -30
t54 -7h217q34 0 38 31l6 31q3 22 27 22h150q22 0 19 -22l-12 -66q-8 -44 -17.5 -74t-29 -48.5t-53.5 -26.5t-91 -8h-393q-74 0 -109.5 26.5t-35.5 85.5q0 20 5 48zM575 877q11 8 20 13.5t23 5.5h111q10 0 11.5 -7.5t-5.5 -15.5l-98 -102q-18 -20 -43 -20h-177q-26 0 -35 20
l-62 102q-5 8 -0.5 15.5t14.5 7.5h103q14 0 20.5 -5.5t14.5 -13.5l42 -50z" />
    <glyph glyph-name="ccaron" unicode="&#x10d;" horiz-adv-x="653" 
d="M68 383q7 37 16 64.5t27.5 44.5t49.5 25.5t81 8.5h277q63 0 92 -22t29 -72q0 -9 -1 -19.5t-3 -21.5l-8 -48q-3 -20 -25 -20h-135q-20 0 -17 20l1 7q1 5 1 6.5v3.5q0 20 -23 20h-119q-20 0 -32.5 -2t-20 -7.5t-11.5 -16t-7 -26.5l-23 -130q-3 -14 -3 -23q0 -18 11.5 -23.5
t43.5 -5.5h119q28 0 33 26l2 11q3 20 24 20h135q21 0 18 -20l-9 -48q-6 -36 -14 -61.5t-25.5 -42t-47 -24t-77.5 -7.5h-277q-66 0 -97 23.5t-31 76.5q0 10 1 20.5t3 22.5zM458 713q11 8 20 13.5t23 5.5h111q10 0 11.5 -7.5t-5.5 -15.5l-98 -102q-18 -20 -43 -20h-177
q-26 0 -35 20l-62 102q-5 8 -0.5 15.5t14.5 7.5h103q14 0 20.5 -5.5t14.5 -13.5l42 -50z" />
    <glyph glyph-name="Dcaron" unicode="&#x10e;" horiz-adv-x="850" 
d="M795 211q-9 -50 -26.5 -89.5t-48 -66.5t-75.5 -41t-108 -14h-496q-23 0 -20 22l116 656q5 22 27 22h496q91 0 139.5 -42t48.5 -120q0 -26 -4 -49zM637 462q1 7 1.5 13t0.5 11q0 29 -19 41t-61 12h-244l-67 -378h244q51 0 74 17t31 60zM579 877q11 8 20 13.5t23 5.5h111
q10 0 11.5 -7.5t-5.5 -15.5l-98 -102q-18 -20 -43 -20h-177q-26 0 -35 20l-62 102q-5 8 -0.5 15.5t14.5 7.5h103q14 0 20.5 -5.5t14.5 -13.5l42 -50z" />
    <glyph glyph-name="dcaron" unicode="&#x10f;" horiz-adv-x="924" 
d="M421 86q-17 -43 -53 -64.5t-105 -21.5h-113q-66 0 -97 23.5t-31 76.5q0 10 1 20.5t3 22.5l42 240q7 37 16 64.5t27.5 44.5t49.5 25.5t81 8.5h104q100 0 120 -67l46 261q5 20 25 20h140q22 0 17 -20l-123 -700q-3 -20 -24 -20h-120q-21 0 -18 20zM441 315q1 5 1.5 9.5
t0.5 8.5q0 47 -62 47h-70q-20 0 -32.5 -2t-20 -7.5t-11.5 -16t-7 -26.5l-23 -130q-3 -14 -3 -23q0 -18 11.5 -23.5t43.5 -5.5h70q38 0 58 16.5t26 48.5zM820 384q-12 -15 -31 -15h-56q-8 0 -11.5 6.5t4.5 14.5l112 137h-76q-23 0 -20 22l23 129q5 22 27 22h166q24 0 19 -22
l-23 -129q-3 -22 -17 -37z" />
    <glyph glyph-name="Dcroat" unicode="&#x110;" horiz-adv-x="855" 
d="M800 211q-9 -50 -26.5 -89.5t-48 -66.5t-75.5 -41t-108 -14h-496q-23 0 -20 22l46 259h-37q-11 0 -16 5.5t-3 16.5l18 100q3 22 26 22h37l45 253q5 22 27 22h496q91 0 139.5 -42t48.5 -120q0 -26 -4 -49zM642 462q1 7 1.5 13t0.5 11q0 29 -19 41t-61 12h-244l-20 -114
h147q23 0 20 -22l-18 -100q-5 -22 -27 -22h-148l-21 -120h244q51 0 74 17t31 60z" />
    <glyph glyph-name="dcroat" unicode="&#x111;" horiz-adv-x="679" 
d="M421 86q-17 -43 -53 -64.5t-105 -21.5h-113q-66 0 -97 23.5t-31 76.5q0 10 1 20.5t3 22.5l42 240q7 37 16 64.5t27.5 44.5t49.5 25.5t81 8.5h104q100 0 120 -67l18 105h-108q-21 0 -18 20l12 66q3 20 25 20h108l9 50q5 20 25 20h140q22 0 17 -20l-9 -50h40q20 0 17 -20
l-12 -66q-3 -20 -24 -20h-40l-95 -544q-3 -20 -24 -20h-120q-21 0 -18 20zM441 315q1 5 1.5 9.5t0.5 8.5q0 47 -62 47h-70q-20 0 -32.5 -2t-20 -7.5t-11.5 -16t-7 -26.5l-23 -130q-3 -14 -3 -23q0 -18 11.5 -23.5t43.5 -5.5h70q38 0 58 16.5t26 48.5z" />
    <glyph glyph-name="Emacron" unicode="&#x112;" horiz-adv-x="810" 
d="M821 700q24 0 19 -22l-21 -117q-3 -22 -26 -22h-478l-20 -109h400q11 0 16 -5.5t3 -16.5l-19 -110q-2 -11 -9 -16.5t-18 -5.5h-400l-20 -115h478q22 0 19 -22l-21 -117q-3 -22 -26 -22h-657q-23 0 -20 22l116 656q5 22 27 22h657zM355 845q3 21 25 21h306q22 0 19 -21
l-13 -69q-3 -21 -25 -21h-306q-22 0 -19 21z" />
    <glyph glyph-name="emacron" unicode="&#x113;" horiz-adv-x="661" 
d="M68 383q7 37 16 64.5t27.5 44.5t49.5 25.5t81 8.5h277q63 0 92 -22t29 -72q0 -9 -1 -19.5t-3 -21.5l-26 -150q-3 -20 -25 -20h-364l-4 -25q-3 -15 -3 -24q0 -17 11.5 -22.5t43.5 -5.5h126q20 0 24 19l1 5q5 20 25 20h135q20 0 17 -20l-6 -33q-6 -36 -14 -61.5t-25.5 -42
t-47 -24t-77.5 -7.5h-277q-66 0 -97 23.5t-31 76.5q0 10 1 20.5t3 22.5zM311 382q-20 0 -32.5 -2t-20 -7.5t-11 -16t-6.5 -26.5l-5 -25h205l8 46q1 5 1 7v4q0 20 -23 20h-116zM231 681q3 21 25 21h306q22 0 19 -21l-13 -69q-3 -21 -25 -21h-306q-22 0 -19 21z" />
    <glyph glyph-name="Ebreve" unicode="&#x114;" horiz-adv-x="810" 
d="M821 700q24 0 19 -22l-21 -117q-3 -22 -26 -22h-478l-20 -109h400q11 0 16 -5.5t3 -16.5l-19 -110q-2 -11 -9 -16.5t-18 -5.5h-400l-20 -115h478q22 0 19 -22l-21 -117q-3 -22 -26 -22h-657q-23 0 -20 22l116 656q5 22 27 22h657zM469 896q18 0 18 -17q0 -2 -0.5 -4.5
t-0.5 -4.5q0 -13 13.5 -17.5t30.5 -4.5q18 0 34 5.5t19 21.5q2 10 9 15.5t17 5.5h78q21 0 18 -21q-10 -73 -57 -104t-127 -31q-72 0 -115.5 24.5t-43.5 81.5q0 14 3 29q3 21 26 21h78z" />
    <glyph glyph-name="ebreve" unicode="&#x115;" horiz-adv-x="661" 
d="M68 383q7 37 16 64.5t27.5 44.5t49.5 25.5t81 8.5h277q63 0 92 -22t29 -72q0 -9 -1 -19.5t-3 -21.5l-26 -150q-3 -20 -25 -20h-364l-4 -25q-3 -15 -3 -24q0 -17 11.5 -22.5t43.5 -5.5h126q20 0 24 19l1 5q5 20 25 20h135q20 0 17 -20l-6 -33q-6 -36 -14 -61.5t-25.5 -42
t-47 -24t-77.5 -7.5h-277q-66 0 -97 23.5t-31 76.5q0 10 1 20.5t3 22.5zM311 382q-20 0 -32.5 -2t-20 -7.5t-11 -16t-6.5 -26.5l-5 -25h205l8 46q1 5 1 7v4q0 20 -23 20h-116zM345 732q18 0 18 -17q0 -2 -0.5 -4.5t-0.5 -4.5q0 -13 13.5 -17.5t30.5 -4.5q18 0 34 5.5
t19 21.5q2 10 9 15.5t17 5.5h78q21 0 18 -21q-10 -73 -57 -104t-127 -31q-72 0 -115.5 24.5t-43.5 81.5q0 14 3 29q3 21 26 21h78z" />
    <glyph glyph-name="Edotaccent" unicode="&#x116;" horiz-adv-x="810" 
d="M821 700q24 0 19 -22l-21 -117q-3 -22 -26 -22h-478l-20 -109h400q11 0 16 -5.5t3 -16.5l-19 -110q-2 -11 -9 -16.5t-18 -5.5h-400l-20 -115h478q22 0 19 -22l-21 -117q-3 -22 -26 -22h-657q-23 0 -20 22l116 656q5 22 27 22h657zM453 870q2 10 9 15.5t17 5.5h118
q21 0 18 -21l-16 -93q-5 -21 -26 -21h-118q-10 0 -15 5.5t-3 15.5z" />
    <glyph glyph-name="edotaccent" unicode="&#x117;" horiz-adv-x="661" 
d="M68 383q7 37 16 64.5t27.5 44.5t49.5 25.5t81 8.5h277q63 0 92 -22t29 -72q0 -9 -1 -19.5t-3 -21.5l-26 -150q-3 -20 -25 -20h-364l-4 -25q-3 -15 -3 -24q0 -17 11.5 -22.5t43.5 -5.5h126q20 0 24 19l1 5q5 20 25 20h135q20 0 17 -20l-6 -33q-6 -36 -14 -61.5t-25.5 -42
t-47 -24t-77.5 -7.5h-277q-66 0 -97 23.5t-31 76.5q0 10 1 20.5t3 22.5zM311 382q-20 0 -32.5 -2t-20 -7.5t-11 -16t-6.5 -26.5l-5 -25h205l8 46q1 5 1 7v4q0 20 -23 20h-116zM329 706q2 10 9 15.5t17 5.5h118q21 0 18 -21l-16 -93q-5 -21 -26 -21h-118q-10 0 -15 5.5
t-3 15.5z" />
    <glyph glyph-name="Eogonek" unicode="&#x118;" horiz-adv-x="810" 
d="M557 -204q-60 0 -85 22t-25 54q0 41 26 76t63 52h-495q-23 0 -20 22l116 656q5 22 27 22h657q24 0 19 -22l-21 -117q-3 -22 -26 -22h-478l-20 -109h400q11 0 16 -5.5t3 -16.5l-19 -110q-2 -11 -9 -16.5t-18 -5.5h-400l-20 -115h478q22 0 19 -22l-21 -117q-3 -22 -26 -22
h-83q-34 -17 -46 -32t-12 -29q0 -23 33 -23h94q21 0 18 -21l-14 -78q-3 -21 -25 -21h-106z" />
    <glyph glyph-name="eogonek" unicode="&#x119;" horiz-adv-x="661" 
d="M68 383q7 37 16 64.5t27.5 44.5t49.5 25.5t81 8.5h277q63 0 92 -22t29 -72q0 -9 -1 -19.5t-3 -21.5l-26 -150q-3 -20 -25 -20h-364l-4 -25q-3 -15 -3 -24q0 -17 11.5 -22.5t43.5 -5.5h126q20 0 24 19l1 5q5 20 25 20h135q20 0 17 -20l-6 -33q-6 -35 -14 -60.5t-25 -42
t-45.5 -24.5t-74.5 -8q-35 -17 -46.5 -32t-11.5 -29q0 -23 33 -23h94q21 0 18 -21l-14 -78q-3 -21 -25 -21h-106q-60 0 -85 22t-25 54q0 41 26 76t63 52h-203q-66 0 -97 23.5t-31 76.5q0 10 1 20.5t3 22.5zM311 382q-20 0 -32.5 -2t-20 -7.5t-11 -16t-6.5 -26.5l-5 -25h205
l8 46q1 5 1 7v4q0 20 -23 20h-116z" />
    <glyph glyph-name="Ecaron" unicode="&#x11a;" horiz-adv-x="810" 
d="M821 700q24 0 19 -22l-21 -117q-3 -22 -26 -22h-478l-20 -109h400q11 0 16 -5.5t3 -16.5l-19 -110q-2 -11 -9 -16.5t-18 -5.5h-400l-20 -115h478q22 0 19 -22l-21 -117q-3 -22 -26 -22h-657q-23 0 -20 22l116 656q5 22 27 22h657zM582 877q11 8 20 13.5t23 5.5h111
q10 0 11.5 -7.5t-5.5 -15.5l-98 -102q-18 -20 -43 -20h-177q-26 0 -35 20l-62 102q-5 8 -0.5 15.5t14.5 7.5h103q14 0 20.5 -5.5t14.5 -13.5l42 -50z" />
    <glyph glyph-name="ecaron" unicode="&#x11b;" horiz-adv-x="661" 
d="M68 383q7 37 16 64.5t27.5 44.5t49.5 25.5t81 8.5h277q63 0 92 -22t29 -72q0 -9 -1 -19.5t-3 -21.5l-26 -150q-3 -20 -25 -20h-364l-4 -25q-3 -15 -3 -24q0 -17 11.5 -22.5t43.5 -5.5h126q20 0 24 19l1 5q5 20 25 20h135q20 0 17 -20l-6 -33q-6 -36 -14 -61.5t-25.5 -42
t-47 -24t-77.5 -7.5h-277q-66 0 -97 23.5t-31 76.5q0 10 1 20.5t3 22.5zM311 382q-20 0 -32.5 -2t-20 -7.5t-11 -16t-6.5 -26.5l-5 -25h205l8 46q1 5 1 7v4q0 20 -23 20h-116zM459 713q11 8 20 13.5t23 5.5h111q10 0 11.5 -7.5t-5.5 -15.5l-98 -102q-18 -20 -43 -20h-177
q-26 0 -35 20l-62 102q-5 8 -0.5 15.5t14.5 7.5h103q14 0 20.5 -5.5t14.5 -13.5l42 -50z" />
    <glyph glyph-name="Gcircumflex" unicode="&#x11c;" horiz-adv-x="852" 
d="M381 539q-24 0 -39.5 -2.5t-25.5 -9.5t-15 -19.5t-9 -32.5l-44 -250q-3 -17 -3 -27q0 -23 15 -30t54 -7h238q34 0 38 31l11 59h-144q-24 0 -19 22l19 110q5 22 27 22h317q24 0 19 -22l-40 -226q-8 -44 -17.5 -74t-29 -48.5t-53.5 -26.5t-91 -8h-414q-74 0 -109.5 26.5
t-35.5 85.5q0 20 5 48l67 380q7 42 18 72t32.5 49.5t56 29t89.5 9.5h414q76 0 109 -22t33 -79q0 -25 -6 -56l-10 -56q-3 -22 -27 -22h-150q-24 0 -19 22l4 21q1 2 1 4.5v4.5q0 22 -28 22h-238zM531 820l-60 -50q-11 -8 -19.5 -13.5t-22.5 -5.5h-111q-10 0 -12 7.5t6 15.5
l98 102q17 20 43 20h177q14 0 22 -5t13 -15l62 -102q5 -8 0.5 -15.5t-14.5 -7.5h-103q-14 0 -21 5.5t-15 13.5z" />
    <glyph glyph-name="gcircumflex" unicode="&#x11d;" horiz-adv-x="673" 
d="M161 -37q22 0 17 -20v-3q0 -13 15 -13h122q35 0 48.5 11t18.5 41l13 76q-19 -27 -52 -41t-89 -14h-104q-66 0 -97 23.5t-31 76.5q0 10 1 20.5t3 22.5l42 240q7 37 16 64.5t27.5 44.5t49.5 25.5t81 8.5h113q63 0 93.5 -25t32.5 -75l14 80q3 20 24 20h120q21 0 18 -20
l-97 -548q-7 -40 -19 -70.5t-34 -50.5t-56.5 -30.5t-87.5 -10.5h-247q-63 0 -92 22.5t-29 72.5q0 20 4 40l2 12q5 20 25 20h135zM339 146q38 0 58 16.5t26 48.5l18 104q1 5 1.5 9.5t0.5 8.5q0 47 -62 47h-70q-20 0 -32.5 -2t-20 -7.5t-11.5 -16t-7 -26.5l-23 -130
q-3 -14 -3 -23q0 -18 11.5 -23.5t43.5 -5.5h70zM405 656l-60 -50q-11 -8 -19.5 -13.5t-22.5 -5.5h-111q-10 0 -12 7.5t6 15.5l98 102q17 20 43 20h177q14 0 22 -5t13 -15l62 -102q5 -8 0.5 -15.5t-14.5 -7.5h-103q-14 0 -21 5.5t-15 13.5z" />
    <glyph glyph-name="Gbreve" unicode="&#x11e;" horiz-adv-x="852" 
d="M381 539q-24 0 -39.5 -2.5t-25.5 -9.5t-15 -19.5t-9 -32.5l-44 -250q-3 -17 -3 -27q0 -23 15 -30t54 -7h238q34 0 38 31l11 59h-144q-24 0 -19 22l19 110q5 22 27 22h317q24 0 19 -22l-40 -226q-8 -44 -17.5 -74t-29 -48.5t-53.5 -26.5t-91 -8h-414q-74 0 -109.5 26.5
t-35.5 85.5q0 20 5 48l67 380q7 42 18 72t32.5 49.5t56 29t89.5 9.5h414q76 0 109 -22t33 -79q0 -25 -6 -56l-10 -56q-3 -22 -27 -22h-150q-24 0 -19 22l4 21q1 2 1 4.5v4.5q0 22 -28 22h-238zM471 896q18 0 18 -17q0 -2 -0.5 -4.5t-0.5 -4.5q0 -13 13.5 -17.5t30.5 -4.5
q18 0 34 5.5t19 21.5q2 10 9 15.5t17 5.5h78q21 0 18 -21q-10 -73 -57 -104t-127 -31q-72 0 -115.5 24.5t-43.5 81.5q0 14 3 29q3 21 26 21h78z" />
    <glyph glyph-name="gbreve" unicode="&#x11f;" horiz-adv-x="673" 
d="M161 -37q22 0 17 -20v-3q0 -13 15 -13h122q35 0 48.5 11t18.5 41l13 76q-19 -27 -52 -41t-89 -14h-104q-66 0 -97 23.5t-31 76.5q0 10 1 20.5t3 22.5l42 240q7 37 16 64.5t27.5 44.5t49.5 25.5t81 8.5h113q63 0 93.5 -25t32.5 -75l14 80q3 20 24 20h120q21 0 18 -20
l-97 -548q-7 -40 -19 -70.5t-34 -50.5t-56.5 -30.5t-87.5 -10.5h-247q-63 0 -92 22.5t-29 72.5q0 20 4 40l2 12q5 20 25 20h135zM339 146q38 0 58 16.5t26 48.5l18 104q1 5 1.5 9.5t0.5 8.5q0 47 -62 47h-70q-20 0 -32.5 -2t-20 -7.5t-11.5 -16t-7 -26.5l-23 -130
q-3 -14 -3 -23q0 -18 11.5 -23.5t43.5 -5.5h70zM345 732q18 0 18 -17q0 -2 -0.5 -4.5t-0.5 -4.5q0 -13 13.5 -17.5t30.5 -4.5q18 0 34 5.5t19 21.5q2 10 9 15.5t17 5.5h78q21 0 18 -21q-10 -73 -57 -104t-127 -31q-72 0 -115.5 24.5t-43.5 81.5q0 14 3 29q3 21 26 21h78z
" />
    <glyph glyph-name="Gdotaccent" unicode="&#x120;" horiz-adv-x="852" 
d="M381 539q-24 0 -39.5 -2.5t-25.5 -9.5t-15 -19.5t-9 -32.5l-44 -250q-3 -17 -3 -27q0 -23 15 -30t54 -7h238q34 0 38 31l11 59h-144q-24 0 -19 22l19 110q5 22 27 22h317q24 0 19 -22l-40 -226q-8 -44 -17.5 -74t-29 -48.5t-53.5 -26.5t-91 -8h-414q-74 0 -109.5 26.5
t-35.5 85.5q0 20 5 48l67 380q7 42 18 72t32.5 49.5t56 29t89.5 9.5h414q76 0 109 -22t33 -79q0 -25 -6 -56l-10 -56q-3 -22 -27 -22h-150q-24 0 -19 22l4 21q1 2 1 4.5v4.5q0 22 -28 22h-238zM455 870q2 10 9 15.5t17 5.5h118q21 0 18 -21l-16 -93q-5 -21 -26 -21h-118
q-10 0 -15 5.5t-3 15.5z" />
    <glyph glyph-name="gdotaccent" unicode="&#x121;" horiz-adv-x="673" 
d="M161 -37q22 0 17 -20v-3q0 -13 15 -13h122q35 0 48.5 11t18.5 41l13 76q-19 -27 -52 -41t-89 -14h-104q-66 0 -97 23.5t-31 76.5q0 10 1 20.5t3 22.5l42 240q7 37 16 64.5t27.5 44.5t49.5 25.5t81 8.5h113q63 0 93.5 -25t32.5 -75l14 80q3 20 24 20h120q21 0 18 -20
l-97 -548q-7 -40 -19 -70.5t-34 -50.5t-56.5 -30.5t-87.5 -10.5h-247q-63 0 -92 22.5t-29 72.5q0 20 4 40l2 12q5 20 25 20h135zM339 146q38 0 58 16.5t26 48.5l18 104q1 5 1.5 9.5t0.5 8.5q0 47 -62 47h-70q-20 0 -32.5 -2t-20 -7.5t-11.5 -16t-7 -26.5l-23 -130
q-3 -14 -3 -23q0 -18 11.5 -23.5t43.5 -5.5h70zM329 706q2 10 9 15.5t17 5.5h118q21 0 18 -21l-16 -93q-5 -21 -26 -21h-118q-10 0 -15 5.5t-3 15.5z" />
    <glyph glyph-name="Gcommaaccent" unicode="&#x122;" horiz-adv-x="852" 
d="M381 539q-24 0 -39.5 -2.5t-25.5 -9.5t-15 -19.5t-9 -32.5l-44 -250q-3 -17 -3 -27q0 -23 15 -30t54 -7h238q34 0 38 31l11 59h-144q-24 0 -19 22l19 110q5 22 27 22h317q24 0 19 -22l-40 -226q-8 -44 -17.5 -74t-29 -48.5t-53.5 -26.5t-91 -8h-414q-74 0 -109.5 26.5
t-35.5 85.5q0 20 5 48l67 380q7 42 18 72t32.5 49.5t56 29t89.5 9.5h414q76 0 109 -22t33 -79q0 -25 -6 -56l-10 -56q-3 -22 -27 -22h-150q-24 0 -19 22l4 21q1 2 1 4.5v4.5q0 22 -28 22h-238zM341 -160h-53q-21 0 -18 21l12 66q3 21 25 21h134q22 0 19 -21l-12 -66
q-2 -10 -7.5 -19.5t-12.5 -16.5l-58 -50q-16 -13 -32 -13h-58q-8 0 -10.5 6.5t5.5 12.5z" />
    <glyph glyph-name="gcommaaccent" unicode="&#x123;" horiz-adv-x="673" 
d="M421 700h55q23 0 18 -21l-11 -66q-5 -21 -26 -21h-134q-23 0 -18 21l11 66q5 22 21 36l58 50q16 13 33 13h55q8 0 10 -6.5t-6 -12.5zM161 -37q22 0 17 -20v-3q0 -13 15 -13h122q35 0 48.5 11t18.5 41l13 76q-19 -27 -52 -41t-89 -14h-104q-66 0 -97 23.5t-31 76.5
q0 10 1 20.5t3 22.5l42 240q7 37 16 64.5t27.5 44.5t49.5 25.5t81 8.5h113q63 0 93.5 -25t32.5 -75l14 80q3 20 24 20h120q21 0 18 -20l-97 -548q-7 -40 -19 -70.5t-34 -50.5t-56.5 -30.5t-87.5 -10.5h-247q-63 0 -92 22.5t-29 72.5q0 20 4 40l2 12q5 20 25 20h135zM339 146
q38 0 58 16.5t26 48.5l18 104q1 5 1.5 9.5t0.5 8.5q0 47 -62 47h-70q-20 0 -32.5 -2t-20 -7.5t-11.5 -16t-7 -26.5l-23 -130q-3 -14 -3 -23q0 -18 11.5 -23.5t43.5 -5.5h70z" />
    <glyph glyph-name="Hcircumflex" unicode="&#x124;" horiz-adv-x="873" 
d="M766 22q-3 -22 -26 -22h-156q-23 0 -20 22l45 251h-341l-45 -251q-3 -22 -27 -22h-155q-23 0 -20 22l116 656q5 22 27 22h155q25 0 20 -22l-43 -244h341l43 244q5 22 27 22h156q24 0 19 -22zM537 820l-60 -50q-11 -8 -19.5 -13.5t-22.5 -5.5h-111q-10 0 -12 7.5t6 15.5
l98 102q17 20 43 20h177q14 0 22 -5t13 -15l62 -102q5 -8 0.5 -15.5t-14.5 -7.5h-103q-14 0 -21 5.5t-15 13.5z" />
    <glyph glyph-name="hcircumflex" unicode="&#x125;" 
d="M336 380q-39 0 -59 -16.5t-26 -48.5l-52 -295q-3 -20 -24 -20h-140q-21 0 -18 20l123 700q5 20 25 20h140q22 0 17 -20l-44 -252q19 29 52.5 43.5t90.5 14.5h87q66 0 97 -24t31 -76q0 -10 -1 -20.5t-3 -22.5l-64 -363q-3 -20 -24 -20h-140q-21 0 -18 20l54 308q3 15 3 24
q0 17 -11.5 22.5t-42.5 5.5h-53zM260 849l-60 -50q-11 -8 -19.5 -13.5t-22.5 -5.5h-111q-10 0 -12 7.5t6 15.5l98 102q17 20 43 20h177q14 0 22 -5t13 -15l62 -102q5 -8 0.5 -15.5t-14.5 -7.5h-103q-14 0 -21 5.5t-15 13.5z" />
    <glyph glyph-name="Hbar" unicode="&#x126;" horiz-adv-x="883" 
d="M876 621h39q21 0 18 -20l-13 -74q-3 -20 -24 -20h-40l-85 -485q-3 -22 -26 -22h-156q-23 0 -20 22l45 251h-341l-45 -251q-3 -22 -27 -22h-155q-23 0 -20 22l85 485h-38q-21 0 -18 20l13 74q3 20 24 20h39l11 57q5 22 27 22h155q25 0 20 -22l-11 -57h341l11 57
q5 22 27 22h156q24 0 19 -22zM642 434l12 73h-341l-12 -73h341z" />
    <glyph glyph-name="hbar" unicode="&#x127;" horiz-adv-x="669" 
d="M341 380q-39 0 -59 -16.5t-26 -48.5l-52 -295q-3 -20 -24 -20h-140q-21 0 -18 20l95 544h-38q-21 0 -18 20l12 66q3 20 25 20h38l9 50q5 20 25 20h140q22 0 17 -20l-9 -50h110q20 0 17 -20l-12 -66q-3 -20 -24 -20h-109l-17 -96q19 29 52.5 43.5t90.5 14.5h87
q66 0 97 -24t31 -76q0 -10 -1 -20.5t-3 -22.5l-64 -363q-3 -20 -24 -20h-140q-21 0 -18 20l54 308q3 15 3 24q0 17 -11.5 22.5t-42.5 5.5h-53z" />
    <glyph glyph-name="Itilde" unicode="&#x128;" horiz-adv-x="329" 
d="M223 22q-3 -22 -27 -22h-155q-23 0 -20 22l116 656q5 22 27 22h155q25 0 20 -22zM341 866q26 0 32 21q5 19 24 19h58q20 0 17 -19q-13 -74 -50.5 -107t-88.5 -33q-32 0 -53.5 7t-37.5 15t-28.5 15t-25.5 7q-27 0 -33 -21q-5 -19 -24 -19h-58q-20 0 -17 19q14 74 51 107
t88 33q32 0 53.5 -7t37.5 -15t28.5 -15t26.5 -7z" />
    <glyph glyph-name="itilde" unicode="&#x129;" horiz-adv-x="302" 
d="M298 702q26 0 32 21q5 19 24 19h58q20 0 17 -19q-13 -74 -50.5 -107t-88.5 -33q-32 0 -53.5 7t-37.5 15t-28.5 15t-25.5 7q-27 0 -33 -21q-5 -19 -24 -19h-58q-20 0 -17 19q14 74 51 107t88 33q32 0 53.5 -7t37.5 -15t28.5 -15t26.5 -7zM199 20q-3 -20 -24 -20h-140
q-21 0 -18 20l86 486q3 20 24 20h140q21 0 18 -20z" />
    <glyph glyph-name="Imacron" unicode="&#x12a;" horiz-adv-x="329" 
d="M223 22q-3 -22 -27 -22h-155q-23 0 -20 22l116 656q5 22 27 22h155q25 0 20 -22zM92 845q3 21 25 21h306q22 0 19 -21l-13 -69q-3 -21 -25 -21h-306q-22 0 -19 21z" />
    <glyph glyph-name="imacron" unicode="&#x12b;" horiz-adv-x="302" 
d="M70 681q3 21 25 21h266q22 0 19 -21l-13 -69q-3 -21 -25 -21h-266q-22 0 -19 21zM199 20q-3 -20 -24 -20h-140q-21 0 -18 20l86 486q3 20 24 20h140q21 0 18 -20z" />
    <glyph glyph-name="Ibreve" unicode="&#x12c;" horiz-adv-x="329" 
d="M223 22q-3 -22 -27 -22h-155q-23 0 -20 22l116 656q5 22 27 22h155q25 0 20 -22zM206 896q18 0 18 -17q0 -2 -0.5 -4.5t-0.5 -4.5q0 -13 13.5 -17.5t30.5 -4.5q18 0 34 5.5t19 21.5q2 10 9 15.5t17 5.5h78q21 0 18 -21q-10 -73 -57 -104t-127 -31q-72 0 -115.5 24.5
t-43.5 81.5q0 14 3 29q3 21 26 21h78z" />
    <glyph glyph-name="ibreve" unicode="&#x12d;" horiz-adv-x="302" 
d="M164 732q18 0 18 -17q0 -2 -0.5 -4.5t-0.5 -4.5q0 -13 13.5 -17.5t30.5 -4.5q18 0 34 5.5t19 21.5q2 10 9 15.5t17 5.5h78q21 0 18 -21q-10 -73 -57 -104t-127 -31q-72 0 -115.5 24.5t-43.5 81.5q0 14 3 29q3 21 26 21h78zM199 20q-3 -20 -24 -20h-140q-21 0 -18 20
l86 486q3 20 24 20h140q21 0 18 -20z" />
    <glyph glyph-name="Iogonek" unicode="&#x12e;" horiz-adv-x="329" 
d="M223 22q-3 -22 -27 -22h-82q-34 -17 -46 -32t-12 -29q0 -23 33 -23h94q21 0 18 -21l-14 -78q-3 -21 -25 -21h-106q-59 0 -84 22t-25 54q0 40 25 75.5t63 52.5q-17 3 -14 22l116 656q5 22 27 22h155q25 0 20 -22z" />
    <glyph glyph-name="iogonek" unicode="&#x12f;" horiz-adv-x="302" 
d="M199 20q-3 -20 -24 -20h-75q-34 -17 -46 -32t-12 -29q0 -23 33 -23h94q21 0 18 -21l-14 -78q-3 -21 -25 -21h-106q-59 0 -84 22t-25 54q0 20 7 39.5t19 36.5t28.5 30.5t36.5 22.5q-10 5 -7 19l86 486q3 20 24 20h140q21 0 18 -20z" />
    <glyph glyph-name="Idotaccent" unicode="&#x130;" horiz-adv-x="329" 
d="M223 22q-3 -22 -27 -22h-155q-23 0 -20 22l116 656q5 22 27 22h155q25 0 20 -22zM189 870q2 10 9 15.5t17 5.5h118q21 0 18 -21l-16 -93q-5 -21 -26 -21h-118q-10 0 -15 5.5t-3 15.5z" />
    <glyph glyph-name="dotlessi" unicode="&#x131;" horiz-adv-x="302" 
d="M199 20q-3 -20 -24 -20h-140q-21 0 -18 20l86 486q3 20 24 20h140q21 0 18 -20z" />
    <glyph glyph-name="Jcircumflex" unicode="&#x134;" horiz-adv-x="751" 
d="M22 273q3 22 27 22h156q22 0 19 -22l-10 -54q-3 -15 -3 -25q0 -20 13.5 -26.5t48.5 -6.5h123q24 0 39.5 2.5t25 9.5t14.5 19.5t8 32.5l80 453q5 22 27 22h156q11 0 16 -5.5t3 -16.5l-91 -518q-8 -42 -19 -72.5t-32 -50t-55.5 -28.5t-89.5 -9h-336q-75 0 -110 26.5
t-35 85.5q0 11 1.5 22.5t3.5 25.5zM693 820l-60 -50q-11 -8 -19.5 -13.5t-22.5 -5.5h-111q-10 0 -12 7.5t6 15.5l98 102q17 20 43 20h177q14 0 22 -5t13 -15l62 -102q5 -8 0.5 -15.5t-14.5 -7.5h-103q-14 0 -21 5.5t-15 13.5z" />
    <glyph glyph-name="jcircumflex" unicode="&#x135;" horiz-adv-x="306" 
d="M-69 -204q-21 0 -18 20l16 91q3 20 25 20h24q22 0 27 22l98 557q3 20 24 20h140q21 0 18 -20l-102 -577q-6 -36 -17 -61t-29 -41t-46 -23.5t-69 -7.5h-91zM225 656l-60 -50q-11 -8 -19.5 -13.5t-22.5 -5.5h-111q-10 0 -12 7.5t6 15.5l98 102q17 20 43 20h177q14 0 22 -5
t13 -15l62 -102q5 -8 0.5 -15.5t-14.5 -7.5h-103q-14 0 -21 5.5t-15 13.5z" />
    <glyph glyph-name="Kcommaaccent" unicode="&#x136;" horiz-adv-x="849" 
d="M556 353l235 -331q5 -7 1 -14.5t-13 -7.5h-185q-12 0 -19 3.5t-14 13.5l-178 259h-115l-45 -254q-3 -22 -27 -22h-155q-23 0 -20 22l116 656q5 22 27 22h155q25 0 20 -22l-43 -244h100l258 249q10 10 18 13.5t20 3.5h204q8 0 10 -7t-6 -15zM316 -160h-53q-21 0 -18 21
l12 66q3 21 25 21h134q22 0 19 -21l-12 -66q-2 -10 -7.5 -19.5t-12.5 -16.5l-58 -50q-16 -13 -32 -13h-58q-8 0 -10.5 6.5t5.5 12.5z" />
    <glyph glyph-name="kcommaaccent" unicode="&#x137;" horiz-adv-x="652" 
d="M289 195h-59l-31 -175q-3 -20 -24 -20h-140q-21 0 -18 20l123 700q5 20 25 20h140q22 0 17 -20l-68 -389h38l175 180q8 8 14.5 11.5t17.5 3.5h176q8 0 10 -6.5t-5 -13.5l-241 -240l160 -246q5 -7 1 -13.5t-12 -6.5h-158q-11 0 -17.5 3t-11.5 12zM252 -160h-53
q-21 0 -18 21l12 66q3 21 25 21h134q22 0 19 -21l-12 -66q-2 -10 -7.5 -19.5t-12.5 -16.5l-58 -50q-16 -13 -32 -13h-58q-8 0 -10.5 6.5t5.5 12.5z" />
    <glyph glyph-name="kgreenlandic" unicode="&#x138;" horiz-adv-x="652" 
d="M289 195h-59l-31 -175q-3 -20 -24 -20h-140q-21 0 -18 20l86 486q3 20 24 20h140q21 0 18 -20l-31 -175h38l175 180q8 8 14.5 11.5t17.5 3.5h176q8 0 10 -6.5t-5 -13.5l-241 -240l160 -246q5 -7 1 -13.5t-12 -6.5h-158q-11 0 -17.5 3t-11.5 12z" />
    <glyph glyph-name="Lacute" unicode="&#x139;" horiz-adv-x="740" 
d="M248 161h437q22 0 19 -22l-21 -117q-3 -22 -26 -22h-616q-23 0 -20 22l116 656q5 22 27 22h155q25 0 20 -22zM363 771q-10 -8 -21 -14t-26 -6h-106q-9 0 -12.5 7t4.5 16l90 102q18 20 43 20h147q9 0 12 -8t-7 -16z" />
    <glyph glyph-name="lacute" unicode="&#x13a;" horiz-adv-x="322" 
d="M132 720q5 20 25 20h140q22 0 17 -20l-96 -548q-1 -3 -1 -5.5v-3.5q0 -17 19 -17h25q21 0 18 -20l-19 -106q-3 -20 -24 -20h-91q-63 0 -91.5 21t-28.5 70q0 9 1 19.5t3 22.5zM294 800q-10 -8 -21 -14t-26 -6h-106q-9 0 -12.5 7t4.5 16l90 102q18 20 43 20h147q9 0 12 -8
t-7 -16z" />
    <glyph glyph-name="Lcommaaccent" unicode="&#x13b;" horiz-adv-x="740" 
d="M248 161h437q22 0 19 -22l-21 -117q-3 -22 -26 -22h-616q-23 0 -20 22l116 656q5 22 27 22h155q25 0 20 -22zM291 -160h-53q-21 0 -18 21l12 66q3 21 25 21h134q22 0 19 -21l-12 -66q-2 -10 -7.5 -19.5t-12.5 -16.5l-58 -50q-16 -13 -32 -13h-58q-8 0 -10.5 6.5t5.5 12.5
z" />
    <glyph glyph-name="lcommaaccent" unicode="&#x13c;" horiz-adv-x="322" 
d="M132 720q5 20 25 20h140q22 0 17 -20l-96 -548q-1 -3 -1 -5.5v-3.5q0 -17 19 -17h25q21 0 18 -20l-19 -106q-3 -20 -24 -20h-91q-63 0 -91.5 21t-28.5 70q0 9 1 19.5t3 22.5zM88 -160h-53q-21 0 -18 21l12 66q3 21 25 21h134q22 0 19 -21l-12 -66q-2 -10 -7.5 -19.5
t-12.5 -16.5l-58 -50q-16 -13 -32 -13h-58q-8 0 -10.5 6.5t5.5 12.5z" />
    <glyph glyph-name="Lcaron" unicode="&#x13d;" horiz-adv-x="740" 
d="M248 161h437q22 0 19 -22l-21 -117q-3 -22 -26 -22h-616q-23 0 -20 22l116 656q5 22 27 22h155q25 0 20 -22zM492 384q-12 -15 -31 -15h-56q-8 0 -11.5 6.5t4.5 14.5l112 137h-76q-23 0 -20 22l23 129q5 22 27 22h166q24 0 19 -22l-23 -129q-3 -22 -17 -37z" />
    <glyph glyph-name="lcaron" unicode="&#x13e;" horiz-adv-x="545" 
d="M132 720q5 20 25 20h140q22 0 17 -20l-96 -548q-1 -3 -1 -5.5v-3.5q0 -17 19 -17h25q21 0 18 -20l-19 -106q-3 -20 -24 -20h-91q-63 0 -91.5 21t-28.5 70q0 9 1 19.5t3 22.5zM441 384q-12 -15 -31 -15h-56q-8 0 -11.5 6.5t4.5 14.5l112 137h-76q-23 0 -20 22l23 129
q5 22 27 22h166q24 0 19 -22l-23 -129q-3 -22 -17 -37z" />
    <glyph glyph-name="Ldot" unicode="&#x13f;" horiz-adv-x="740" 
d="M248 161h437q22 0 19 -22l-21 -117q-3 -22 -26 -22h-616q-23 0 -20 22l116 656q5 22 27 22h155q25 0 20 -22zM469 494q5 22 27 22h166q24 0 19 -22l-23 -129q-3 -22 -26 -22h-166q-23 0 -20 22z" />
    <glyph glyph-name="ldot" unicode="&#x140;" horiz-adv-x="524" 
d="M351 465q5 22 27 22h136q24 0 19 -22l-23 -129q-3 -22 -26 -22h-136q-23 0 -20 22zM132 720q5 20 25 20h140q22 0 17 -20l-96 -548q-1 -3 -1 -5.5v-3.5q0 -17 19 -17h25q21 0 18 -20l-19 -106q-3 -20 -24 -20h-91q-63 0 -91.5 21t-28.5 70q0 9 1 19.5t3 22.5z" />
    <glyph glyph-name="Lslash" unicode="&#x141;" horiz-adv-x="745" 
d="M307 471l264 132q8 5 14.5 1.5t4.5 -13.5l-27 -147q-3 -20 -21 -28l-268 -134l-21 -121h437q22 0 19 -22l-21 -117q-3 -22 -26 -22h-616q-23 0 -20 22l26 149l-42 -21q-8 -5 -14.5 -1.5t-4.5 13.5l26 147q4 20 22 28l47 23l56 318q5 22 27 22h155q25 0 20 -22z" />
    <glyph glyph-name="lslash" unicode="&#x142;" horiz-adv-x="355" 
d="M73 257l-47 -28q-8 -5 -14.5 -2.5t-4.5 12.5l19 105q4 20 22 30l51 30l56 316q5 20 25 20h140q22 0 17 -20l-35 -198l54 32q8 5 14.5 2.5t4.5 -12.5l-19 -105q-3 -20 -22 -30l-58 -34l-35 -203q-1 -3 -1 -5.5v-3.5q0 -17 19 -17h25q21 0 18 -20l-19 -106q-3 -20 -24 -20
h-91q-63 0 -91.5 21t-28.5 70q0 9 1 19.5t3 22.5z" />
    <glyph glyph-name="Nacute" unicode="&#x143;" horiz-adv-x="890" 
d="M505 0q-25 0 -29 18l-179 522l-92 -518q-3 -22 -26 -22h-140q-23 0 -20 22l116 656q5 22 27 22h254q23 0 29 -18l179 -523l91 519q5 22 28 22h139q24 0 19 -22l-116 -656q-3 -22 -26 -22h-254zM590 771q-10 -8 -21 -14t-26 -6h-106q-9 0 -12.5 7t4.5 16l90 102
q18 20 43 20h147q9 0 12 -8t-7 -16z" />
    <glyph glyph-name="nacute" unicode="&#x144;" 
d="M253 437q9 22 21.5 38.5t31.5 27.5t45 17t61 6h96q66 0 97 -24t31 -76q0 -10 -1 -20.5t-3 -22.5l-64 -363q-3 -20 -24 -20h-140q-21 0 -18 20l54 308q3 15 3 24q0 17 -11.5 22.5t-42.5 5.5h-53q-39 0 -59 -16.5t-26 -48.5l-52 -295q-3 -20 -24 -20h-140q-21 0 -18 20
l86 486q3 20 24 20h120q21 0 18 -20zM451 607q-10 -8 -21 -14t-26 -6h-106q-9 0 -12.5 7t4.5 16l90 102q18 20 43 20h147q9 0 12 -8t-7 -16z" />
    <glyph glyph-name="Ncommaaccent" unicode="&#x145;" horiz-adv-x="890" 
d="M505 0q-25 0 -29 18l-179 522l-92 -518q-3 -22 -26 -22h-140q-23 0 -20 22l116 656q5 22 27 22h254q23 0 29 -18l179 -523l91 519q5 22 28 22h139q24 0 19 -22l-116 -656q-3 -22 -26 -22h-254zM356 -160h-53q-21 0 -18 21l12 66q3 21 25 21h134q22 0 19 -21l-12 -66
q-2 -10 -7.5 -19.5t-12.5 -16.5l-58 -50q-16 -13 -32 -13h-58q-8 0 -10.5 6.5t5.5 12.5z" />
    <glyph glyph-name="ncommaaccent" unicode="&#x146;" 
d="M253 437q9 22 21.5 38.5t31.5 27.5t45 17t61 6h96q66 0 97 -24t31 -76q0 -10 -1 -20.5t-3 -22.5l-64 -363q-3 -20 -24 -20h-140q-21 0 -18 20l54 308q3 15 3 24q0 17 -11.5 22.5t-42.5 5.5h-53q-39 0 -59 -16.5t-26 -48.5l-52 -295q-3 -20 -24 -20h-140q-21 0 -18 20
l86 486q3 20 24 20h120q21 0 18 -20zM245 -160h-53q-21 0 -18 21l12 66q3 21 25 21h134q22 0 19 -21l-12 -66q-2 -10 -7.5 -19.5t-12.5 -16.5l-58 -50q-16 -13 -32 -13h-58q-8 0 -10.5 6.5t5.5 12.5z" />
    <glyph glyph-name="Ncaron" unicode="&#x147;" horiz-adv-x="890" 
d="M505 0q-25 0 -29 18l-179 522l-92 -518q-3 -22 -26 -22h-140q-23 0 -20 22l116 656q5 22 27 22h254q23 0 29 -18l179 -523l91 519q5 22 28 22h139q24 0 19 -22l-116 -656q-3 -22 -26 -22h-254zM599 877q11 8 20 13.5t23 5.5h111q10 0 11.5 -7.5t-5.5 -15.5l-98 -102
q-18 -20 -43 -20h-177q-26 0 -35 20l-62 102q-5 8 -0.5 15.5t14.5 7.5h103q14 0 20.5 -5.5t14.5 -13.5l42 -50z" />
    <glyph glyph-name="ncaron" unicode="&#x148;" 
d="M253 437q9 22 21.5 38.5t31.5 27.5t45 17t61 6h96q66 0 97 -24t31 -76q0 -10 -1 -20.5t-3 -22.5l-64 -363q-3 -20 -24 -20h-140q-21 0 -18 20l54 308q3 15 3 24q0 17 -11.5 22.5t-42.5 5.5h-53q-39 0 -59 -16.5t-26 -48.5l-52 -295q-3 -20 -24 -20h-140q-21 0 -18 20
l86 486q3 20 24 20h120q21 0 18 -20zM461 713q11 8 20 13.5t23 5.5h111q10 0 11.5 -7.5t-5.5 -15.5l-98 -102q-18 -20 -43 -20h-177q-26 0 -35 20l-62 102q-5 8 -0.5 15.5t14.5 7.5h103q14 0 20.5 -5.5t14.5 -13.5l42 -50z" />
    <glyph glyph-name="napostrophe" unicode="&#x149;" 
d="M253 437q9 22 21.5 38.5t31.5 27.5t45 17t61 6h96q66 0 97 -24t31 -76q0 -10 -1 -20.5t-3 -22.5l-64 -363q-3 -20 -24 -20h-140q-21 0 -18 20l54 308q3 15 3 24q0 17 -11.5 22.5t-42.5 5.5h-53q-39 0 -59 -16.5t-26 -48.5l-52 -295q-3 -20 -24 -20h-140q-21 0 -18 20
l86 486q3 20 24 20h120q21 0 18 -20zM198 624h-53q-21 0 -18 21l12 66q3 21 25 21h134q22 0 19 -21l-12 -66q-2 -10 -7.5 -19.5t-12.5 -16.5l-58 -50q-16 -13 -32 -13h-58q-8 0 -10.5 6.5t5.5 12.5z" />
    <glyph glyph-name="Eng" unicode="&#x14a;" horiz-adv-x="890" 
d="M564 -73q22 0 27 22l9 51h-95q-25 0 -29 18l-179 522l-92 -518q-3 -22 -26 -22h-140q-23 0 -20 22l116 656q5 22 27 22h254q23 0 29 -18l179 -523l91 519q5 22 28 22h139q24 0 19 -22l-132 -749q-6 -36 -14.5 -61t-25.5 -41t-46 -23.5t-75 -7.5h-92q-21 0 -18 20l16 91
q3 20 25 20h25v0z" />
    <glyph glyph-name="eng" unicode="&#x14b;" 
d="M253 437q9 22 21.5 38.5t31.5 27.5t45 17t61 6h96q66 0 97 -24t31 -76q0 -10 -1 -20.5t-3 -22.5l-80 -454q-6 -36 -14 -61t-24.5 -41t-45.5 -23.5t-77 -7.5h-92q-21 0 -18 20l16 91q3 20 25 20h25q22 0 27 22l66 379q3 15 3 24q0 17 -11.5 22.5t-42.5 5.5h-53
q-39 0 -59 -16.5t-26 -48.5l-52 -295q-3 -20 -24 -20h-140q-21 0 -18 20l86 486q3 20 24 20h120q21 0 18 -20z" />
    <glyph glyph-name="Omacron" unicode="&#x14c;" horiz-adv-x="868" 
d="M797 160q-8 -42 -18.5 -72.5t-31.5 -50t-55.5 -28.5t-89.5 -9h-427q-74 0 -109.5 26.5t-35.5 85.5q0 20 5 48l67 380q7 42 18 72t32.5 49.5t56 29t89.5 9.5h427q75 0 109 -26.5t34 -86.5q0 -11 -1 -22.5t-3 -24.5zM381 539q-24 0 -39.5 -2.5t-25.5 -9.5t-15 -19.5
t-9 -32.5l-44 -250q-3 -17 -3 -27q0 -23 15 -30t54 -7h204q25 0 40.5 2.5t25 9.5t14.5 19.5t8 32.5l44 250q3 18 3 29q0 22 -14.5 28.5t-53.5 6.5h-204zM361 845q3 21 25 21h306q22 0 19 -21l-13 -69q-3 -21 -25 -21h-306q-22 0 -19 21z" />
    <glyph glyph-name="omacron" unicode="&#x14d;" horiz-adv-x="672" 
d="M604 143q-7 -38 -16 -65t-27 -44t-49 -25.5t-82 -8.5h-280q-66 0 -97 23.5t-31 76.5q0 10 1 20.5t3 22.5l42 240q7 37 16 64.5t27.5 44.5t49.5 25.5t81 8.5h280q66 0 97 -23.5t31 -75.5q0 -11 -1 -21.5t-3 -22.5zM311 380q-20 0 -32.5 -2t-20 -7.5t-11.5 -16t-7 -26.5
l-23 -130q-3 -14 -3 -23q0 -18 11.5 -23.5t43.5 -5.5h92q20 0 32.5 2t20 7.5t11 15.5t6.5 27l23 130q3 15 3 24q0 17 -11.5 22.5t-42.5 5.5h-92zM235 681q3 21 25 21h306q22 0 19 -21l-13 -69q-3 -21 -25 -21h-306q-22 0 -19 21z" />
    <glyph glyph-name="Obreve" unicode="&#x14e;" horiz-adv-x="868" 
d="M797 160q-8 -42 -18.5 -72.5t-31.5 -50t-55.5 -28.5t-89.5 -9h-427q-74 0 -109.5 26.5t-35.5 85.5q0 20 5 48l67 380q7 42 18 72t32.5 49.5t56 29t89.5 9.5h427q75 0 109 -26.5t34 -86.5q0 -11 -1 -22.5t-3 -24.5zM381 539q-24 0 -39.5 -2.5t-25.5 -9.5t-15 -19.5
t-9 -32.5l-44 -250q-3 -17 -3 -27q0 -23 15 -30t54 -7h204q25 0 40.5 2.5t25 9.5t14.5 19.5t8 32.5l44 250q3 18 3 29q0 22 -14.5 28.5t-53.5 6.5h-204zM475 896q18 0 18 -17q0 -2 -0.5 -4.5t-0.5 -4.5q0 -13 13.5 -17.5t30.5 -4.5q18 0 34 5.5t19 21.5q2 10 9 15.5t17 5.5
h78q21 0 18 -21q-10 -73 -57 -104t-127 -31q-72 0 -115.5 24.5t-43.5 81.5q0 14 3 29q3 21 26 21h78z" />
    <glyph glyph-name="obreve" unicode="&#x14f;" horiz-adv-x="672" 
d="M604 143q-7 -38 -16 -65t-27 -44t-49 -25.5t-82 -8.5h-280q-66 0 -97 23.5t-31 76.5q0 10 1 20.5t3 22.5l42 240q7 37 16 64.5t27.5 44.5t49.5 25.5t81 8.5h280q66 0 97 -23.5t31 -75.5q0 -11 -1 -21.5t-3 -22.5zM311 380q-20 0 -32.5 -2t-20 -7.5t-11.5 -16t-7 -26.5
l-23 -130q-3 -14 -3 -23q0 -18 11.5 -23.5t43.5 -5.5h92q20 0 32.5 2t20 7.5t11 15.5t6.5 27l23 130q3 15 3 24q0 17 -11.5 22.5t-42.5 5.5h-92zM349 732q18 0 18 -17q0 -2 -0.5 -4.5t-0.5 -4.5q0 -13 13.5 -17.5t30.5 -4.5q18 0 34 5.5t19 21.5q2 10 9 15.5t17 5.5h78
q21 0 18 -21q-10 -73 -57 -104t-127 -31q-72 0 -115.5 24.5t-43.5 81.5q0 14 3 29q3 21 26 21h78z" />
    <glyph glyph-name="Ohungarumlaut" unicode="&#x150;" horiz-adv-x="868" 
d="M797 160q-8 -42 -18.5 -72.5t-31.5 -50t-55.5 -28.5t-89.5 -9h-427q-74 0 -109.5 26.5t-35.5 85.5q0 20 5 48l67 380q7 42 18 72t32.5 49.5t56 29t89.5 9.5h427q75 0 109 -26.5t34 -86.5q0 -11 -1 -22.5t-3 -24.5zM381 539q-24 0 -39.5 -2.5t-25.5 -9.5t-15 -19.5
t-9 -32.5l-44 -250q-3 -17 -3 -27q0 -23 15 -30t54 -7h204q25 0 40.5 2.5t25 9.5t14.5 19.5t8 32.5l44 250q3 18 3 29q0 22 -14.5 28.5t-53.5 6.5h-204zM452 771q-10 -8 -21 -14t-26 -6h-93q-9 0 -12.5 7t4.5 16l90 102q18 20 43 20h134q9 0 12 -8t-7 -16zM693 771
q-10 -8 -21 -14t-26 -6h-93q-9 0 -12.5 7t4.5 16l90 102q18 20 43 20h134q9 0 12 -8t-7 -16z" />
    <glyph glyph-name="ohungarumlaut" unicode="&#x151;" horiz-adv-x="672" 
d="M604 143q-7 -38 -16 -65t-27 -44t-49 -25.5t-82 -8.5h-280q-66 0 -97 23.5t-31 76.5q0 10 1 20.5t3 22.5l42 240q7 37 16 64.5t27.5 44.5t49.5 25.5t81 8.5h280q66 0 97 -23.5t31 -75.5q0 -11 -1 -21.5t-3 -22.5zM311 380q-20 0 -32.5 -2t-20 -7.5t-11.5 -16t-7 -26.5
l-23 -130q-3 -14 -3 -23q0 -18 11.5 -23.5t43.5 -5.5h92q20 0 32.5 2t20 7.5t11 15.5t6.5 27l23 130q3 15 3 24q0 17 -11.5 22.5t-42.5 5.5h-92zM326 607q-10 -8 -21 -14t-26 -6h-93q-9 0 -12.5 7t4.5 16l90 102q18 20 43 20h134q9 0 12 -8t-7 -16zM567 607q-10 -8 -21 -14
t-26 -6h-93q-9 0 -12.5 7t4.5 16l90 102q18 20 43 20h134q9 0 12 -8t-7 -16z" />
    <glyph glyph-name="OE" unicode="&#x152;" horiz-adv-x="1229" 
d="M95 540q7 42 18 72t32.5 49.5t56 29t89.5 9.5h949q24 0 19 -22l-21 -117q-3 -22 -26 -22h-424l-20 -109h346q11 0 16 -5.5t3 -16.5l-19 -110q-2 -11 -9 -16.5t-18 -5.5h-346l-20 -115h424q22 0 19 -22l-21 -117q-3 -22 -26 -22h-949q-74 0 -109.5 26.5t-35.5 85.5
q0 20 5 48zM241 225q-3 -17 -3 -28q0 -23 14.5 -29.5t53.5 -6.5h213l67 378h-213q-24 0 -39.5 -2.5t-25 -9.5t-14.5 -19.5t-9 -32.5z" />
    <glyph glyph-name="oe" unicode="&#x153;" horiz-adv-x="1056" 
d="M68 383q7 37 16 64.5t27.5 44.5t49.5 25.5t81 8.5h206q100 0 119 -59q17 30 49.5 44.5t92.5 14.5h205q63 0 92 -22t29 -72q0 -9 -1 -19.5t-3 -21.5l-26 -150q-3 -20 -25 -20h-363l-4 -25q-3 -15 -3 -24q0 -17 11.5 -22.5t43.5 -5.5h124q11 0 17 5t8 19q3 20 25 20h136
q20 0 17 -20l-6 -33q-6 -36 -14 -61.5t-25.5 -42t-47 -24t-77.5 -7.5h-205q-51 0 -79.5 14t-38.5 44q-17 -30 -49.5 -44t-93.5 -14h-206q-66 0 -97 23.5t-31 76.5q0 10 1 20.5t3 22.5zM312 380q-20 0 -32.5 -2t-20 -7.5t-11.5 -16t-7 -26.5l-23 -130q-3 -14 -3 -23
q0 -18 11.5 -23.5t43.5 -5.5h90q20 0 32.5 2t20 7.5t11 15.5t6.5 27l23 130q3 15 3 24q0 17 -11.5 22.5t-42.5 5.5h-90zM632 305h203l9 50q1 5 1 8q0 19 -23 19h-115q-20 0 -32.5 -2t-20 -7.5t-11.5 -16t-7 -26.5z" />
    <glyph glyph-name="Racute" unicode="&#x154;" horiz-adv-x="844" 
d="M823 401q-8 -42 -18.5 -74t-32 -53t-56.5 -32t-90 -11h-3l155 -209q5 -7 1 -14.5t-12 -7.5h-183q-14 0 -21.5 3.5t-14.5 13.5l-135 204h-155l-35 -199q-3 -22 -27 -22h-155q-23 0 -20 22l116 656q5 22 27 22h545q75 0 109 -26.5t34 -85.5q0 -25 -4 -48zM315 539l-28 -157
h264q22 0 35.5 2t21.5 8.5t12.5 17.5t7.5 29l7 43q3 16 3 27q0 19 -12.5 24.5t-46.5 5.5h-264zM567 771q-10 -8 -21 -14t-26 -6h-106q-9 0 -12.5 7t4.5 16l90 102q18 20 43 20h147q9 0 12 -8t-7 -16z" />
    <glyph glyph-name="racute" unicode="&#x155;" horiz-adv-x="428" 
d="M377 380q-58 0 -92 -31t-42 -80l-44 -249q-3 -20 -24 -20h-140q-21 0 -18 20l86 486q3 20 24 20h120q21 0 18 -20l-14 -76q18 48 56 72t116 24h22q21 0 18 -20l-19 -106q-3 -20 -24 -20h-43zM340 607q-10 -8 -21 -14t-26 -6h-106q-9 0 -12.5 7t4.5 16l90 102q18 20 43 20
h147q9 0 12 -8t-7 -16z" />
    <glyph glyph-name="Rcommaaccent" unicode="&#x156;" horiz-adv-x="844" 
d="M823 401q-8 -42 -18.5 -74t-32 -53t-56.5 -32t-90 -11h-3l155 -209q5 -7 1 -14.5t-12 -7.5h-183q-14 0 -21.5 3.5t-14.5 13.5l-135 204h-155l-35 -199q-3 -22 -27 -22h-155q-23 0 -20 22l116 656q5 22 27 22h545q75 0 109 -26.5t34 -85.5q0 -25 -4 -48zM315 539l-28 -157
h264q22 0 35.5 2t21.5 8.5t12.5 17.5t7.5 29l7 43q3 16 3 27q0 19 -12.5 24.5t-46.5 5.5h-264zM326 -160h-53q-21 0 -18 21l12 66q3 21 25 21h134q22 0 19 -21l-12 -66q-2 -10 -7.5 -19.5t-12.5 -16.5l-58 -50q-16 -13 -32 -13h-58q-8 0 -10.5 6.5t5.5 12.5z" />
    <glyph glyph-name="rcommaaccent" unicode="&#x157;" horiz-adv-x="428" 
d="M377 380q-58 0 -92 -31t-42 -80l-44 -249q-3 -20 -24 -20h-140q-21 0 -18 20l86 486q3 20 24 20h120q21 0 18 -20l-14 -76q18 48 56 72t116 24h22q21 0 18 -20l-19 -106q-3 -20 -24 -20h-43zM64 -160h-53q-21 0 -18 21l12 66q3 21 25 21h134q22 0 19 -21l-12 -66
q-2 -10 -7.5 -19.5t-12.5 -16.5l-58 -50q-16 -13 -32 -13h-58q-8 0 -10.5 6.5t5.5 12.5z" />
    <glyph glyph-name="Rcaron" unicode="&#x158;" horiz-adv-x="844" 
d="M823 401q-8 -42 -18.5 -74t-32 -53t-56.5 -32t-90 -11h-3l155 -209q5 -7 1 -14.5t-12 -7.5h-183q-14 0 -21.5 3.5t-14.5 13.5l-135 204h-155l-35 -199q-3 -22 -27 -22h-155q-23 0 -20 22l116 656q5 22 27 22h545q75 0 109 -26.5t34 -85.5q0 -25 -4 -48zM315 539l-28 -157
h264q22 0 35.5 2t21.5 8.5t12.5 17.5t7.5 29l7 43q3 16 3 27q0 19 -12.5 24.5t-46.5 5.5h-264zM576 877q11 8 20 13.5t23 5.5h111q10 0 11.5 -7.5t-5.5 -15.5l-98 -102q-18 -20 -43 -20h-177q-26 0 -35 20l-62 102q-5 8 -0.5 15.5t14.5 7.5h103q14 0 20.5 -5.5t14.5 -13.5
l42 -50z" />
    <glyph glyph-name="rcaron" unicode="&#x159;" horiz-adv-x="428" 
d="M377 380q-58 0 -92 -31t-42 -80l-44 -249q-3 -20 -24 -20h-140q-21 0 -18 20l86 486q3 20 24 20h120q21 0 18 -20l-14 -76q18 48 56 72t116 24h22q21 0 18 -20l-19 -106q-3 -20 -24 -20h-43zM350 713q11 8 20 13.5t23 5.5h111q10 0 11.5 -7.5t-5.5 -15.5l-98 -102
q-18 -20 -43 -20h-177q-26 0 -35 20l-62 102q-5 8 -0.5 15.5t14.5 7.5h103q14 0 20.5 -5.5t14.5 -13.5l42 -50z" />
    <glyph glyph-name="Sacute" unicode="&#x15a;" horiz-adv-x="815" 
d="M517 161q25 0 35.5 8t13.5 27l8 45q1 4 1 10q0 14 -8.5 19.5t-29.5 5.5h-324q-75 0 -109.5 26.5t-34.5 85.5q0 11 1.5 22.5t3.5 25.5l19 104q7 42 17.5 72t31.5 49.5t55.5 29t90.5 9.5h392q75 0 108 -22t33 -79q0 -25 -6 -56l-7 -41q-3 -22 -27 -22h-150q-22 0 -19 22
l1 6q1 5 1 10q0 21 -28 21h-248q-25 0 -35.5 -8t-14.5 -27l-7 -39q-1 -4 -1 -11q0 -13 8.5 -18.5t29.5 -5.5h324q75 0 109.5 -26.5t34.5 -84.5q0 -11 -1.5 -23t-3.5 -26l-19 -110q-8 -42 -18.5 -72.5t-31 -50t-55.5 -28.5t-90 -9h-415q-76 0 -109 22t-33 78q0 25 6 57l7 41
q5 22 27 22h150q11 0 16 -5.5t3 -16.5l-1 -5q-1 -4 -1 -10q0 -22 28 -22h272zM552 771q-10 -8 -21 -14t-26 -6h-106q-9 0 -12.5 7t4.5 16l90 102q18 20 43 20h147q9 0 12 -8t-7 -16z" />
    <glyph glyph-name="sacute" unicode="&#x15b;" horiz-adv-x="637" 
d="M578 133q-6 -36 -14 -61t-25 -41t-46 -23.5t-77 -7.5h-293q-63 0 -91.5 21t-28.5 70q0 9 1 19.5t3 22.5l6 35q3 20 25 20h136q22 0 17 -20q-1 -3 -1.5 -5t-0.5 -4q0 -15 19 -15h159q32 0 36 29l2 12q1 5 1 11q0 25 -26 25h-210q-61 0 -90 17.5t-29 67.5q0 11 1.5 22.5
t3.5 25.5l7 39q6 36 14 61t24.5 41t45.5 23.5t77 7.5h270q63 0 91.5 -21.5t28.5 -69.5q0 -22 -4 -42l-6 -35q-5 -20 -25 -20h-136q-20 0 -17 20q1 7 1 8v3q0 13 -18 13h-136q-29 0 -35 -29l-4 -18q-1 -2 -1 -4.5v-4.5q0 -21 26 -21h210q62 0 91 -18t29 -69q0 -10 -1 -21.5
t-3 -24.5zM435 607q-10 -8 -21 -14t-26 -6h-106q-9 0 -12.5 7t4.5 16l90 102q18 20 43 20h147q9 0 12 -8t-7 -16z" />
    <glyph glyph-name="Scircumflex" unicode="&#x15c;" horiz-adv-x="815" 
d="M517 161q25 0 35.5 8t13.5 27l8 45q1 4 1 10q0 14 -8.5 19.5t-29.5 5.5h-324q-75 0 -109.5 26.5t-34.5 85.5q0 11 1.5 22.5t3.5 25.5l19 104q7 42 17.5 72t31.5 49.5t55.5 29t90.5 9.5h392q75 0 108 -22t33 -79q0 -25 -6 -56l-7 -41q-3 -22 -27 -22h-150q-22 0 -19 22
l1 6q1 5 1 10q0 21 -28 21h-248q-25 0 -35.5 -8t-14.5 -27l-7 -39q-1 -4 -1 -11q0 -13 8.5 -18.5t29.5 -5.5h324q75 0 109.5 -26.5t34.5 -84.5q0 -11 -1.5 -23t-3.5 -26l-19 -110q-8 -42 -18.5 -72.5t-31 -50t-55.5 -28.5t-90 -9h-415q-76 0 -109 22t-33 78q0 25 6 57l7 41
q5 22 27 22h150q11 0 16 -5.5t3 -16.5l-1 -5q-1 -4 -1 -10q0 -22 28 -22h272zM508 820l-60 -50q-11 -8 -19.5 -13.5t-22.5 -5.5h-111q-10 0 -12 7.5t6 15.5l98 102q17 20 43 20h177q14 0 22 -5t13 -15l62 -102q5 -8 0.5 -15.5t-14.5 -7.5h-103q-14 0 -21 5.5t-15 13.5z" />
    <glyph glyph-name="scircumflex" unicode="&#x15d;" horiz-adv-x="637" 
d="M578 133q-6 -36 -14 -61t-25 -41t-46 -23.5t-77 -7.5h-293q-63 0 -91.5 21t-28.5 70q0 9 1 19.5t3 22.5l6 35q3 20 25 20h136q22 0 17 -20q-1 -3 -1.5 -5t-0.5 -4q0 -15 19 -15h159q32 0 36 29l2 12q1 5 1 11q0 25 -26 25h-210q-61 0 -90 17.5t-29 67.5q0 11 1.5 22.5
t3.5 25.5l7 39q6 36 14 61t24.5 41t45.5 23.5t77 7.5h270q63 0 91.5 -21.5t28.5 -69.5q0 -22 -4 -42l-6 -35q-5 -20 -25 -20h-136q-20 0 -17 20q1 7 1 8v3q0 13 -18 13h-136q-29 0 -35 -29l-4 -18q-1 -2 -1 -4.5v-4.5q0 -21 26 -21h210q62 0 91 -18t29 -69q0 -10 -1 -21.5
t-3 -24.5zM391 656l-60 -50q-11 -8 -19.5 -13.5t-22.5 -5.5h-111q-10 0 -12 7.5t6 15.5l98 102q17 20 43 20h177q14 0 22 -5t13 -15l62 -102q5 -8 0.5 -15.5t-14.5 -7.5h-103q-14 0 -21 5.5t-15 13.5z" />
    <glyph glyph-name="Scedilla" unicode="&#x15e;" horiz-adv-x="815" 
d="M517 161q25 0 35.5 8t13.5 27l8 45q1 4 1 10q0 14 -8.5 19.5t-29.5 5.5h-324q-75 0 -109.5 26.5t-34.5 85.5q0 11 1.5 22.5t3.5 25.5l19 104q7 42 17.5 72t31.5 49.5t55.5 29t90.5 9.5h392q75 0 108 -22t33 -79q0 -25 -6 -56l-7 -41q-3 -22 -27 -22h-150q-22 0 -19 22
l1 6q1 5 1 10q0 21 -28 21h-248q-25 0 -35.5 -8t-14.5 -27l-7 -39q-1 -4 -1 -11q0 -13 8.5 -18.5t29.5 -5.5h324q75 0 109.5 -26.5t34.5 -84.5q0 -11 -1.5 -23t-3.5 -26l-19 -110q-8 -42 -18.5 -72.5t-31 -50t-55.5 -28.5t-90 -9h-415q-76 0 -109 22t-33 78q0 25 6 57l7 41
q5 22 27 22h150q11 0 16 -5.5t3 -16.5l-1 -5q-1 -4 -1 -10q0 -22 28 -22h272zM236 -204q-20 0 -17 19l7 41q3 19 23 19h7q25 0 35 11.5t10 30.5q0 6 -1 10q-2 8 1 14.5t14 6.5h117q12 0 16.5 -9.5t4.5 -20.5q0 -51 -34 -86.5t-110 -35.5h-73z" />
    <glyph glyph-name="scedilla" unicode="&#x15f;" horiz-adv-x="637" 
d="M578 133q-6 -36 -14 -61t-25 -41t-46 -23.5t-77 -7.5h-293q-63 0 -91.5 21t-28.5 70q0 9 1 19.5t3 22.5l6 35q3 20 25 20h136q22 0 17 -20q-1 -3 -1.5 -5t-0.5 -4q0 -15 19 -15h159q32 0 36 29l2 12q1 5 1 11q0 25 -26 25h-210q-61 0 -90 17.5t-29 67.5q0 11 1.5 22.5
t3.5 25.5l7 39q6 36 14 61t24.5 41t45.5 23.5t77 7.5h270q63 0 91.5 -21.5t28.5 -69.5q0 -22 -4 -42l-6 -35q-5 -20 -25 -20h-136q-20 0 -17 20q1 7 1 8v3q0 13 -18 13h-136q-29 0 -35 -29l-4 -18q-1 -2 -1 -4.5v-4.5q0 -21 26 -21h210q62 0 91 -18t29 -69q0 -10 -1 -21.5
t-3 -24.5zM147 -204q-20 0 -17 19l7 41q3 19 23 19h7q25 0 35 11.5t10 30.5q0 6 -1 10q-2 8 1 14.5t14 6.5h117q12 0 16.5 -9.5t4.5 -20.5q0 -51 -34 -86.5t-110 -35.5h-73z" />
    <glyph glyph-name="Scaron" unicode="&#x160;" horiz-adv-x="815" 
d="M517 161q25 0 35.5 8t13.5 27l8 45q1 4 1 10q0 14 -8.5 19.5t-29.5 5.5h-324q-75 0 -109.5 26.5t-34.5 85.5q0 11 1.5 22.5t3.5 25.5l19 104q7 42 17.5 72t31.5 49.5t55.5 29t90.5 9.5h392q75 0 108 -22t33 -79q0 -25 -6 -56l-7 -41q-3 -22 -27 -22h-150q-22 0 -19 22
l1 6q1 5 1 10q0 21 -28 21h-248q-25 0 -35.5 -8t-14.5 -27l-7 -39q-1 -4 -1 -11q0 -13 8.5 -18.5t29.5 -5.5h324q75 0 109.5 -26.5t34.5 -84.5q0 -11 -1.5 -23t-3.5 -26l-19 -110q-8 -42 -18.5 -72.5t-31 -50t-55.5 -28.5t-90 -9h-415q-76 0 -109 22t-33 78q0 25 6 57l7 41
q5 22 27 22h150q11 0 16 -5.5t3 -16.5l-1 -5q-1 -4 -1 -10q0 -22 28 -22h272zM562 877q11 8 20 13.5t23 5.5h111q10 0 11.5 -7.5t-5.5 -15.5l-98 -102q-18 -20 -43 -20h-177q-26 0 -35 20l-62 102q-5 8 -0.5 15.5t14.5 7.5h103q14 0 20.5 -5.5t14.5 -13.5l42 -50z" />
    <glyph glyph-name="scaron" unicode="&#x161;" horiz-adv-x="637" 
d="M578 133q-6 -36 -14 -61t-25 -41t-46 -23.5t-77 -7.5h-293q-63 0 -91.5 21t-28.5 70q0 9 1 19.5t3 22.5l6 35q3 20 25 20h136q22 0 17 -20q-1 -3 -1.5 -5t-0.5 -4q0 -15 19 -15h159q32 0 36 29l2 12q1 5 1 11q0 25 -26 25h-210q-61 0 -90 17.5t-29 67.5q0 11 1.5 22.5
t3.5 25.5l7 39q6 36 14 61t24.5 41t45.5 23.5t77 7.5h270q63 0 91.5 -21.5t28.5 -69.5q0 -22 -4 -42l-6 -35q-5 -20 -25 -20h-136q-20 0 -17 20q1 7 1 8v3q0 13 -18 13h-136q-29 0 -35 -29l-4 -18q-1 -2 -1 -4.5v-4.5q0 -21 26 -21h210q62 0 91 -18t29 -69q0 -10 -1 -21.5
t-3 -24.5zM445 713q11 8 20 13.5t23 5.5h111q10 0 11.5 -7.5t-5.5 -15.5l-98 -102q-18 -20 -43 -20h-177q-26 0 -35 20l-62 102q-5 8 -0.5 15.5t14.5 7.5h103q14 0 20.5 -5.5t14.5 -13.5l42 -50z" />
    <glyph glyph-name="Tcommaaccent" unicode="&#x162;" horiz-adv-x="754" 
d="M325 539h-239q-23 0 -20 22l21 117q5 22 27 22h680q24 0 19 -22l-21 -117q-3 -22 -26 -22h-239l-92 -517q-3 -22 -26 -22h-156q-23 0 -20 22zM186 -204q-20 0 -17 19l7 41q3 19 23 19h7q25 0 35 11.5t10 30.5q0 6 -1 10q-2 8 1 14.5t14 6.5h117q12 0 16.5 -9.5t4.5 -20.5
q0 -51 -34 -86.5t-110 -35.5h-73z" />
    <glyph glyph-name="tcommaaccent" unicode="&#x163;" horiz-adv-x="410" 
d="M173 0q-66 0 -97.5 23.5t-31.5 76.5q0 10 1 20.5t3 22.5l42 237h-38q-21 0 -18 20l19 106q3 20 24 20h38l20 114q5 20 25 20h140q22 0 17 -20l-20 -114h110q21 0 18 -20l-19 -106q-3 -20 -24 -20h-110l-37 -205q-1 -3 -1 -8q0 -21 27 -21h79q21 0 18 -20l-19 -106
q-3 -20 -24 -20h-142zM27 -204q-20 0 -17 19l7 41q3 19 23 19h7q25 0 35 11.5t10 30.5q0 6 -1 10q-2 8 1 14.5t14 6.5h117q12 0 16.5 -9.5t4.5 -20.5q0 -51 -34 -86.5t-110 -35.5h-73z" />
    <glyph glyph-name="Tcaron" unicode="&#x164;" horiz-adv-x="754" 
d="M325 539h-239q-23 0 -20 22l21 117q5 22 27 22h680q24 0 19 -22l-21 -117q-3 -22 -26 -22h-239l-92 -517q-3 -22 -26 -22h-156q-23 0 -20 22zM531 877q11 8 20 13.5t23 5.5h111q10 0 11.5 -7.5t-5.5 -15.5l-98 -102q-18 -20 -43 -20h-177q-26 0 -35 20l-62 102
q-5 8 -0.5 15.5t14.5 7.5h103q14 0 20.5 -5.5t14.5 -13.5l42 -50z" />
    <glyph glyph-name="tcaron" unicode="&#x165;" horiz-adv-x="669" 
d="M173 0q-66 0 -97.5 23.5t-31.5 76.5q0 10 1 20.5t3 22.5l42 237h-38q-21 0 -18 20l19 106q3 20 24 20h38l20 114q5 20 25 20h140q22 0 17 -20l-20 -114h110q21 0 18 -20l-19 -106q-3 -20 -24 -20h-110l-37 -205q-1 -3 -1 -8q0 -21 27 -21h79q21 0 18 -20l-19 -106
q-3 -20 -24 -20h-142zM565 384q-12 -15 -31 -15h-56q-8 0 -11.5 6.5t4.5 14.5l112 137h-76q-23 0 -20 22l23 129q5 22 27 22h166q24 0 19 -22l-23 -129q-3 -22 -17 -37z" />
    <glyph glyph-name="Tbar" unicode="&#x166;" horiz-adv-x="754" 
d="M279 281h-113q-11 0 -16 5.5t-3 16.5l18 100q3 22 26 22h113l21 114h-239q-23 0 -20 22l21 117q5 22 27 22h680q24 0 19 -22l-21 -117q-3 -22 -26 -22h-239l-21 -114h113q23 0 20 -22l-18 -100q-5 -22 -27 -22h-113l-46 -259q-3 -22 -26 -22h-156q-23 0 -20 22z" />
    <glyph glyph-name="tbar" unicode="&#x167;" horiz-adv-x="410" 
d="M173 0q-66 0 -97.5 23.5t-31.5 76.5q0 10 1 20.5t3 22.5l12 69h-37q-23 0 -18 21l12 69q3 21 25 21h38l10 57h-38q-21 0 -18 20l19 106q3 20 24 20h38l20 114q5 20 25 20h140q22 0 17 -20l-20 -114h110q21 0 18 -20l-19 -106q-3 -20 -24 -20h-110l-11 -57h109
q22 0 19 -21l-12 -69q-5 -21 -26 -21h-110l-6 -37q-1 -3 -1 -8q0 -21 27 -21h79q21 0 18 -20l-19 -106q-3 -20 -24 -20h-142z" />
    <glyph glyph-name="Utilde" unicode="&#x168;" horiz-adv-x="852" 
d="M497 161q25 0 40.5 2.5t25 9.5t14.5 19.5t8 32.5l80 453q5 22 27 22h156q11 0 16 -5.5t3 -16.5l-91 -518q-8 -42 -18.5 -72.5t-31.5 -50t-55.5 -28.5t-89.5 -9h-400q-75 0 -110 26.5t-35 85.5q0 11 1.5 22.5t3.5 25.5l91 518q5 22 27 22h156q24 0 19 -22l-80 -453
q-3 -17 -3 -27q0 -23 15 -30t54 -7h177zM601 866q26 0 32 21q5 19 24 19h58q20 0 17 -19q-13 -74 -50.5 -107t-88.5 -33q-32 0 -53.5 7t-37.5 15t-28.5 15t-25.5 7q-27 0 -33 -21q-5 -19 -24 -19h-58q-20 0 -17 19q14 74 51 107t88 33q32 0 53.5 -7t37.5 -15t28.5 -15
t26.5 -7z" />
    <glyph glyph-name="utilde" unicode="&#x169;" 
d="M157 0q-66 0 -97.5 23.5t-31.5 76.5q0 10 1 20.5t3 22.5l64 363q3 20 24 20h140q21 0 18 -20l-55 -308q-2 -7 -2 -12.5v-10.5q0 -18 11 -23.5t43 -5.5h55q38 0 58 16.5t26 48.5l52 295q3 20 24 20h140q21 0 18 -20l-86 -486q-3 -20 -24 -20h-120q-21 0 -18 20l12 71
q-8 -23 -20.5 -40t-31.5 -28t-45 -17t-62 -6h-96zM476 702q26 0 32 21q5 19 24 19h58q20 0 17 -19q-13 -74 -50.5 -107t-88.5 -33q-32 0 -53.5 7t-37.5 15t-28.5 15t-25.5 7q-27 0 -33 -21q-5 -19 -24 -19h-58q-20 0 -17 19q14 74 51 107t88 33q32 0 53.5 -7t37.5 -15
t28.5 -15t26.5 -7z" />
    <glyph glyph-name="Umacron" unicode="&#x16a;" horiz-adv-x="852" 
d="M497 161q25 0 40.5 2.5t25 9.5t14.5 19.5t8 32.5l80 453q5 22 27 22h156q11 0 16 -5.5t3 -16.5l-91 -518q-8 -42 -18.5 -72.5t-31.5 -50t-55.5 -28.5t-89.5 -9h-400q-75 0 -110 26.5t-35 85.5q0 11 1.5 22.5t3.5 25.5l91 518q5 22 27 22h156q24 0 19 -22l-80 -453
q-3 -17 -3 -27q0 -23 15 -30t54 -7h177zM353 845q3 21 25 21h306q22 0 19 -21l-13 -69q-3 -21 -25 -21h-306q-22 0 -19 21z" />
    <glyph glyph-name="umacron" unicode="&#x16b;" 
d="M157 0q-66 0 -97.5 23.5t-31.5 76.5q0 10 1 20.5t3 22.5l64 363q3 20 24 20h140q21 0 18 -20l-55 -308q-2 -7 -2 -12.5v-10.5q0 -18 11 -23.5t43 -5.5h55q38 0 58 16.5t26 48.5l52 295q3 20 24 20h140q21 0 18 -20l-86 -486q-3 -20 -24 -20h-120q-21 0 -18 20l12 71
q-8 -23 -20.5 -40t-31.5 -28t-45 -17t-62 -6h-96zM228 681q3 21 25 21h306q22 0 19 -21l-13 -69q-3 -21 -25 -21h-306q-22 0 -19 21z" />
    <glyph glyph-name="Ubreve" unicode="&#x16c;" horiz-adv-x="852" 
d="M497 161q25 0 40.5 2.5t25 9.5t14.5 19.5t8 32.5l80 453q5 22 27 22h156q11 0 16 -5.5t3 -16.5l-91 -518q-8 -42 -18.5 -72.5t-31.5 -50t-55.5 -28.5t-89.5 -9h-400q-75 0 -110 26.5t-35 85.5q0 11 1.5 22.5t3.5 25.5l91 518q5 22 27 22h156q24 0 19 -22l-80 -453
q-3 -17 -3 -27q0 -23 15 -30t54 -7h177zM467 896q18 0 18 -17q0 -2 -0.5 -4.5t-0.5 -4.5q0 -13 13.5 -17.5t30.5 -4.5q18 0 34 5.5t19 21.5q2 10 9 15.5t17 5.5h78q21 0 18 -21q-10 -73 -57 -104t-127 -31q-72 0 -115.5 24.5t-43.5 81.5q0 14 3 29q3 21 26 21h78z" />
    <glyph glyph-name="ubreve" unicode="&#x16d;" 
d="M157 0q-66 0 -97.5 23.5t-31.5 76.5q0 10 1 20.5t3 22.5l64 363q3 20 24 20h140q21 0 18 -20l-55 -308q-2 -7 -2 -12.5v-10.5q0 -18 11 -23.5t43 -5.5h55q38 0 58 16.5t26 48.5l52 295q3 20 24 20h140q21 0 18 -20l-86 -486q-3 -20 -24 -20h-120q-21 0 -18 20l12 71
q-8 -23 -20.5 -40t-31.5 -28t-45 -17t-62 -6h-96zM342 732q18 0 18 -17q0 -2 -0.5 -4.5t-0.5 -4.5q0 -13 13.5 -17.5t30.5 -4.5q18 0 34 5.5t19 21.5q2 10 9 15.5t17 5.5h78q21 0 18 -21q-10 -73 -57 -104t-127 -31q-72 0 -115.5 24.5t-43.5 81.5q0 14 3 29q3 21 26 21h78z
" />
    <glyph glyph-name="Uring" unicode="&#x16e;" horiz-adv-x="852" 
d="M497 161q25 0 40.5 2.5t25 9.5t14.5 19.5t8 32.5l80 453q5 22 27 22h156q11 0 16 -5.5t3 -16.5l-91 -518q-8 -42 -18.5 -72.5t-31.5 -50t-55.5 -28.5t-89.5 -9h-400q-75 0 -110 26.5t-35 85.5q0 11 1.5 22.5t3.5 25.5l91 518q5 22 27 22h156q24 0 19 -22l-80 -453
q-3 -17 -3 -27q0 -23 15 -30t54 -7h177zM536 894q-36 0 -50 -14.5t-14 -34.5q0 -14 11 -22.5t39 -8.5q35 0 49.5 14t14.5 35q0 14 -11 22.5t-39 8.5zM549 966q34 0 57.5 -7.5t37.5 -20t20.5 -29.5t6.5 -36q0 -28 -9 -52t-28.5 -41.5t-50 -27.5t-74.5 -10q-68 0 -95.5 27
t-27.5 65q0 28 9 52t28.5 42t50.5 28t75 10z" />
    <glyph glyph-name="uring" unicode="&#x16f;" 
d="M157 0q-66 0 -97.5 23.5t-31.5 76.5q0 10 1 20.5t3 22.5l64 363q3 20 24 20h140q21 0 18 -20l-55 -308q-2 -7 -2 -12.5v-10.5q0 -18 11 -23.5t43 -5.5h55q38 0 58 16.5t26 48.5l52 295q3 20 24 20h140q21 0 18 -20l-86 -486q-3 -20 -24 -20h-120q-21 0 -18 20l12 71
q-8 -23 -20.5 -40t-31.5 -28t-45 -17t-62 -6h-96zM411 730q-36 0 -50 -14.5t-14 -34.5q0 -14 11 -22.5t39 -8.5q35 0 49.5 14t14.5 35q0 14 -11 22.5t-39 8.5zM424 802q34 0 57.5 -7.5t37.5 -20t20.5 -29.5t6.5 -36q0 -28 -9 -52t-28.5 -41.5t-50 -27.5t-74.5 -10
q-68 0 -95.5 27t-27.5 65q0 28 9 52t28.5 42t50.5 28t75 10z" />
    <glyph glyph-name="Uhungarumlaut" unicode="&#x170;" horiz-adv-x="852" 
d="M497 161q25 0 40.5 2.5t25 9.5t14.5 19.5t8 32.5l80 453q5 22 27 22h156q11 0 16 -5.5t3 -16.5l-91 -518q-8 -42 -18.5 -72.5t-31.5 -50t-55.5 -28.5t-89.5 -9h-400q-75 0 -110 26.5t-35 85.5q0 11 1.5 22.5t3.5 25.5l91 518q5 22 27 22h156q24 0 19 -22l-80 -453
q-3 -17 -3 -27q0 -23 15 -30t54 -7h177zM444 771q-10 -8 -21 -14t-26 -6h-93q-9 0 -12.5 7t4.5 16l90 102q18 20 43 20h134q9 0 12 -8t-7 -16zM685 771q-10 -8 -21 -14t-26 -6h-93q-9 0 -12.5 7t4.5 16l90 102q18 20 43 20h134q9 0 12 -8t-7 -16z" />
    <glyph glyph-name="uhungarumlaut" unicode="&#x171;" 
d="M157 0q-66 0 -97.5 23.5t-31.5 76.5q0 10 1 20.5t3 22.5l64 363q3 20 24 20h140q21 0 18 -20l-55 -308q-2 -7 -2 -12.5v-10.5q0 -18 11 -23.5t43 -5.5h55q38 0 58 16.5t26 48.5l52 295q3 20 24 20h140q21 0 18 -20l-86 -486q-3 -20 -24 -20h-120q-21 0 -18 20l12 71
q-8 -23 -20.5 -40t-31.5 -28t-45 -17t-62 -6h-96zM319 607q-10 -8 -21 -14t-26 -6h-93q-9 0 -12.5 7t4.5 16l90 102q18 20 43 20h134q9 0 12 -8t-7 -16zM560 607q-10 -8 -21 -14t-26 -6h-93q-9 0 -12.5 7t4.5 16l90 102q18 20 43 20h134q9 0 12 -8t-7 -16z" />
    <glyph glyph-name="Uogonek" unicode="&#x172;" horiz-adv-x="852" 
d="M497 161q25 0 40.5 2.5t25 9.5t14.5 19.5t8 32.5l80 453q5 22 27 22h156q11 0 16 -5.5t3 -16.5l-91 -518q-8 -41 -18 -71t-30 -49.5t-52.5 -29t-83.5 -10.5q-35 -17 -46.5 -32t-11.5 -29q0 -23 33 -23h94q21 0 18 -21l-14 -78q-3 -21 -25 -21h-106q-60 0 -85 22t-25 54
q0 41 26 76t63 52h-332q-75 0 -110 26.5t-35 85.5q0 11 1.5 22.5t3.5 25.5l91 518q5 22 27 22h156q24 0 19 -22l-80 -453q-3 -17 -3 -27q0 -23 15 -30t54 -7h177z" />
    <glyph glyph-name="uogonek" unicode="&#x173;" 
d="M157 0q-66 0 -97.5 23.5t-31.5 76.5q0 10 1 20.5t3 22.5l64 363q3 20 24 20h140q21 0 18 -20l-55 -308q-2 -7 -2 -12.5v-10.5q0 -18 11 -23.5t43 -5.5h55q38 0 58 16.5t26 48.5l52 295q3 20 24 20h140q21 0 18 -20l-86 -486q-3 -20 -24 -20h-74q-40 -17 -52 -32t-12 -29
q0 -23 33 -23h89q21 0 18 -21l-14 -78q-3 -21 -25 -21h-101q-60 0 -85 22t-25 54q0 42 29.5 75t71.5 53l6 3l15 88q-8 -23 -20.5 -40t-31.5 -28t-45 -17t-62 -6h-96z" />
    <glyph glyph-name="Wcircumflex" unicode="&#x174;" horiz-adv-x="1144" 
d="M652 0q-23 0 -25 22l-21 442l-176 -442q-8 -22 -31 -22h-244q-23 0 -25 22l-54 656q0 22 21 22h162q24 0 24 -22l29 -514l203 514q9 22 33 22h199q24 0 24 -22l21 -514l211 514q9 22 33 22h165q22 0 13 -22l-286 -656q-8 -22 -31 -22h-245zM672 820l-60 -50
q-11 -8 -19.5 -13.5t-22.5 -5.5h-111q-10 0 -12 7.5t6 15.5l98 102q17 20 43 20h177q14 0 22 -5t13 -15l62 -102q5 -8 0.5 -15.5t-14.5 -7.5h-103q-14 0 -21 5.5t-15 13.5z" />
    <glyph glyph-name="wcircumflex" unicode="&#x175;" horiz-adv-x="923" 
d="M115 0q-22 0 -24 20l-45 486q-2 20 18 20h145q21 0 23 -20l20 -362l138 362q7 20 29 20h175q23 0 24 -20l9 -357l146 357q8 20 29 20h149q20 0 12 -20l-218 -486q-8 -20 -29 -20h-208q-21 0 -23 20l-12 306l-118 -306q-8 -20 -29 -20h-211zM534 656l-60 -50
q-11 -8 -19.5 -13.5t-22.5 -5.5h-111q-10 0 -12 7.5t6 15.5l98 102q17 20 43 20h177q14 0 22 -5t13 -15l62 -102q5 -8 0.5 -15.5t-14.5 -7.5h-103q-14 0 -21 5.5t-15 13.5z" />
    <glyph glyph-name="Ycircumflex" unicode="&#x176;" horiz-adv-x="804" 
d="M299 255l-220 423q-4 8 0.5 15t13.5 7h183q12 0 18.5 -3t11.5 -14l119 -258l211 258q8 11 16.5 14t20.5 3h192q9 0 11 -7t-5 -15l-370 -423l-41 -233q-3 -22 -26 -22h-156q-23 0 -20 22zM502 820l-60 -50q-11 -8 -19.5 -13.5t-22.5 -5.5h-111q-10 0 -12 7.5t6 15.5
l98 102q17 20 43 20h177q14 0 22 -5t13 -15l62 -102q5 -8 0.5 -15.5t-14.5 -7.5h-103q-14 0 -21 5.5t-15 13.5z" />
    <glyph glyph-name="ycircumflex" unicode="&#x177;" 
d="M7 -57q5 20 25 20h135q22 0 17 -20v-3q0 -13 15 -13h106q35 0 49 11t19 41l13 76q-19 -27 -52 -41t-89 -14h-88q-66 0 -97.5 23.5t-31.5 76.5q0 10 1 20.5t3 22.5l64 363q3 20 24 20h140q21 0 18 -20l-55 -308q-2 -7 -2 -12.5v-10.5q0 -18 11 -23.5t43 -5.5h55
q38 0 58 16.5t26 48.5l52 295q3 20 24 20h140q21 0 18 -20l-97 -548q-7 -40 -19 -70.5t-34 -50.5t-56.5 -30.5t-87.5 -10.5h-231q-63 0 -92.5 22.5t-29.5 72.5q0 20 4 40zM401 656l-60 -50q-11 -8 -19.5 -13.5t-22.5 -5.5h-111q-10 0 -12 7.5t6 15.5l98 102q17 20 43 20h177
q14 0 22 -5t13 -15l62 -102q5 -8 0.5 -15.5t-14.5 -7.5h-103q-14 0 -21 5.5t-15 13.5z" />
    <glyph glyph-name="Ydieresis" unicode="&#x178;" horiz-adv-x="804" 
d="M299 255l-220 423q-4 8 0.5 15t13.5 7h183q12 0 18.5 -3t11.5 -14l119 -258l211 258q8 11 16.5 14t20.5 3h192q9 0 11 -7t-5 -15l-370 -423l-41 -233q-3 -22 -26 -22h-156q-23 0 -20 22zM306 870q2 10 9 15.5t17 5.5h118q21 0 18 -21l-16 -93q-5 -21 -26 -21h-118
q-10 0 -15 5.5t-3 15.5zM548 870q3 21 26 21h118q21 0 18 -21l-16 -93q-5 -21 -26 -21h-118q-23 0 -18 21z" />
    <glyph glyph-name="Zacute" unicode="&#x179;" horiz-adv-x="767" 
d="M11 0q-24 0 -21 22l19 107q4 19 23 35l470 375h-386q-23 0 -20 22l21 117q5 22 27 22h640q11 0 16 -5.5t3 -16.5l-21 -118q-3 -19 -23 -35l-452 -364h382q22 0 19 -22l-21 -117q-3 -22 -26 -22h-650zM528 771q-10 -8 -21 -14t-26 -6h-106q-9 0 -12.5 7t4.5 16l90 102
q18 20 43 20h147q9 0 12 -8t-7 -16z" />
    <glyph glyph-name="zacute" unicode="&#x17a;" horiz-adv-x="607" 
d="M4 0q-21 0 -18 20l16 88q3 20 20 33l311 239h-251q-21 0 -18 20l19 106q3 20 24 20h492q21 0 18 -20l-16 -88q-3 -20 -20 -33l-312 -239h263q21 0 18 -20l-19 -106q-3 -20 -24 -20h-503zM423 607q-10 -8 -21 -14t-26 -6h-106q-9 0 -12.5 7t4.5 16l90 102q18 20 43 20h147
q9 0 12 -8t-7 -16z" />
    <glyph glyph-name="Zdotaccent" unicode="&#x17b;" horiz-adv-x="767" 
d="M11 0q-24 0 -21 22l19 107q4 19 23 35l470 375h-386q-23 0 -20 22l21 117q5 22 27 22h640q11 0 16 -5.5t3 -16.5l-21 -118q-3 -19 -23 -35l-452 -364h382q22 0 19 -22l-21 -117q-3 -22 -26 -22h-650zM408 870q2 10 9 15.5t17 5.5h118q21 0 18 -21l-16 -93q-5 -21 -26 -21
h-118q-10 0 -15 5.5t-3 15.5z" />
    <glyph glyph-name="zdotaccent" unicode="&#x17c;" horiz-adv-x="607" 
d="M4 0q-21 0 -18 20l16 88q3 20 20 33l311 239h-251q-21 0 -18 20l19 106q3 20 24 20h492q21 0 18 -20l-16 -88q-3 -20 -20 -33l-312 -239h263q21 0 18 -20l-19 -106q-3 -20 -24 -20h-503zM303 706q2 10 9 15.5t17 5.5h118q21 0 18 -21l-16 -93q-5 -21 -26 -21h-118
q-10 0 -15 5.5t-3 15.5z" />
    <glyph glyph-name="Zcaron" unicode="&#x17d;" horiz-adv-x="767" 
d="M11 0q-24 0 -21 22l19 107q4 19 23 35l470 375h-386q-23 0 -20 22l21 117q5 22 27 22h640q11 0 16 -5.5t3 -16.5l-21 -118q-3 -19 -23 -35l-452 -364h382q22 0 19 -22l-21 -117q-3 -22 -26 -22h-650zM538 877q11 8 20 13.5t23 5.5h111q10 0 11.5 -7.5t-5.5 -15.5
l-98 -102q-18 -20 -43 -20h-177q-26 0 -35 20l-62 102q-5 8 -0.5 15.5t14.5 7.5h103q14 0 20.5 -5.5t14.5 -13.5l42 -50z" />
    <glyph glyph-name="zcaron" unicode="&#x17e;" horiz-adv-x="607" 
d="M4 0q-21 0 -18 20l16 88q3 20 20 33l311 239h-251q-21 0 -18 20l19 106q3 20 24 20h492q21 0 18 -20l-16 -88q-3 -20 -20 -33l-312 -239h263q21 0 18 -20l-19 -106q-3 -20 -24 -20h-503zM433 713q11 8 20 13.5t23 5.5h111q10 0 11.5 -7.5t-5.5 -15.5l-98 -102
q-18 -20 -43 -20h-177q-26 0 -35 20l-62 102q-5 8 -0.5 15.5t14.5 7.5h103q14 0 20.5 -5.5t14.5 -13.5l42 -50z" />
    <glyph glyph-name="florin" unicode="&#x192;" horiz-adv-x="857" 
d="M35 -156q-22 0 -14 20l38 106q8 20 28 20h50q20 0 33 2t21.5 7.5t14 15.5t11.5 27l94 259h-132q-21 0 -15 20l39 106q6 20 27 20h133l37 100q14 37 29 66t37 48t55 29t83 10h190q22 0 14 -20l-38 -106q-8 -20 -28 -20h-96q-20 0 -33 -2t-21 -7.5t-14 -16t-12 -26.5
l-21 -55h178q21 0 15 -20l-39 -106q-6 -20 -27 -20h-179l-110 -304q-14 -38 -28.5 -66.5t-37 -47.5t-56 -29t-83.5 -10h-143z" />
    <glyph glyph-name="AEacute" unicode="&#x1fc;" horiz-adv-x="1210" 
d="M1221 700q24 0 19 -22l-21 -117q-3 -22 -26 -22h-424l-20 -109h346q11 0 16 -5.5t3 -16.5l-19 -110q-2 -11 -9 -16.5t-18 -5.5h-346l-20 -115h424q22 0 19 -22l-21 -117q-3 -22 -26 -22h-602q-23 0 -20 22l17 97h-230l-73 -101q-8 -11 -17 -14.5t-21 -3.5h-183
q-9 0 -11 7t4 15l495 660q8 11 17 14.5t21 3.5h726zM521 276l45 263l-187 -263h142zM750 771q-10 -8 -21 -14t-26 -6h-106q-9 0 -12.5 7t4.5 16l90 102q18 20 43 20h147q9 0 12 -8t-7 -16z" />
    <glyph glyph-name="aeacute" unicode="&#x1fd;" horiz-adv-x="1027" 
d="M976 241q-3 -20 -25 -20h-364l-4 -25q-3 -14 -3 -23q0 -18 12 -23.5t43 -5.5h125q11 0 17 5t8 19q3 20 25 20h136q20 0 17 -20l-6 -33q-6 -36 -14 -61.5t-25.5 -42t-47 -24t-77.5 -7.5h-246q-57 0 -87.5 16.5t-38.5 53.5q-18 -35 -52.5 -52.5t-97.5 -17.5h-143
q-63 0 -91 21t-28 69q0 10 1 20.5t3 22.5l7 39q7 39 14.5 65t24 41t45.5 21t77 6h239l5 25q2 7 2 12.5v10.5q0 18 -11.5 23.5t-42.5 5.5h-99q-21 0 -25 -20l-1 -4q-5 -20 -25 -20h-136q-22 0 -17 20l5 33q6 36 14.5 61.5t26 42t47 24t77.5 7.5h179q100 0 118 -60
q17 31 49.5 45.5t94.5 14.5h204q63 0 92 -22t29 -72q0 -9 -1 -19.5t-3 -21.5zM602 305h204l8 46q1 5 1 7v4q0 20 -22 20h-116q-20 0 -32.5 -2t-20 -7.5t-11.5 -16t-7 -26.5zM319 144q39 0 59 16.5t25 48.5l2 12h-164q-30 0 -36 -29l-3 -16q-1 -5 -1 -7.5v-4.5q0 -20 27 -20
h91zM630 607q-10 -8 -21 -14t-26 -6h-106q-9 0 -12.5 7t4.5 16l90 102q18 20 43 20h147q9 0 12 -8t-7 -16z" />
    <glyph glyph-name="Oslashacute" unicode="&#x1fe;" horiz-adv-x="868" 
d="M579 771q-10 -8 -21 -14t-26 -6h-106q-9 0 -12.5 7t4.5 16l90 102q18 20 43 20h147q9 0 12 -8t-7 -16zM797 160q-8 -42 -18.5 -72.5t-31.5 -50t-55.5 -28.5t-89.5 -9h-417l-29 -30q-8 -9 -17.5 -14.5t-23.5 -5.5h-98q-10 0 -12 7.5t6 15.5l53 55q-34 27 -34 84q0 20 5 48
l67 380q7 42 18 72t32.5 49.5t56 29t89.5 9.5h414l29 30q8 9 18 14.5t24 5.5h98q10 0 11.5 -7.5t-5.5 -15.5l-53 -55q34 -27 34 -85q0 -11 -1 -22.5t-3 -24.5zM651 483l-311 -322h178q25 0 40.5 2.5t25 9.5t14.5 19.5t8 32.5zM246 217l310 322h-175q-24 0 -39.5 -2.5
t-25.5 -9.5t-15 -19.5t-9 -32.5z" />
    <glyph glyph-name="oslashacute" unicode="&#x1ff;" horiz-adv-x="672" 
d="M453 607q-10 -8 -21 -14t-26 -6h-106q-9 0 -12.5 7t4.5 16l90 102q18 20 43 20h147q9 0 12 -8t-7 -16zM604 143q-7 -38 -16 -65t-27 -44t-49 -25.5t-82 -8.5h-287l-28 -30q-9 -9 -18 -14.5t-23 -5.5h-66q-10 0 -12 7.5t6 15.5l49 52q-29 23 -29 75q0 10 1 20.5t3 22.5
l42 240q7 37 16 64.5t27.5 44.5t49.5 25.5t81 8.5h284l30 31q9 9 18 14.5t23 5.5h66q10 0 12 -7.5t-6 -15.5l-50 -52q31 -24 31 -75q0 -11 -1 -21.5t-3 -22.5zM361 146q20 0 32.5 2t20 7.5t11 15.5t6.5 27l23 129l-172 -181h79zM217 200l171 180h-77q-20 0 -32.5 -2
t-20 -7.5t-11.5 -16t-7 -26.5z" />
    <glyph glyph-name="Scommaaccent" unicode="&#x218;" horiz-adv-x="815" 
d="M517 161q25 0 35.5 8t13.5 27l8 45q1 4 1 10q0 14 -8.5 19.5t-29.5 5.5h-324q-75 0 -109.5 26.5t-34.5 85.5q0 11 1.5 22.5t3.5 25.5l19 104q7 42 17.5 72t31.5 49.5t55.5 29t90.5 9.5h392q75 0 108 -22t33 -79q0 -25 -6 -56l-7 -41q-3 -22 -27 -22h-150q-22 0 -19 22
l1 6q1 5 1 10q0 21 -28 21h-248q-25 0 -35.5 -8t-14.5 -27l-7 -39q-1 -4 -1 -11q0 -13 8.5 -18.5t29.5 -5.5h324q75 0 109.5 -26.5t34.5 -84.5q0 -11 -1.5 -23t-3.5 -26l-19 -110q-8 -42 -18.5 -72.5t-31 -50t-55.5 -28.5t-90 -9h-415q-76 0 -109 22t-33 78q0 25 6 57l7 41
q5 22 27 22h150q11 0 16 -5.5t3 -16.5l-1 -5q-1 -4 -1 -10q0 -22 28 -22h272zM318 -160h-53q-21 0 -18 21l12 66q3 21 25 21h134q22 0 19 -21l-12 -66q-2 -10 -7.5 -19.5t-12.5 -16.5l-58 -50q-16 -13 -32 -13h-58q-8 0 -10.5 6.5t5.5 12.5z" />
    <glyph glyph-name="scommaaccent" unicode="&#x219;" horiz-adv-x="637" 
d="M578 133q-6 -36 -14 -61t-25 -41t-46 -23.5t-77 -7.5h-293q-63 0 -91.5 21t-28.5 70q0 9 1 19.5t3 22.5l6 35q3 20 25 20h136q22 0 17 -20q-1 -3 -1.5 -5t-0.5 -4q0 -15 19 -15h159q32 0 36 29l2 12q1 5 1 11q0 25 -26 25h-210q-61 0 -90 17.5t-29 67.5q0 11 1.5 22.5
t3.5 25.5l7 39q6 36 14 61t24.5 41t45.5 23.5t77 7.5h270q63 0 91.5 -21.5t28.5 -69.5q0 -22 -4 -42l-6 -35q-5 -20 -25 -20h-136q-20 0 -17 20q1 7 1 8v3q0 13 -18 13h-136q-29 0 -35 -29l-4 -18q-1 -2 -1 -4.5v-4.5q0 -21 26 -21h210q62 0 91 -18t29 -69q0 -10 -1 -21.5
t-3 -24.5zM229 -160h-53q-21 0 -18 21l12 66q3 21 25 21h134q22 0 19 -21l-12 -66q-2 -10 -7.5 -19.5t-12.5 -16.5l-58 -50q-16 -13 -32 -13h-58q-8 0 -10.5 6.5t5.5 12.5z" />
    <glyph glyph-name="uni021A" unicode="&#x21a;" horiz-adv-x="754" 
d="M325 539h-239q-23 0 -20 22l21 117q5 22 27 22h680q24 0 19 -22l-21 -117q-3 -22 -26 -22h-239l-92 -517q-3 -22 -26 -22h-156q-23 0 -20 22zM288 -160h-53q-21 0 -18 21l12 66q3 21 25 21h134q22 0 19 -21l-12 -66q-2 -10 -7.5 -19.5t-12.5 -16.5l-58 -50
q-16 -13 -32 -13h-58q-8 0 -10.5 6.5t5.5 12.5z" />
    <glyph glyph-name="uni021B" unicode="&#x21b;" horiz-adv-x="410" 
d="M173 0q-66 0 -97.5 23.5t-31.5 76.5q0 10 1 20.5t3 22.5l42 237h-38q-21 0 -18 20l19 106q3 20 24 20h38l20 114q5 20 25 20h140q22 0 17 -20l-20 -114h110q21 0 18 -20l-19 -106q-3 -20 -24 -20h-110l-37 -205q-1 -3 -1 -8q0 -21 27 -21h79q21 0 18 -20l-19 -106
q-3 -20 -24 -20h-142zM119 -160h-53q-21 0 -18 21l12 66q3 21 25 21h134q22 0 19 -21l-12 -66q-2 -10 -7.5 -19.5t-12.5 -16.5l-58 -50q-16 -13 -32 -13h-58q-8 0 -10.5 6.5t5.5 12.5z" />
    <glyph glyph-name="uni0237" unicode="&#x237;" horiz-adv-x="306" 
d="M-69 -204q-21 0 -18 20l16 91q3 20 25 20h24q22 0 27 22l98 557q3 20 24 20h140q21 0 18 -20l-102 -577q-6 -36 -17 -61t-29 -41t-46 -23.5t-69 -7.5h-91z" />
    <glyph glyph-name="circumflex" unicode="&#x2c6;" horiz-adv-x="523" 
d="M334 656l-60 -50q-11 -8 -19.5 -13.5t-22.5 -5.5h-111q-10 0 -12 7.5t6 15.5l98 102q17 20 43 20h177q14 0 22 -5t13 -15l62 -102q5 -8 0.5 -15.5t-14.5 -7.5h-103q-14 0 -21 5.5t-15 13.5z" />
    <glyph glyph-name="caron" unicode="&#x2c7;" horiz-adv-x="523" 
d="M388 713q11 8 20 13.5t23 5.5h111q10 0 11.5 -7.5t-5.5 -15.5l-98 -102q-18 -20 -43 -20h-177q-26 0 -35 20l-62 102q-5 8 -0.5 15.5t14.5 7.5h103q14 0 20.5 -5.5t14.5 -13.5l42 -50z" />
    <glyph glyph-name="breve" unicode="&#x2d8;" horiz-adv-x="440" 
d="M233 732q18 0 18 -17q0 -2 -0.5 -4.5t-0.5 -4.5q0 -13 13.5 -17.5t30.5 -4.5q18 0 34 5.5t19 21.5q2 10 9 15.5t17 5.5h78q21 0 18 -21q-10 -73 -57 -104t-127 -31q-72 0 -115.5 24.5t-43.5 81.5q0 14 3 29q3 21 26 21h78z" />
    <glyph glyph-name="dotaccent" unicode="&#x2d9;" horiz-adv-x="262" 
d="M128 706q2 10 9 15.5t17 5.5h118q21 0 18 -21l-16 -93q-5 -21 -26 -21h-118q-10 0 -15 5.5t-3 15.5z" />
    <glyph glyph-name="ring" unicode="&#x2da;" horiz-adv-x="380" 
d="M272 730q-36 0 -50 -14.5t-14 -34.5q0 -14 11 -22.5t39 -8.5q35 0 49.5 14t14.5 35q0 14 -11 22.5t-39 8.5zM285 802q34 0 57.5 -7.5t37.5 -20t20.5 -29.5t6.5 -36q0 -28 -9 -52t-28.5 -41.5t-50 -27.5t-74.5 -10q-68 0 -95.5 27t-27.5 65q0 28 9 52t28.5 42t50.5 28
t75 10z" />
    <glyph glyph-name="ogonek" unicode="&#x2db;" horiz-adv-x="352" 
d="M92 -204q-60 0 -85 22t-25 54q0 41 26 76t63 52h79q-34 -17 -46 -32t-12 -29q0 -23 33 -23h94q21 0 18 -21l-14 -78q-3 -21 -25 -21h-106z" />
    <glyph glyph-name="tilde" unicode="&#x2dc;" horiz-adv-x="495" 
d="M395 702q26 0 32 21q5 19 24 19h58q20 0 17 -19q-13 -74 -50.5 -107t-88.5 -33q-32 0 -53.5 7t-37.5 15t-28.5 15t-25.5 7q-27 0 -33 -21q-5 -19 -24 -19h-58q-20 0 -17 19q14 74 51 107t88 33q32 0 53.5 -7t37.5 -15t28.5 -15t26.5 -7z" />
    <glyph glyph-name="hungarumlaut" unicode="&#x2dd;" horiz-adv-x="606" 
d="M263 607q-10 -8 -21 -14t-26 -6h-93q-9 0 -12.5 7t4.5 16l90 102q18 20 43 20h134q9 0 12 -8t-7 -16zM504 607q-10 -8 -21 -14t-26 -6h-93q-9 0 -12.5 7t4.5 16l90 102q18 20 43 20h134q9 0 12 -8t-7 -16z" />
    <glyph glyph-name="pi" unicode="&#x3c0;" horiz-adv-x="698" 
d="M332 380l-154 -360q-8 -20 -30 -20h-141q-19 0 -11 20l153 360h-50q-22 0 -16 20l32 106q6 20 26 20h568q21 0 16 -20l-32 -106q-6 -20 -26 -20h-49l-65 -210q-2 -8 -2 -9q0 -8 4 -11.5t15 -3.5h19q22 0 16 -20l-33 -106q-6 -20 -26 -20h-88q-57 0 -83 17t-26 56
q0 22 11 60l75 247h-103z" />
    <glyph glyph-name="uni1E02" unicode="&#x1e02;" horiz-adv-x="837" 
d="M704 700q75 0 109 -26.5t34 -86.5q0 -11 -1 -22.5t-3 -24.5l-6 -32q-7 -35 -15.5 -62t-22.5 -46t-36.5 -30.5t-56.5 -16.5q91 -16 91 -107q0 -11 -1.5 -23t-3.5 -26l-6 -37q-7 -42 -17.5 -72.5t-31.5 -50t-56 -28.5t-90 -9h-550q-23 0 -20 22l116 656q5 22 27 22h540z
M268 276l-20 -115h282q30 0 43.5 11t18.5 38l3 17q1 5 1.5 9t0.5 8q0 32 -47 32h-282zM296 430h272q29 0 43 10.5t19 37.5l2 12q1 5 1 8.5v7.5q0 18 -10.5 25.5t-34.5 7.5h-273zM453 870q2 10 9 15.5t17 5.5h118q21 0 18 -21l-16 -93q-5 -21 -26 -21h-118q-10 0 -15 5.5
t-3 15.5z" />
    <glyph glyph-name="uni1E03" unicode="&#x1e03;" horiz-adv-x="674" 
d="M140 720q5 20 25 20h140q22 0 17 -20l-44 -252q19 29 52.5 43.5t90.5 14.5h103q66 0 97 -24t31 -76q0 -10 -1 -20.5t-3 -22.5l-42 -240q-7 -38 -16 -65t-27.5 -44t-49.5 -25.5t-81 -8.5h-112q-64 0 -94.5 25t-32.5 75l-14 -80q-3 -20 -24 -20h-120q-21 0 -18 20zM336 380
q-39 0 -59 -16.5t-26 -48.5l-18 -104q-1 -5 -1.5 -9.5t-0.5 -9.5q0 -23 15 -34.5t48 -11.5h69q20 0 32 2t19.5 7.5t11.5 15.5t7 27l23 130q3 15 3 24q0 17 -11.5 22.5t-42.5 5.5h-69zM389 706q2 10 9 15.5t17 5.5h118q21 0 18 -21l-16 -93q-5 -21 -26 -21h-118
q-10 0 -15 5.5t-3 15.5z" />
    <glyph glyph-name="uni1E0A" unicode="&#x1e0a;" horiz-adv-x="850" 
d="M795 211q-9 -50 -26.5 -89.5t-48 -66.5t-75.5 -41t-108 -14h-496q-23 0 -20 22l116 656q5 22 27 22h496q91 0 139.5 -42t48.5 -120q0 -26 -4 -49zM637 462q1 7 1.5 13t0.5 11q0 29 -19 41t-61 12h-244l-67 -378h244q51 0 74 17t31 60zM450 870q2 10 9 15.5t17 5.5h118
q21 0 18 -21l-16 -93q-5 -21 -26 -21h-118q-10 0 -15 5.5t-3 15.5z" />
    <glyph glyph-name="uni1E0B" unicode="&#x1e0b;" horiz-adv-x="674" 
d="M421 86q-17 -43 -53 -64.5t-105 -21.5h-113q-66 0 -97 23.5t-31 76.5q0 10 1 20.5t3 22.5l42 240q7 37 16 64.5t27.5 44.5t49.5 25.5t81 8.5h104q100 0 120 -67l46 261q5 20 25 20h140q22 0 17 -20l-123 -700q-3 -20 -24 -20h-120q-21 0 -18 20zM441 315q1 5 1.5 9.5
t0.5 8.5q0 47 -62 47h-70q-20 0 -32.5 -2t-20 -7.5t-11.5 -16t-7 -26.5l-23 -130q-3 -14 -3 -23q0 -18 11.5 -23.5t43.5 -5.5h70q38 0 58 16.5t26 48.5zM279 706q2 10 9 15.5t17 5.5h118q21 0 18 -21l-16 -93q-5 -21 -26 -21h-118q-10 0 -15 5.5t-3 15.5z" />
    <glyph glyph-name="uni1E1E" unicode="&#x1e1e;" horiz-adv-x="762" 
d="M294 422h376q23 0 20 -22l-21 -117q-3 -22 -27 -22h-376l-43 -239q-3 -22 -27 -22h-155q-23 0 -20 22l116 656q5 22 27 22h634q24 0 19 -22l-21 -117q-3 -22 -26 -22h-455zM433 870q2 10 9 15.5t17 5.5h118q21 0 18 -21l-16 -93q-5 -21 -26 -21h-118q-10 0 -15 5.5
t-3 15.5z" />
    <glyph glyph-name="uni1E1F" unicode="&#x1e1f;" horiz-adv-x="411" 
d="M97 380h-38q-21 0 -18 20l19 106q3 20 24 20h38l11 61q7 37 18 66t31.5 48t53.5 29t83 10h143q22 0 17 -20l-18 -106q-5 -20 -25 -20h-58q-20 0 -32.5 -2t-20 -7.5t-11.5 -16t-7 -26.5l-3 -16h120q21 0 18 -20l-19 -106q-3 -20 -24 -20h-120l-64 -360q-3 -20 -24 -20
h-140q-21 0 -18 20zM251 910q2 10 9 15.5t17 5.5h118q21 0 18 -21l-16 -93q-5 -21 -26 -21h-118q-10 0 -15 5.5t-3 15.5z" />
    <glyph glyph-name="uni1E40" unicode="&#x1e40;" horiz-adv-x="1076" 
d="M428 700q27 0 29 -21l60 -468l224 468q10 21 37 21h290q24 0 19 -22l-116 -656q-3 -22 -26 -22h-156q-23 0 -20 22l90 511l-253 -512q-9 -21 -36 -21h-171q-26 0 -29 21l-74 516l-91 -515q-3 -22 -26 -22h-140q-23 0 -20 22l116 656q5 22 27 22h266zM563 870q2 10 9 15.5
t17 5.5h118q21 0 18 -21l-16 -93q-5 -21 -26 -21h-118q-10 0 -15 5.5t-3 15.5z" />
    <glyph glyph-name="uni1E41" unicode="&#x1e41;" horiz-adv-x="980" 
d="M336 380q-39 0 -59 -16.5t-26 -48.5l-52 -295q-3 -20 -24 -20h-140q-21 0 -18 20l86 486q3 20 24 20h120q21 0 18 -20l-12 -69q9 22 21.5 38.5t31.5 27.5t45 17t61 6h55q121 0 127 -89q8 22 19.5 38.5t30.5 27.5t46 17t65 6h69q66 0 97 -24t31 -76q0 -10 -1 -20.5
t-3 -22.5l-64 -363q-3 -20 -24 -20h-140q-21 0 -18 20l54 308q3 15 3 24q0 17 -11.5 22.5t-42.5 5.5h-27q-38 0 -58 -16.5t-26 -48.5l-52 -295q-3 -20 -24 -20h-140q-21 0 -18 20l54 308q3 15 3 24q0 17 -11.5 22.5t-42.5 5.5h-27zM487 706q2 10 9 15.5t17 5.5h118
q21 0 18 -21l-16 -93q-5 -21 -26 -21h-118q-10 0 -15 5.5t-3 15.5z" />
    <glyph glyph-name="uni1E56" unicode="&#x1e56;" horiz-adv-x="820" 
d="M813 373q-7 -42 -18 -72.5t-32 -50t-55.5 -28.5t-89.5 -9h-361l-34 -191q-3 -22 -27 -22h-155q-23 0 -20 22l116 656q5 22 27 22h540q75 0 109 -26.5t34 -86.5q0 -11 -1 -22.5t-3 -24.5zM315 539l-30 -165h259q22 0 35.5 2t21.5 8.5t12.5 17.5t7.5 29l9 51q3 16 3 27
q0 19 -12.5 24.5t-46.5 5.5h-259zM450 870q2 10 9 15.5t17 5.5h118q21 0 18 -21l-16 -93q-5 -21 -26 -21h-118q-10 0 -15 5.5t-3 15.5z" />
    <glyph glyph-name="uni1E57" unicode="&#x1e57;" horiz-adv-x="674" 
d="M253 437q9 22 21.5 38.5t31.5 27.5t45 17t61 6h112q66 0 97 -24t31 -76q0 -10 -1 -20.5t-3 -22.5l-42 -240q-7 -38 -16 -65t-27.5 -44t-49.5 -25.5t-81 -8.5h-103q-101 0 -122 68l-44 -252q-3 -20 -24 -20h-140q-21 0 -18 20l122 690q3 20 24 20h120q21 0 18 -20z
M336 380q-39 0 -59 -16.5t-26 -48.5l-18 -104q-1 -5 -1.5 -9.5t-0.5 -9.5q0 -23 15 -34.5t48 -11.5h69q20 0 32.5 2t20 7.5t11 15.5t6.5 27l23 130q3 15 3 24q0 17 -11.5 22.5t-42.5 5.5h-69zM339 706q2 10 9 15.5t17 5.5h118q21 0 18 -21l-16 -93q-5 -21 -26 -21h-118
q-10 0 -15 5.5t-3 15.5z" />
    <glyph glyph-name="uni1E60" unicode="&#x1e60;" horiz-adv-x="815" 
d="M517 161q25 0 35.5 8t13.5 27l8 45q1 4 1 10q0 14 -8.5 19.5t-29.5 5.5h-324q-75 0 -109.5 26.5t-34.5 85.5q0 11 1.5 22.5t3.5 25.5l19 104q7 42 17.5 72t31.5 49.5t55.5 29t90.5 9.5h392q75 0 108 -22t33 -79q0 -25 -6 -56l-7 -41q-3 -22 -27 -22h-150q-22 0 -19 22
l1 6q1 5 1 10q0 21 -28 21h-248q-25 0 -35.5 -8t-14.5 -27l-7 -39q-1 -4 -1 -11q0 -13 8.5 -18.5t29.5 -5.5h324q75 0 109.5 -26.5t34.5 -84.5q0 -11 -1.5 -23t-3.5 -26l-19 -110q-8 -42 -18.5 -72.5t-31 -50t-55.5 -28.5t-90 -9h-415q-76 0 -109 22t-33 78q0 25 6 57l7 41
q5 22 27 22h150q11 0 16 -5.5t3 -16.5l-1 -5q-1 -4 -1 -10q0 -22 28 -22h272zM432 870q2 10 9 15.5t17 5.5h118q21 0 18 -21l-16 -93q-5 -21 -26 -21h-118q-10 0 -15 5.5t-3 15.5z" />
    <glyph glyph-name="uni1E61" unicode="&#x1e61;" horiz-adv-x="637" 
d="M578 133q-6 -36 -14 -61t-25 -41t-46 -23.5t-77 -7.5h-293q-63 0 -91.5 21t-28.5 70q0 9 1 19.5t3 22.5l6 35q3 20 25 20h136q22 0 17 -20q-1 -3 -1.5 -5t-0.5 -4q0 -15 19 -15h159q32 0 36 29l2 12q1 5 1 11q0 25 -26 25h-210q-61 0 -90 17.5t-29 67.5q0 11 1.5 22.5
t3.5 25.5l7 39q6 36 14 61t24.5 41t45.5 23.5t77 7.5h270q63 0 91.5 -21.5t28.5 -69.5q0 -22 -4 -42l-6 -35q-5 -20 -25 -20h-136q-20 0 -17 20q1 7 1 8v3q0 13 -18 13h-136q-29 0 -35 -29l-4 -18q-1 -2 -1 -4.5v-4.5q0 -21 26 -21h210q62 0 91 -18t29 -69q0 -10 -1 -21.5
t-3 -24.5zM315 706q2 10 9 15.5t17 5.5h118q21 0 18 -21l-16 -93q-5 -21 -26 -21h-118q-10 0 -15 5.5t-3 15.5z" />
    <glyph glyph-name="uni1E6A" unicode="&#x1e6a;" horiz-adv-x="754" 
d="M325 539h-239q-23 0 -20 22l21 117q5 22 27 22h680q24 0 19 -22l-21 -117q-3 -22 -26 -22h-239l-92 -517q-3 -22 -26 -22h-156q-23 0 -20 22zM402 870q2 10 9 15.5t17 5.5h118q21 0 18 -21l-16 -93q-5 -21 -26 -21h-118q-10 0 -15 5.5t-3 15.5z" />
    <glyph glyph-name="uni1E6B" unicode="&#x1e6b;" horiz-adv-x="410" 
d="M173 0q-66 0 -97.5 23.5t-31.5 76.5q0 10 1 20.5t3 22.5l42 237h-38q-21 0 -18 20l19 106q3 20 24 20h38l20 114q5 20 25 20h140q22 0 17 -20l-20 -114h110q21 0 18 -20l-19 -106q-3 -20 -24 -20h-110l-37 -205q-1 -3 -1 -8q0 -21 27 -21h79q21 0 18 -20l-19 -106
q-3 -20 -24 -20h-142zM186 834q2 10 9 15.5t17 5.5h118q21 0 18 -21l-16 -93q-5 -21 -26 -21h-118q-10 0 -15 5.5t-3 15.5z" />
    <glyph glyph-name="Wgrave" unicode="&#x1e80;" horiz-adv-x="1144" 
d="M652 0q-23 0 -25 22l-21 442l-176 -442q-8 -22 -31 -22h-244q-23 0 -25 22l-54 656q0 22 21 22h162q24 0 24 -22l29 -514l203 514q9 22 33 22h199q24 0 24 -22l21 -514l211 514q9 22 33 22h165q22 0 13 -22l-286 -656q-8 -22 -31 -22h-245zM521 872q-7 8 -3 16t13 8h139
q25 0 36 -20l54 -102q5 -9 0 -16t-14 -7h-95q-14 0 -23.5 6t-16.5 14z" />
    <glyph glyph-name="wgrave" unicode="&#x1e81;" horiz-adv-x="923" 
d="M115 0q-22 0 -24 20l-45 486q-2 20 18 20h145q21 0 23 -20l20 -362l138 362q7 20 29 20h175q23 0 24 -20l9 -357l146 357q8 20 29 20h149q20 0 12 -20l-218 -486q-8 -20 -29 -20h-208q-21 0 -23 20l-12 306l-118 -306q-8 -20 -29 -20h-211zM382 708q-7 8 -3 16t13 8h139
q25 0 36 -20l54 -102q5 -9 0 -16t-14 -7h-95q-14 0 -23.5 6t-16.5 14z" />
    <glyph glyph-name="Wacute" unicode="&#x1e82;" horiz-adv-x="1144" 
d="M652 0q-23 0 -25 22l-21 442l-176 -442q-8 -22 -31 -22h-244q-23 0 -25 22l-54 656q0 22 21 22h162q24 0 24 -22l29 -514l203 514q9 22 33 22h199q24 0 24 -22l21 -514l211 514q9 22 33 22h165q22 0 13 -22l-286 -656q-8 -22 -31 -22h-245zM717 771q-10 -8 -21 -14
t-26 -6h-106q-9 0 -12.5 7t4.5 16l90 102q18 20 43 20h147q9 0 12 -8t-7 -16z" />
    <glyph glyph-name="wacute" unicode="&#x1e83;" horiz-adv-x="923" 
d="M115 0q-22 0 -24 20l-45 486q-2 20 18 20h145q21 0 23 -20l20 -362l138 362q7 20 29 20h175q23 0 24 -20l9 -357l146 357q8 20 29 20h149q20 0 12 -20l-218 -486q-8 -20 -29 -20h-208q-21 0 -23 20l-12 306l-118 -306q-8 -20 -29 -20h-211zM578 607q-10 -8 -21 -14
t-26 -6h-106q-9 0 -12.5 7t4.5 16l90 102q18 20 43 20h147q9 0 12 -8t-7 -16z" />
    <glyph glyph-name="Wdieresis" unicode="&#x1e84;" horiz-adv-x="1144" 
d="M652 0q-23 0 -25 22l-21 442l-176 -442q-8 -22 -31 -22h-244q-23 0 -25 22l-54 656q0 22 21 22h162q24 0 24 -22l29 -514l203 514q9 22 33 22h199q24 0 24 -22l21 -514l211 514q9 22 33 22h165q22 0 13 -22l-286 -656q-8 -22 -31 -22h-245zM476 870q2 10 9 15.5t17 5.5
h118q21 0 18 -21l-16 -93q-5 -21 -26 -21h-118q-10 0 -15 5.5t-3 15.5zM718 870q3 21 26 21h118q21 0 18 -21l-16 -93q-5 -21 -26 -21h-118q-23 0 -18 21z" />
    <glyph glyph-name="wdieresis" unicode="&#x1e85;" horiz-adv-x="923" 
d="M115 0q-22 0 -24 20l-45 486q-2 20 18 20h145q21 0 23 -20l20 -362l138 362q7 20 29 20h175q23 0 24 -20l9 -357l146 357q8 20 29 20h149q20 0 12 -20l-218 -486q-8 -20 -29 -20h-208q-21 0 -23 20l-12 306l-118 -306q-8 -20 -29 -20h-211zM337 706q2 10 9 15.5t17 5.5
h118q21 0 18 -21l-16 -93q-5 -21 -26 -21h-118q-10 0 -15 5.5t-3 15.5zM579 706q3 21 26 21h118q21 0 18 -21l-16 -93q-5 -21 -26 -21h-118q-23 0 -18 21z" />
    <glyph glyph-name="Ygrave" unicode="&#x1ef2;" horiz-adv-x="804" 
d="M299 255l-220 423q-4 8 0.5 15t13.5 7h183q12 0 18.5 -3t11.5 -14l119 -258l211 258q8 11 16.5 14t20.5 3h192q9 0 11 -7t-5 -15l-370 -423l-41 -233q-3 -22 -26 -22h-156q-23 0 -20 22zM351 872q-7 8 -3 16t13 8h139q25 0 36 -20l54 -102q5 -9 0 -16t-14 -7h-95
q-14 0 -23.5 6t-16.5 14z" />
    <glyph glyph-name="ygrave" unicode="&#x1ef3;" 
d="M7 -57q5 20 25 20h135q22 0 17 -20v-3q0 -13 15 -13h106q35 0 49 11t19 41l13 76q-19 -27 -52 -41t-89 -14h-88q-66 0 -97.5 23.5t-31.5 76.5q0 10 1 20.5t3 22.5l64 363q3 20 24 20h140q21 0 18 -20l-55 -308q-2 -7 -2 -12.5v-10.5q0 -18 11 -23.5t43 -5.5h55
q38 0 58 16.5t26 48.5l52 295q3 20 24 20h140q21 0 18 -20l-97 -548q-7 -40 -19 -70.5t-34 -50.5t-56.5 -30.5t-87.5 -10.5h-231q-63 0 -92.5 22.5t-29.5 72.5q0 20 4 40zM250 708q-7 8 -3 16t13 8h139q25 0 36 -20l54 -102q5 -9 0 -16t-14 -7h-95q-14 0 -23.5 6t-16.5 14z
" />
    <glyph glyph-name="figuredash" unicode="&#x2012;" horiz-adv-x="857" 
d="M15 231q-22 0 -17 20l17 98q3 20 25 20h815q20 0 17 -20l-17 -98q-5 -20 -25 -20h-815z" />
    <glyph glyph-name="endash" unicode="&#x2013;" horiz-adv-x="500" 
d="M15 231q-22 0 -17 20l17 98q3 20 25 20h458q20 0 17 -20l-17 -98q-5 -20 -25 -20h-458z" />
    <glyph glyph-name="emdash" unicode="&#x2014;" horiz-adv-x="1000" 
d="M15 231q-22 0 -17 20l17 98q3 20 25 20h958q20 0 17 -20l-17 -98q-5 -20 -25 -20h-958z" />
    <glyph glyph-name="quoteleft" unicode="&#x2018;" horiz-adv-x="300" 
d="M223 685q13 15 32 15h56q8 0 11 -6.5t-5 -14.5l-111 -137h76q24 0 19 -22l-23 -129q-3 -22 -26 -22h-166q-23 0 -20 22l23 129q3 21 18 37z" />
    <glyph glyph-name="quoteright" unicode="&#x2019;" horiz-adv-x="300" 
d="M171 384q-12 -15 -31 -15h-56q-8 0 -11.5 6.5t4.5 14.5l112 137h-76q-23 0 -20 22l23 129q5 22 27 22h166q24 0 19 -22l-23 -129q-3 -22 -17 -37z" />
    <glyph glyph-name="quotesinglbase" unicode="&#x201a;" horiz-adv-x="300" 
d="M79 -143q-12 -15 -31 -15h-56q-8 0 -11.5 6.5t4.5 14.5l112 137h-76q-23 0 -20 22l23 129q5 22 27 22h166q24 0 19 -22l-23 -129q-3 -22 -17 -37z" />
    <glyph glyph-name="quotedblleft" unicode="&#x201c;" horiz-adv-x="580" 
d="M223 685q13 15 32 15h56q8 0 11 -6.5t-5 -14.5l-111 -137h76q24 0 19 -22l-23 -129q-3 -22 -26 -22h-166q-23 0 -20 22l23 129q3 21 18 37zM503 685q13 15 32 15h56q8 0 11 -6.5t-5 -14.5l-111 -137h76q24 0 19 -22l-23 -129q-3 -22 -26 -22h-166q-23 0 -20 22l23 129
q3 21 18 37z" />
    <glyph glyph-name="quotedblright" unicode="&#x201d;" horiz-adv-x="580" 
d="M171 384q-12 -15 -31 -15h-56q-8 0 -11.5 6.5t4.5 14.5l112 137h-76q-23 0 -20 22l23 129q5 22 27 22h166q24 0 19 -22l-23 -129q-3 -22 -17 -37zM451 384q-12 -15 -31 -15h-56q-8 0 -11.5 6.5t4.5 14.5l112 137h-76q-23 0 -20 22l23 129q5 22 27 22h166q24 0 19 -22
l-23 -129q-3 -22 -17 -37z" />
    <glyph glyph-name="quotedblbase" unicode="&#x201e;" horiz-adv-x="580" 
d="M79 -143q-12 -15 -31 -15h-56q-8 0 -11.5 6.5t4.5 14.5l112 137h-76q-23 0 -20 22l23 129q5 22 27 22h166q24 0 19 -22l-23 -129q-3 -22 -17 -37zM359 -143q-12 -15 -31 -15h-56q-8 0 -11.5 6.5t4.5 14.5l112 137h-76q-23 0 -20 22l23 129q5 22 27 22h166q24 0 19 -22
l-23 -129q-3 -22 -17 -37z" />
    <glyph glyph-name="dagger" unicode="&#x2020;" horiz-adv-x="626" 
d="M207 220q0 18 3.5 30.5t10.5 25.5l75 140l-232 -53q-11 -2 -16 2.5t-3 14.5l26 149q3 22 25 17l216 -54l-23 187q-2 9 4.5 15t17.5 6h156q11 0 15 -6t-1 -15l-89 -188l237 55q10 2 16 -2.5t4 -14.5l-26 -149q-2 -10 -9.5 -14.5t-16.5 -2.5l-216 54l26 -141q3 -14 1 -28
t-7 -28l-136 -405q-6 -19 -27 -19h-16q-21 0 -21 19z" />
    <glyph glyph-name="daggerdbl" unicode="&#x2021;" horiz-adv-x="626" 
d="M322 80l234 54q23 5 20 -17l-26 -149q-2 -10 -9.5 -14.5t-16.5 -2.5l-218 54l23 -187q1 -9 -4.5 -15t-16.5 -6h-156q-11 0 -15 6t0 15l89 187l-235 -54q-22 -5 -19 17l26 149q2 10 9 14.5t16 2.5l214 -54l-24 138q-3 17 0 30.5t11 29.5l72 138l-232 -53q-11 -2 -16 2.5
t-3 14.5l26 149q3 22 25 17l216 -54l-23 187q-2 9 4.5 15t17.5 6h156q11 0 15 -6t-1 -15l-89 -188l237 55q10 2 16 -2.5t4 -14.5l-26 -149q-2 -10 -9.5 -14.5t-16.5 -2.5l-216 54l25 -139q6 -31 -11 -60z" />
    <glyph glyph-name="bullet" unicode="&#x2022;" horiz-adv-x="500" 
d="M48 350q0 43 16 80.5t44.5 65.5t68.5 44t87 16q48 0 87.5 -16t68.5 -44t45 -65.5t16 -80.5t-16 -80.5t-45 -65.5t-68.5 -44t-87.5 -16q-47 0 -87 16t-68.5 44t-44.5 65.5t-16 80.5z" />
    <glyph glyph-name="ellipsis" unicode="&#x2026;" horiz-adv-x="1000" 
d="M698 151q5 22 27 22h166q24 0 19 -22l-23 -129q-3 -22 -26 -22h-166q-23 0 -20 22zM373 151q5 22 27 22h166q24 0 19 -22l-23 -129q-3 -22 -26 -22h-166q-23 0 -20 22zM51 151q5 22 27 22h166q24 0 19 -22l-23 -129q-3 -22 -26 -22h-166q-23 0 -20 22z" />
    <glyph glyph-name="perthousand" unicode="&#x2030;" horiz-adv-x="1613" 
d="M1172 329q4 27 11.5 46t21 31t35.5 18t55 6h202q91 0 91 -71q0 -14 -3 -30l-41 -228q-5 -27 -12 -46t-20.5 -31t-35 -18t-54.5 -6h-202q-48 0 -70 16.5t-22 54.5q0 13 3 30zM1351 320q-28 0 -37.5 -6.5t-14.5 -30.5l-24 -136q-1 -5 -1.5 -8.5t-0.5 -6.5q0 -14 9 -18
t32 -4h51q29 0 38 6.5t13 30.5l24 136q1 5 1.5 9t0.5 8q0 13 -8.5 16.5t-31.5 3.5h-51zM99 599q5 27 12.5 46t21 31t35.5 18t55 6h202q47 0 68.5 -16.5t21.5 -53.5q0 -15 -3 -31l-40 -228q-5 -27 -12.5 -46t-21 -31t-35 -18t-54.5 -6h-202q-47 0 -69 16.5t-22 53.5
q0 13 3 31zM703 329q4 27 11.5 46t21 31t35.5 18t55 6h202q91 0 91 -71q0 -14 -3 -30l-41 -228q-5 -27 -12 -46t-20.5 -31t-35 -18t-54.5 -6h-202q-48 0 -70 16.5t-22 54.5q0 13 3 30zM279 590q-28 0 -37.5 -6.5t-14.5 -30.5l-24 -136q-1 -5 -1.5 -9t-0.5 -7q0 -14 9 -17.5
t32 -3.5h51q29 0 37.5 6.5t13.5 30.5l24 136q1 5 1.5 9t0.5 8q0 13 -8.5 16.5t-31.5 3.5h-51zM882 320q-28 0 -37.5 -6.5t-14.5 -30.5l-24 -136q-1 -5 -1.5 -8.5t-0.5 -6.5q0 -14 9 -18t32 -4h51q29 0 38 6.5t13 30.5l24 136q1 5 1.5 9t0.5 8q0 13 -8.5 16.5t-31.5 3.5h-51z
M383 20q-8 -9 -16.5 -14.5t-22.5 -5.5h-104q-10 0 -12.5 7.5t4.5 15.5l558 657q8 9 17 14.5t23 5.5h105q9 0 11.5 -7.5t-4.5 -15.5z" />
    <glyph glyph-name="guilsinglleft" unicode="&#x2039;" horiz-adv-x="380" 
d="M18 253q-2 3 -3 5.5t-1 5.5q0 6 2.5 10t7.5 9l183 188q9 9 16 12t18 3h157q8 0 9 -6.5t-5 -13.5l-208 -210l123 -196q5 -7 1.5 -13.5t-11.5 -6.5h-139q-11 0 -17.5 3t-12.5 12z" />
    <glyph glyph-name="guilsinglright" unicode="&#x203a;" horiz-adv-x="380" 
d="M177 55q-9 -9 -16 -12t-18 -3h-157q-8 0 -9 6.5t5 13.5l208 210l-123 196q-5 7 -1.5 13.5t11.5 6.5h139q11 0 17.5 -3t12.5 -12l120 -198q3 -6 3 -11q0 -10 -9 -19z" />
    <glyph glyph-name="fraction" unicode="&#x2044;" horiz-adv-x="177" 
d="M-99 20q-8 -9 -17 -14.5t-23 -5.5h-103q-10 0 -12.5 7.5t4.5 15.5l557 657q9 9 17.5 14.5t22.5 5.5h104q9 0 12.5 -7.5t-4.5 -15.5z" />
    <glyph glyph-name="uni2070" unicode="&#x2070;" horiz-adv-x="562" 
d="M99 599q5 27 12.5 46t21 31t35.5 18t55 6h271q46 0 68 -16.5t22 -53.5q0 -15 -3 -31l-42 -238q-5 -27 -12 -46t-21 -31t-35.5 -18t-54.5 -6h-271q-48 0 -69.5 16.5t-21.5 54.5q0 13 3 30zM279 590q-28 0 -37.5 -6.5t-14.5 -30.5l-26 -146q-1 -5 -1.5 -8.5t-0.5 -6.5
q0 -14 9 -18t32 -4h119q29 0 38 6.5t13 30.5l26 146q1 5 1.5 9t0.5 8q0 13 -8.5 16.5t-31.5 3.5h-119z" />
    <glyph glyph-name="uni2074" unicode="&#x2074;" horiz-adv-x="562" 
d="M62 435q3 19 18 29l312 224q17 12 32 12h135q18 0 15 -17l-44 -248h32q18 0 15 -17l-13 -76q-3 -17 -21 -17h-32l-9 -48q-3 -17 -21 -17h-101q-18 0 -15 17l9 48h-313q-18 0 -15 17zM393 435l26 145l-205 -145h179z" />
    <glyph glyph-name="uni2075" unicode="&#x2075;" horiz-adv-x="562" 
d="M174 399q13 0 13 -11q0 -3 -0.5 -5t-0.5 -4q0 -9 15 -9h177q17 0 24 5t9 19l6 36q0 2 0.5 4t0.5 4q0 16 -25 16h-167q-11 0 -18.5 -4.5t-11.5 -11.5q-6 -10 -17 -10h-90q-18 0 -15 17l51 238q3 17 21 17h425q18 0 15 -17l-13 -76q-3 -17 -21 -17h-320l-15 -69
q12 11 29 17.5t40 6.5h184q47 0 68.5 -17t21.5 -54q0 -14 -3 -30l-15 -83q-5 -27 -12 -46t-21 -31t-35.5 -18t-54.5 -6h-285q-47 0 -67.5 13.5t-20.5 48.5q0 8 1 16.5t3 19.5l4 24q3 17 21 17h99z" />
    <glyph glyph-name="uni2076" unicode="&#x2076;" horiz-adv-x="562" 
d="M457 561q-14 0 -14 10q0 2 0.5 5t0.5 5q0 9 -12 9h-155q-26 0 -36 -7.5t-14 -28.5l-10 -55q30 32 88 32h167q47 0 68.5 -16.5t21.5 -53.5q0 -15 -3 -31l-12 -69q-5 -27 -12 -46t-20.5 -31t-35.5 -18t-55 -6h-279q-48 0 -69.5 16.5t-21.5 54.5q0 13 3 30l36 204
q6 36 16.5 61.5t29 42t47 24t71.5 7.5h240q48 0 68 -14t20 -49q0 -16 -3 -35l-5 -24q-3 -17 -21 -17h-99zM257 440q-25 0 -38.5 -9t-18.5 -30q-1 -3 -1 -9q0 -14 9 -18t32 -4h143q17 0 24.5 5t9.5 19l4 22q1 4 1 7q0 17 -27 17h-138z" />
    <glyph glyph-name="uni2077" unicode="&#x2077;" horiz-adv-x="562" 
d="M600 700q18 0 15 -17l-15 -87q-2 -8 -7 -15t-12 -14l-269 -291q-8 -8 -16 -12t-19 -4h-137q-8 0 -9.5 6t6.5 13l308 311h-218l-8 -41q-3 -17 -21 -17h-98q-17 0 -14 17l24 134q3 17 20 17h470z" />
    <glyph glyph-name="uni2078" unicode="&#x2078;" horiz-adv-x="562" 
d="M579 576q-8 -43 -23.5 -66t-56.5 -30q55 -12 55 -67q0 -14 -3 -30l-4 -22q-5 -27 -12.5 -46t-21 -31t-35 -18t-54.5 -6h-289q-47 0 -68.5 16.5t-21.5 54.5q0 13 3 30l4 23q7 44 25 67.5t63 29.5q-50 11 -50 66q0 13 3 30l4 22q5 27 12 46t20.5 31t35.5 18t55 6h276
q46 0 68 -16.5t22 -53.5q0 -15 -3 -31zM227 435q-17 0 -24 -5t-9 -19l-3 -15q-1 -4 -1 -10q0 -16 26 -16h167q17 0 24.5 5t9.5 19l3 16q1 3 1 8q0 17 -27 17h-167zM265 590q-17 0 -24.5 -5t-10.5 -19l-3 -15q-1 -3 -1 -8q0 -17 27 -17h151q17 0 24 5t9 19l3 16q1 4 1 8
q0 16 -25 16h-151z" />
    <glyph glyph-name="uni2079" unicode="&#x2079;" horiz-adv-x="562" 
d="M181 399q13 0 13 -11q0 -2 -0.5 -4.5t-0.5 -4.5q0 -9 14 -9h155q26 0 35.5 7.5t13.5 28.5l9 55q-29 -32 -87 -32h-167q-47 0 -68.5 16.5t-21.5 52.5q0 14 3 32l12 69q5 27 12 46t20.5 31t35.5 18t55 6h279q47 0 69 -16.5t22 -53.5q0 -15 -3 -31l-36 -204
q-6 -36 -16.5 -61.5t-29 -42t-47 -24t-71.5 -7.5h-240q-48 0 -68 13.5t-20 48.5q0 17 4 36l4 24q3 17 21 17h99zM438 560q1 4 1 9q0 14 -9 17.5t-31 3.5h-143q-17 0 -25 -5t-10 -19l-4 -22q-1 -3 -1 -7q0 -17 27 -17h138q25 0 38.5 9t18.5 31z" />
    <glyph glyph-name="uni2080" unicode="&#x2080;" horiz-adv-x="562" 
d="M54 339q5 27 12.5 46t21 31t35.5 18t55 6h271q46 0 68 -16.5t22 -53.5q0 -15 -3 -31l-42 -238q-5 -27 -12 -46t-21 -31t-35.5 -18t-54.5 -6h-271q-48 0 -69.5 16.5t-21.5 54.5q0 13 3 30zM234 330q-28 0 -37.5 -6.5t-14.5 -30.5l-26 -146q-1 -5 -1.5 -8.5t-0.5 -6.5
q0 -14 9 -18t32 -4h119q29 0 38 6.5t13 30.5l26 146q1 5 1.5 9t0.5 8q0 13 -8.5 16.5t-31.5 3.5h-119z" />
    <glyph glyph-name="uni2081" unicode="&#x2081;" horiz-adv-x="562" 
d="M223 110l37 211h-103q-18 0 -15 17l11 63q3 17 22 20l104 16q8 2 17.5 2.5t16.5 0.5h86q18 0 15 -17l-55 -313h93q17 0 14 -17l-14 -76q-3 -17 -20 -17h-332q-18 0 -15 17l14 76q3 17 21 17h103z" />
    <glyph glyph-name="uni2082" unicode="&#x2082;" horiz-adv-x="562" 
d="M394 306q1 4 1 8q0 16 -25 16h-162q-16 0 -19 -14l-1 -5q-3 -15 -17 -15h-99q-18 0 -15 17l5 29q5 28 12 46.5t20 30t33.5 16.5t53.5 5h269q46 0 68 -16.5t22 -53.5q0 -15 -3 -31l-12 -70q-5 -27 -12.5 -46t-21 -31t-35 -18t-54.5 -6h-213q-17 0 -24.5 -5.5t-9.5 -19.5
l-6 -33h330q18 0 15 -17l-14 -76q-3 -17 -21 -17h-448q-18 0 -15 17l24 135q9 53 36.5 80t93.5 27h207q17 0 24 5t9 19z" />
    <glyph glyph-name="uni2083" unicode="&#x2083;" horiz-adv-x="562" 
d="M534 317q-8 -43 -24 -66.5t-56 -30.5q55 -12 55 -67q0 -14 -3 -30l-4 -22q-5 -27 -12.5 -46t-21 -31t-35 -18t-54.5 -6h-296q-48 0 -68 13.5t-20 48.5q0 8 0.5 16t2.5 19l5 27q3 17 21 17h99q15 0 12 -15q-1 -4 -1 -6q0 -10 15 -10h189q17 0 24.5 5t9.5 19l3 17q1 3 1 7
q0 17 -27 17h-189q-18 0 -15 17l10 57q3 17 21 17h183q17 0 24 5t9 19l3 16q1 4 1 8q0 16 -25 16h-168q-16 0 -19 -16q-3 -15 -19 -15h-98q-18 0 -15 17l5 26q5 28 12 46.5t20 30t33.5 16.5t53.5 5h275q46 0 68 -16.5t22 -53.5q0 -15 -3 -31z" />
    <glyph glyph-name="uni2084" unicode="&#x2084;" horiz-adv-x="562" 
d="M17 175q3 19 18 29l312 224q17 12 32 12h135q18 0 15 -17l-44 -248h32q18 0 15 -17l-13 -76q-3 -17 -21 -17h-32l-9 -48q-3 -17 -21 -17h-101q-18 0 -15 17l9 48h-313q-18 0 -15 17zM348 175l26 145l-205 -145h179z" />
    <glyph glyph-name="uni2085" unicode="&#x2085;" horiz-adv-x="562" 
d="M129 139q13 0 13 -11q0 -3 -0.5 -5t-0.5 -4q0 -9 15 -9h177q17 0 24 5t9 19l6 36q0 2 0.5 4t0.5 4q0 16 -25 16h-167q-11 0 -18.5 -4.5t-11.5 -11.5q-6 -10 -17 -10h-90q-18 0 -15 17l51 238q3 17 21 17h425q18 0 15 -17l-13 -76q-3 -17 -21 -17h-320l-15 -69
q12 11 29 17.5t40 6.5h184q47 0 68.5 -17t21.5 -54q0 -14 -3 -30l-15 -83q-5 -27 -12 -46t-21 -31t-35.5 -18t-54.5 -6h-285q-47 0 -67.5 13.5t-20.5 48.5q0 8 1 16.5t3 19.5l4 24q3 17 21 17h99z" />
    <glyph glyph-name="uni2086" unicode="&#x2086;" horiz-adv-x="562" 
d="M412 301q-14 0 -14 10q0 2 0.5 5t0.5 5q0 9 -12 9h-155q-26 0 -36 -7.5t-14 -28.5l-10 -55q30 32 88 32h167q47 0 68.5 -16.5t21.5 -53.5q0 -15 -3 -31l-12 -69q-5 -27 -12 -46t-20.5 -31t-35.5 -18t-55 -6h-279q-48 0 -69.5 16.5t-21.5 54.5q0 13 3 30l36 204
q6 36 16.5 61.5t29 42t47 24t71.5 7.5h240q48 0 68 -14t20 -49q0 -16 -3 -35l-5 -24q-3 -17 -21 -17h-99zM212 180q-25 0 -38.5 -9t-18.5 -30q-1 -3 -1 -9q0 -14 9 -18t32 -4h143q17 0 24.5 5t9.5 19l4 22q1 4 1 7q0 17 -27 17h-138z" />
    <glyph glyph-name="uni2087" unicode="&#x2087;" horiz-adv-x="562" 
d="M555 440q18 0 15 -17l-15 -87q-2 -8 -7 -15t-12 -14l-269 -291q-8 -8 -16 -12t-19 -4h-137q-8 0 -9.5 6t6.5 13l308 311h-218l-8 -41q-3 -17 -21 -17h-98q-17 0 -14 17l24 134q3 17 20 17h470z" />
    <glyph glyph-name="uni2088" unicode="&#x2088;" horiz-adv-x="562" 
d="M534 316q-8 -43 -23.5 -66t-56.5 -30q55 -12 55 -67q0 -14 -3 -30l-4 -22q-5 -27 -12.5 -46t-21 -31t-35 -18t-54.5 -6h-289q-47 0 -68.5 16.5t-21.5 54.5q0 13 3 30l4 23q7 44 25 67.5t63 29.5q-50 11 -50 66q0 13 3 30l4 22q5 27 12 46t20.5 31t35.5 18t55 6h276
q46 0 68 -16.5t22 -53.5q0 -15 -3 -31zM182 175q-17 0 -24 -5t-9 -19l-3 -15q-1 -4 -1 -10q0 -16 26 -16h167q17 0 24.5 5t9.5 19l3 16q1 3 1 8q0 17 -27 17h-167zM220 330q-17 0 -24.5 -5t-10.5 -19l-3 -15q-1 -3 -1 -8q0 -17 27 -17h151q17 0 24 5t9 19l3 16q1 4 1 8
q0 16 -25 16h-151z" />
    <glyph glyph-name="uni2089" unicode="&#x2089;" horiz-adv-x="562" 
d="M136 139q13 0 13 -11q0 -2 -0.5 -4.5t-0.5 -4.5q0 -9 14 -9h155q26 0 35.5 7.5t13.5 28.5l9 55q-29 -32 -87 -32h-167q-47 0 -68.5 16.5t-21.5 52.5q0 14 3 32l12 69q5 27 12 46t20.5 31t35.5 18t55 6h279q47 0 69 -16.5t22 -53.5q0 -15 -3 -31l-36 -204
q-6 -36 -16.5 -61.5t-29 -42t-47 -24t-71.5 -7.5h-240q-48 0 -68 13.5t-20 48.5q0 17 4 36l4 24q3 17 21 17h99zM393 300q1 4 1 9q0 14 -9 17.5t-31 3.5h-143q-17 0 -25 -5t-10 -19l-4 -22q-1 -3 -1 -7q0 -17 27 -17h138q25 0 38.5 9t18.5 31z" />
    <glyph glyph-name="Euro" unicode="&#x20ac;" horiz-adv-x="857" 
d="M279 215q-3 -17 -3 -28q0 -23 14.5 -30t53.5 -7h232q34 0 40 32l3 17q3 21 25 21h136q22 0 19 -21l-7 -40q-8 -44 -17.5 -74.5t-29.5 -49.5t-54.5 -27t-91.5 -8h-376q-75 0 -110 26.5t-35 85.5q0 11 1.5 22.5t3.5 25.5l9 55h-66q-23 0 -13 21l32 65q8 18 30 18h36l11 62
h-66q-11 0 -15 5.5t1 15.5l32 65q8 18 30 18h36l10 55q7 42 18 72t32 49.5t56 29t90 9.5h376q75 0 109 -23.5t34 -80.5q0 -24 -6 -55l-7 -40q-3 -21 -26 -21h-136q-21 0 -18 21l3 17q1 4 1 9q0 23 -30 23h-232q-24 0 -39.5 -2.5t-24.5 -9.5t-14 -20t-9 -33h239
q11 0 14.5 -5.5t-1.5 -15.5l-31 -65q-8 -18 -30 -18h-210l-11 -62h187q23 0 13 -21l-31 -65q-10 -18 -31 -18h-156z" />
    <glyph glyph-name="uni20B9" unicode="&#x20b9;" horiz-adv-x="857" 
d="M154 203q-16 11 -13 32l13 73q3 21 26 21h227q24 0 39 2t24 9t14 19t9 32h-411q-21 0 -18 21l11 59q3 21 25 21h411l10 58h-411q-21 0 -18 21l19 108q5 21 26 21h738q23 0 18 -21l-19 -108q-3 -21 -26 -21h-140l-10 -58h140q22 0 19 -21l-11 -59q-3 -21 -26 -21h-140
l-5 -33q-8 -42 -18.5 -72.5t-31.5 -50t-56 -28.5t-90 -9h-52l265 -170q9 -6 5.5 -17t-14.5 -11h-205q-19 0 -31.5 3t-25.5 13z" />
    <glyph glyph-name="uni2117" unicode="&#x2117;" horiz-adv-x="915" 
d="M670 365q-5 -25 -11 -43t-18.5 -30t-33.5 -17.5t-54 -5.5h-155l-13 -76q-5 -20 -25 -20h-77q-22 0 -17 20l55 314q3 20 24 20h253q86 0 86 -67q0 -14 -3 -29zM427 432l-12 -68h102q23 0 30 5.5t10 24.5l2 11q1 5 1 6.5v4.5q0 10 -7 13t-24 3h-102zM95 503q8 45 25 81.5
t45.5 62t70 39.5t100.5 14h397q83 0 129 -40.5t46 -112.5q0 -11 -1 -22t-3 -22l-54 -306q-8 -45 -24.5 -81.5t-45 -62t-70.5 -39.5t-100 -14h-397q-84 0 -130 41t-46 114q0 22 4 42zM572 91q42 0 71 7t49 22.5t31.5 39.5t17.5 58l46 264q2 11 3.5 21.5t0.5 20.5
q0 45 -29.5 65t-98.5 20h-288q-42 0 -71 -7t-49 -22.5t-32 -39.5t-18 -58l-46 -264q-4 -20 -4 -40q0 -47 29.5 -67t99.5 -20h288z" />
    <glyph glyph-name="trademark" unicode="&#x2122;" horiz-adv-x="1246" 
d="M1265 700q22 0 17 -20l-70 -400q-3 -20 -25 -20h-105q-20 0 -17 20l53 299l-147 -300q-10 -19 -31 -19h-118q-20 0 -23 19l-42 300l-53 -299q-3 -20 -25 -20h-94q-20 0 -17 20l70 400q5 20 25 20h180q21 0 24 -19l35 -295l140 295q9 19 30 19h193zM382 583l-53 -303
q-3 -20 -25 -20h-105q-20 0 -17 20l53 303h-149q-20 0 -17 20l13 77q5 20 25 20h446q22 0 17 -20l-13 -77q-3 -20 -25 -20h-150z" />
    <glyph glyph-name="uni2126" unicode="&#x2126;" horiz-adv-x="857" 
d="M481 563q-57 0 -96.5 -11t-66.5 -34t-42.5 -57.5t-24.5 -80.5q-5 -26 -6.5 -43.5t-1.5 -32.5q0 -42 13 -80t48 -74l28 -29q12 -15 9 -34l-12 -66q-3 -21 -25 -21h-294q-23 0 -20 21l19 108q5 21 27 21h119q-48 38 -72 91.5t-24 116.5q0 8 0.5 16.5t2.5 25.5q7 73 34 131
t79.5 98.5t134 62t197.5 21.5q95 0 159.5 -17.5t103.5 -51t56 -82t17 -109.5q0 -13 -0.5 -27.5t-2.5 -36.5q-7 -73 -46 -135t-107 -104h94q23 0 18 -21l-19 -108q-3 -21 -25 -21h-294q-22 0 -19 21l12 66q3 21 21 34l37 29q65 51 94 104.5t38 112.5q4 26 5.5 41t1.5 28
q0 64 -38 95.5t-132 31.5z" />
    <glyph glyph-name="onethird" unicode="&#x2153;" horiz-adv-x="1301" 
d="M463 20q-8 -9 -17 -14.5t-23 -5.5h-103q-10 0 -12.5 7.5t4.5 15.5l557 657q9 9 17.5 14.5t22.5 5.5h104q9 0 12.5 -7.5t-4.5 -15.5zM268 370l37 211h-103q-18 0 -15 17l11 63q3 17 22 20l104 16q8 2 17.5 2.5t16.5 0.5h86q18 0 15 -17l-55 -313h93q17 0 14 -17l-14 -76
q-3 -17 -20 -17h-332q-18 0 -15 17l14 76q3 17 21 17h103zM1272 317q-8 -43 -24 -66.5t-56 -30.5q55 -12 55 -67q0 -14 -3 -30l-4 -22q-5 -27 -12.5 -46t-21 -31t-35 -18t-54.5 -6h-296q-48 0 -68 13.5t-20 48.5q0 8 0.5 16t2.5 19l5 27q3 17 21 17h99q15 0 12 -15
q-1 -4 -1 -6q0 -10 15 -10h189q17 0 24.5 5t9.5 19l3 17q1 3 1 7q0 17 -27 17h-189q-18 0 -15 17l10 57q3 17 21 17h183q17 0 24 5t9 19l3 16q1 4 1 8q0 16 -25 16h-168q-16 0 -19 -16q-3 -15 -19 -15h-98q-18 0 -15 17l5 26q5 28 12 46.5t20 30t33.5 16.5t53.5 5h275
q46 0 68 -16.5t22 -53.5q0 -15 -3 -31z" />
    <glyph glyph-name="twothirds" unicode="&#x2154;" horiz-adv-x="1301" 
d="M463 20q-8 -9 -17 -14.5t-23 -5.5h-103q-10 0 -12.5 7.5t4.5 15.5l557 657q9 9 17.5 14.5t22.5 5.5h104q9 0 12.5 -7.5t-4.5 -15.5zM439 566q1 4 1 8q0 16 -25 16h-162q-16 0 -19 -14l-1 -5q-3 -15 -17 -15h-99q-18 0 -15 17l5 29q5 28 12 46.5t20 30t33.5 16.5t53.5 5
h269q46 0 68 -16.5t22 -53.5q0 -15 -3 -31l-12 -70q-5 -27 -12.5 -46t-21 -31t-35 -18t-54.5 -6h-213q-17 0 -24.5 -5.5t-9.5 -19.5l-6 -33h330q18 0 15 -17l-14 -76q-3 -17 -21 -17h-448q-18 0 -15 17l24 135q9 53 36.5 80t93.5 27h207q17 0 24 5t9 19zM1272 317
q-8 -43 -24 -66.5t-56 -30.5q55 -12 55 -67q0 -14 -3 -30l-4 -22q-5 -27 -12.5 -46t-21 -31t-35 -18t-54.5 -6h-296q-48 0 -68 13.5t-20 48.5q0 8 0.5 16t2.5 19l5 27q3 17 21 17h99q15 0 12 -15q-1 -4 -1 -6q0 -10 15 -10h189q17 0 24.5 5t9.5 19l3 17q1 3 1 7q0 17 -27 17
h-189q-18 0 -15 17l10 57q3 17 21 17h183q17 0 24 5t9 19l3 16q1 4 1 8q0 16 -25 16h-168q-16 0 -19 -16q-3 -15 -19 -15h-98q-18 0 -15 17l5 26q5 28 12 46.5t20 30t33.5 16.5t53.5 5h275q46 0 68 -16.5t22 -53.5q0 -15 -3 -31z" />
    <glyph glyph-name="oneeighth" unicode="&#x215b;" horiz-adv-x="1301" 
d="M463 20q-8 -9 -17 -14.5t-23 -5.5h-103q-10 0 -12.5 7.5t4.5 15.5l557 657q9 9 17.5 14.5t22.5 5.5h104q9 0 12.5 -7.5t-4.5 -15.5zM268 370l37 211h-103q-18 0 -15 17l11 63q3 17 22 20l104 16q8 2 17.5 2.5t16.5 0.5h86q18 0 15 -17l-55 -313h93q17 0 14 -17l-14 -76
q-3 -17 -20 -17h-332q-18 0 -15 17l14 76q3 17 21 17h103zM1272 316q-8 -43 -23.5 -66t-56.5 -30q55 -12 55 -67q0 -14 -3 -30l-4 -22q-5 -27 -12.5 -46t-21 -31t-35 -18t-54.5 -6h-289q-47 0 -68.5 16.5t-21.5 54.5q0 13 3 30l4 23q7 44 25 67.5t63 29.5q-50 11 -50 66
q0 13 3 30l4 22q5 27 12 46t20.5 31t35.5 18t55 6h276q46 0 68 -16.5t22 -53.5q0 -15 -3 -31zM920 175q-17 0 -24 -5t-9 -19l-3 -15q-1 -4 -1 -10q0 -16 26 -16h167q17 0 24.5 5t9.5 19l3 16q1 3 1 8q0 17 -27 17h-167zM958 330q-17 0 -24.5 -5t-10.5 -19l-3 -15
q-1 -3 -1 -8q0 -17 27 -17h151q17 0 24 5t9 19l3 16q1 4 1 8q0 16 -25 16h-151z" />
    <glyph glyph-name="threeeighths" unicode="&#x215c;" horiz-adv-x="1301" 
d="M463 20q-8 -9 -17 -14.5t-23 -5.5h-103q-10 0 -12.5 7.5t4.5 15.5l557 657q9 9 17.5 14.5t22.5 5.5h104q9 0 12.5 -7.5t-4.5 -15.5zM1272 316q-8 -43 -23.5 -66t-56.5 -30q55 -12 55 -67q0 -14 -3 -30l-4 -22q-5 -27 -12.5 -46t-21 -31t-35 -18t-54.5 -6h-289
q-47 0 -68.5 16.5t-21.5 54.5q0 13 3 30l4 23q7 44 25 67.5t63 29.5q-50 11 -50 66q0 13 3 30l4 22q5 27 12 46t20.5 31t35.5 18t55 6h276q46 0 68 -16.5t22 -53.5q0 -15 -3 -31zM920 175q-17 0 -24 -5t-9 -19l-3 -15q-1 -4 -1 -10q0 -16 26 -16h167q17 0 24.5 5t9.5 19
l3 16q1 3 1 8q0 17 -27 17h-167zM958 330q-17 0 -24.5 -5t-10.5 -19l-3 -15q-1 -3 -1 -8q0 -17 27 -17h151q17 0 24 5t9 19l3 16q1 4 1 8q0 16 -25 16h-151zM579 577q-8 -43 -24 -66.5t-56 -30.5q55 -12 55 -67q0 -14 -3 -30l-4 -22q-5 -27 -12.5 -46t-21 -31t-35 -18
t-54.5 -6h-296q-48 0 -68 13.5t-20 48.5q0 8 0.5 16t2.5 19l5 27q3 17 21 17h99q15 0 12 -15q-1 -4 -1 -6q0 -10 15 -10h189q17 0 24.5 5t9.5 19l3 17q1 3 1 7q0 17 -27 17h-189q-18 0 -15 17l10 57q3 17 21 17h183q17 0 24 5t9 19l3 16q1 4 1 8q0 16 -25 16h-168
q-16 0 -19 -16q-3 -15 -19 -15h-98q-18 0 -15 17l5 26q5 28 12 46.5t20 30t33.5 16.5t53.5 5h275q46 0 68 -16.5t22 -53.5q0 -15 -3 -31z" />
    <glyph glyph-name="fiveeighths" unicode="&#x215d;" horiz-adv-x="1301" 
d="M463 20q-8 -9 -17 -14.5t-23 -5.5h-103q-10 0 -12.5 7.5t4.5 15.5l557 657q9 9 17.5 14.5t22.5 5.5h104q9 0 12.5 -7.5t-4.5 -15.5zM174 399q13 0 13 -11q0 -3 -0.5 -5t-0.5 -4q0 -9 15 -9h177q17 0 24 5t9 19l6 36q0 2 0.5 4t0.5 4q0 16 -25 16h-167q-11 0 -18.5 -4.5
t-11.5 -11.5q-6 -10 -17 -10h-90q-18 0 -15 17l51 238q3 17 21 17h425q18 0 15 -17l-13 -76q-3 -17 -21 -17h-320l-15 -69q12 11 29 17.5t40 6.5h184q47 0 68.5 -17t21.5 -54q0 -14 -3 -30l-15 -83q-5 -27 -12 -46t-21 -31t-35.5 -18t-54.5 -6h-285q-47 0 -67.5 13.5
t-20.5 48.5q0 8 1 16.5t3 19.5l4 24q3 17 21 17h99zM1272 316q-8 -43 -23.5 -66t-56.5 -30q55 -12 55 -67q0 -14 -3 -30l-4 -22q-5 -27 -12.5 -46t-21 -31t-35 -18t-54.5 -6h-289q-47 0 -68.5 16.5t-21.5 54.5q0 13 3 30l4 23q7 44 25 67.5t63 29.5q-50 11 -50 66q0 13 3 30
l4 22q5 27 12 46t20.5 31t35.5 18t55 6h276q46 0 68 -16.5t22 -53.5q0 -15 -3 -31zM920 175q-17 0 -24 -5t-9 -19l-3 -15q-1 -4 -1 -10q0 -16 26 -16h167q17 0 24.5 5t9.5 19l3 16q1 3 1 8q0 17 -27 17h-167zM958 330q-17 0 -24.5 -5t-10.5 -19l-3 -15q-1 -3 -1 -8
q0 -17 27 -17h151q17 0 24 5t9 19l3 16q1 4 1 8q0 16 -25 16h-151z" />
    <glyph glyph-name="seveneighths" unicode="&#x215e;" horiz-adv-x="1301" 
d="M403 20q-8 -9 -17 -14.5t-23 -5.5h-103q-10 0 -12.5 7.5t4.5 15.5l557 657q9 9 17.5 14.5t22.5 5.5h104q9 0 12.5 -7.5t-4.5 -15.5zM1272 316q-8 -43 -23.5 -66t-56.5 -30q55 -12 55 -67q0 -14 -3 -30l-4 -22q-5 -27 -12.5 -46t-21 -31t-35 -18t-54.5 -6h-289
q-47 0 -68.5 16.5t-21.5 54.5q0 13 3 30l4 23q7 44 25 67.5t63 29.5q-50 11 -50 66q0 13 3 30l4 22q5 27 12 46t20.5 31t35.5 18t55 6h276q46 0 68 -16.5t22 -53.5q0 -15 -3 -31zM920 175q-17 0 -24 -5t-9 -19l-3 -15q-1 -4 -1 -10q0 -16 26 -16h167q17 0 24.5 5t9.5 19
l3 16q1 3 1 8q0 17 -27 17h-167zM958 330q-17 0 -24.5 -5t-10.5 -19l-3 -15q-1 -3 -1 -8q0 -17 27 -17h151q17 0 24 5t9 19l3 16q1 4 1 8q0 16 -25 16h-151zM600 700q18 0 15 -17l-15 -87q-2 -8 -7 -15t-12 -14l-269 -291q-8 -8 -16 -12t-19 -4h-137q-8 0 -9.5 6t6.5 13
l308 311h-218l-8 -41q-3 -17 -21 -17h-98q-17 0 -14 17l24 134q3 17 20 17h470z" />
    <glyph glyph-name="partialdiff" unicode="&#x2202;" horiz-adv-x="857" 
d="M433 449q86 0 135 -19t69 -52l5 27q3 16 3 32q0 54 -40 85.5t-128 31.5q-30 0 -53 -2.5t-51 -8.5q-22 -5 -19 17l19 104q2 10 9 16.5t17 8.5q38 6 71 8.5t65 2.5q84 0 141 -17.5t92 -47.5t50 -70t15 -86q0 -14 -1.5 -29t-3.5 -30l-20 -109q-13 -75 -39 -132.5
t-69.5 -97.5t-107 -60.5t-152.5 -20.5h-186q-44 0 -84 7.5t-70 25.5t-48 48.5t-18 75.5q0 20 5 48l6 37q11 61 34.5 101t59.5 63.5t84.5 33t108.5 9.5h101zM397 146q45 0 79.5 6t59.5 18t42 30t28 42q-3 20 -14.5 32.5t-35 19t-60 8.5t-88.5 2h-69q-42 0 -72.5 -12.5
t-38.5 -55.5l-4 -22q-1 -5 -1.5 -8.5t-0.5 -7.5q0 -32 25.5 -42t63.5 -10h86z" />
    <glyph glyph-name="uni2206" unicode="&#x2206;" horiz-adv-x="857" 
d="M205 150h428l-143 405zM-8 0q-22 0 -19 21l19 108q2 10 6 20.5t10 19.5l363 512q13 19 35 19h199q21 0 29 -19l180 -512q8 -19 3 -40l-19 -108q-3 -21 -25 -21h-781z" />
    <glyph glyph-name="product" unicode="&#x220f;" horiz-adv-x="857" 
d="M845 700q11 0 16 -5.5t3 -15.5l-141 -802q-2 -10 -9 -15.5t-18 -5.5h-142q-21 0 -18 21l118 673h-351l-118 -673q-3 -21 -26 -21h-143q-21 0 -18 21l141 802q5 21 26 21h680z" />
    <glyph glyph-name="summation" unicode="&#x2211;" horiz-adv-x="857" 
d="M16 6q3 20 23 34l301 233l-219 234q-14 13 -11 35l24 137q5 21 26 21h691q10 0 15 -5.5t3 -15.5l-19 -108q-2 -10 -9 -15.5t-17 -5.5h-504l253 -268q5 -6 6.5 -10.5t0.5 -12.5q-2 -8 -5 -12.5t-11 -10.5l-301 -230h466q21 0 18 -21l-19 -108q-2 -10 -9 -15.5t-17 -5.5
h-691q-21 0 -18 21z" />
    <glyph glyph-name="minus" unicode="&#x2212;" horiz-adv-x="777" 
d="M81 280q-23 0 -18 21l17 98q3 21 26 21h621q21 0 18 -21l-17 -98q-5 -21 -26 -21h-621z" />
    <glyph glyph-name="radical" unicode="&#x221a;" horiz-adv-x="777" 
d="M143 280h-82q-23 0 -18 21l17 98q3 21 26 21h160q21 0 26 -20l51 -261l347 541q7 10 15 15t22 5h124q9 0 13 -7.5t-1 -15.5l-429 -657q-12 -20 -37 -20h-150q-23 0 -28 20z" />
    <glyph glyph-name="integral" unicode="&#x222b;" horiz-adv-x="474" 
d="M29 -71q20 0 33 2t21 8t12 16.5t7 27.5l123 703q6 36 17 63.5t30.5 46t51.5 28t80 9.5h103q22 0 19 -21l-16 -91q-5 -21 -26 -21h-21q-20 0 -32.5 -2t-20.5 -8t-12.5 -16.5t-7.5 -27.5l-124 -703q-6 -36 -16.5 -63.5t-30 -46t-51 -28t-80.5 -9.5h-103q-22 0 -19 21l16 91
q5 21 26 21h21z" />
    <glyph glyph-name="approxequal" unicode="&#x2248;" horiz-adv-x="777" 
d="M587 527q42 0 83.5 17t80.5 57q8 9 18.5 7.5t8.5 -14.5l-19 -108q-2 -13 -7.5 -22t-11.5 -17q-40 -42 -86 -58.5t-83 -16.5q-54 0 -93 12t-72 26t-65 26t-73 12q-42 0 -84 -17t-80 -57q-9 -9 -19.5 -7.5t-8.5 14.5l19 108q2 13 7.5 22t12.5 17q40 42 85 58.5t83 16.5
q54 0 93 -12t72 -26t65.5 -26t73.5 -12zM539 247q42 0 83.5 17t80.5 57q8 9 18.5 7.5t8.5 -14.5l-19 -108q-2 -13 -7.5 -22t-11.5 -17q-40 -42 -86 -58.5t-83 -16.5q-54 0 -93 12t-72 26t-65 26t-73 12q-42 0 -84 -17t-80 -57q-9 -9 -19.5 -7.5t-8.5 14.5l19 108
q2 13 7.5 22t12.5 17q40 42 85 58.5t83 16.5q54 0 93 -12t72 -26t65.5 -26t73.5 -12z" />
    <glyph glyph-name="notequal" unicode="&#x2260;" horiz-adv-x="777" 
d="M316 145l-91 -112q-17 -20 -42 -20h-106q-10 0 -11.5 7.5t5.5 15.5l88 109h-97q-23 0 -18 21l17 98q3 21 26 21h186l105 130h-268q-22 0 -19 21l18 98q3 21 25 21h358l91 112q17 20 42 20h107q10 0 11.5 -7.5t-5.5 -15.5l-89 -109h96q22 0 19 -21l-18 -98q-3 -21 -25 -21
h-186l-105 -130h268q21 0 18 -21l-17 -98q-5 -21 -26 -21h-357z" />
    <glyph glyph-name="lessequal" unicode="&#x2264;" horiz-adv-x="777" 
d="M119 331q-20 6 -16 30l24 137q4 24 27 30l586 152q11 3 17 -2.5t4 -14.5l-18 -107q-4 -24 -27 -29l-429 -102l393 -101q21 -5 17 -29l-18 -99q-2 -9 -10 -14.5t-17 -2.5zM64 14q-23 0 -18 21l17 98q3 21 26 21h561q21 0 18 -21l-17 -98q-5 -21 -26 -21h-561z" />
    <glyph glyph-name="greaterequal" unicode="&#x2265;" horiz-adv-x="777" 
d="M64 14q-10 0 -15 5.5t-3 15.5l17 98q2 10 9 15.5t17 5.5h561q21 0 18 -21l-17 -98q-5 -21 -26 -21h-561zM716 528q20 -6 16 -30l-24 -137q-4 -24 -27 -30l-586 -152q-11 -3 -17 2.5t-4 14.5l18 108q4 24 27 29l429 102l-393 101q-21 5 -17 29l18 98q2 9 10 14.5t17 2.5z
" />
    <glyph glyph-name="lozenge" unicode="&#x25ca;" horiz-adv-x="777" 
d="M62 350q2 11 7 19.5t13 17.5l244 293q8 9 16 14.5t22 5.5h203q14 0 20 -5.5t10 -14.5l142 -293q5 -9 6.5 -17.5t-0.5 -19.5t-6.5 -19.5t-12.5 -17.5l-245 -293q-8 -9 -15.5 -14.5t-21.5 -5.5h-203q-14 0 -20 5.5t-11 14.5l-141 293q-5 9 -7 17.5t0 19.5zM455 586
l-199 -250l95 -223l200 251z" />
    <glyph glyph-name="glyph419" horiz-adv-x="278" 
d="M50 -160h-53q-21 0 -18 21l12 66q3 21 25 21h134q22 0 19 -21l-12 -66q-2 -10 -7.5 -19.5t-12.5 -16.5l-58 -50q-16 -13 -32 -13h-58q-8 0 -10.5 6.5t5.5 12.5z" />
    <glyph glyph-name="i.aalt" horiz-adv-x="302" 
d="M137 700q3 20 24 20h140q21 0 18 -20l-15 -86q-5 -20 -25 -20h-140q-22 0 -17 20zM103 506q3 20 24 20h140q21 0 18 -20l-86 -486q-3 -20 -24 -20h-140q-21 0 -18 20z" />
    </font>
</defs>
</svg>
